<svg version="1.1" id="Layer_1" xmlns="http://www.w3.org/2000/svg" xmlns:xlink="http://www.w3.org/1999/xlink" x="0px" y="0px"
	 width="100%" viewBox="0 0 1024 1024" enable-background="new 0 0 1024 1024" xml:space="preserve">
<path fill="#000000" opacity="1.000000" stroke="none" 
	d="
M937.999878,550.356445 
	C877.503662,550.360840 817.507263,550.418762 757.511414,550.267395 
	C752.673401,550.255188 750.128906,551.702576 748.037231,556.182678 
	C738.075806,577.519531 724.552612,596.408081 707.678040,612.867981 
	C706.604736,613.914917 705.596680,615.029602 704.507751,616.059387 
	C701.989258,618.441101 701.907410,621.471497 702.727661,624.410034 
	C703.635437,627.662048 706.700256,626.933838 709.070740,626.938293 
	C749.901123,627.015320 790.731750,626.990845 831.561951,627.109802 
	C837.537231,627.127258 843.633179,627.127869 849.459900,628.247253 
	C862.368530,630.726868 869.668579,639.869568 874.188904,651.424805 
	C881.630554,670.447693 882.648315,690.242920 880.547180,710.338196 
	C879.306274,722.206421 876.338440,733.588806 870.354370,743.976135 
	C864.097168,754.837646 855.359863,761.741333 841.946228,760.400757 
	C841.121826,760.318420 840.279663,760.373291 839.447876,760.412109 
	C833.727417,760.678467 832.617859,761.911682 833.454041,767.397278 
	C835.078613,778.054321 836.754150,788.703857 838.455078,799.349060 
	C841.699280,819.653931 844.964417,839.955505 848.245422,860.254456 
	C849.475281,867.863525 850.815125,868.946716 859.638672,869.596069 
	C862.120117,869.778748 864.598450,869.610168 867.072327,870.284119 
	C873.765381,872.107605 876.478638,875.115967 877.339966,882.078857 
	C878.263855,889.548401 878.385864,889.664856 885.970154,889.666321 
	C914.468384,889.671692 942.966553,889.665222 971.464783,889.683838 
	C973.291504,889.685059 975.188354,889.583496 976.927490,890.023743 
	C979.283264,890.620178 980.432983,892.417969 980.268799,894.927856 
	C980.104614,897.438599 978.840210,898.993103 976.292175,899.233032 
	C974.638000,899.388855 972.963074,899.353882 971.297485,899.353699 
	C942.965942,899.350403 914.634338,899.332825 886.302795,899.333984 
	C878.915161,899.334290 878.878784,899.391113 877.209595,906.794983 
	C876.221558,911.177856 873.608765,913.925415 869.049561,914.314270 
	C856.305115,915.401367 843.522888,916.109558 830.807373,917.456177 
	C812.465271,919.398743 794.027771,920.177063 775.710388,922.492188 
	C763.857483,923.990295 751.866455,924.376709 739.945007,925.355164 
	C725.880737,926.509644 711.825195,927.769958 697.765137,928.975891 
	C680.696594,930.439941 663.639221,932.059692 646.554321,933.299194 
	C634.244873,934.192383 622.623535,929.779114 610.695251,927.796509 
	C591.551270,924.614746 572.515076,920.788879 553.411743,917.355347 
	C546.100281,916.041138 542.917053,912.913940 542.728027,905.341431 
	C542.625610,901.237793 540.695618,899.451416 536.991028,899.423096 
	C523.992920,899.323730 510.993591,899.392578 497.994934,899.344849 
	C495.351379,899.335144 493.681641,900.733398 492.215149,902.691040 
	C488.139465,908.132263 482.761902,911.998657 476.937134,915.360657 
	C471.912109,918.261108 466.930786,918.281067 462.500580,914.626160 
	C459.255157,911.948853 456.760468,912.391846 453.631042,914.620789 
	C447.156311,919.232361 440.507629,920.132629 433.992523,914.541992 
	C432.343170,913.126770 430.758179,913.308411 428.970581,914.364380 
	C422.024963,918.467468 415.189362,919.071960 408.684418,913.417664 
	C406.953156,911.912720 404.907867,912.244141 402.958008,912.486145 
	C395.803802,913.374084 390.452850,910.495911 387.257782,904.296265 
	C384.945282,899.809021 382.029053,899.448669 377.841980,901.083923 
	C372.499634,903.170532 367.096710,903.161682 361.898773,900.473816 
	C359.068390,899.010071 356.052155,899.350037 353.076752,899.349548 
	C248.749924,899.333008 144.423096,899.333679 40.096260,899.330322 
	C38.429844,899.330261 36.760521,899.368286 35.097641,899.285828 
	C32.038555,899.134094 29.800930,897.692749 29.874952,894.467407 
	C29.947235,891.317749 32.139084,889.743835 35.214939,889.720520 
	C43.713894,889.656067 52.213566,889.688782 60.712948,889.676880 
	C68.887039,889.665405 69.749184,888.880554 69.750587,880.935669 
	C69.758125,838.271851 69.705017,795.607971 69.781563,752.944336 
	C69.788200,749.245300 68.764297,746.317566 66.557762,743.328979 
	C53.489506,725.628845 46.325539,705.185608 39.992233,684.446777 
	C32.404148,659.599060 27.653502,634.123962 24.819632,608.335876 
	C21.943478,582.163086 21.128613,555.852356 22.836037,529.579468 
	C24.324579,506.674561 27.795874,484.094910 35.979603,462.363770 
	C46.744392,433.778839 66.120529,412.922852 91.953979,397.494354 
	C111.167953,386.019226 131.444473,376.701965 152.246643,368.590820 
	C161.533981,364.969543 168.284012,359.810516 172.590775,350.330963 
	C177.154541,340.285767 181.910797,329.941467 191.010956,322.726196 
	C192.451279,321.584229 192.675171,319.935730 192.673920,318.210999 
	C192.667206,309.044983 192.627777,299.878418 192.718140,290.713226 
	C192.746613,287.824738 191.677200,285.966064 188.898010,285.039368 
	C166.212280,277.475433 150.667358,240.689560 166.037338,216.390961 
	C167.443253,214.168335 167.660858,211.977356 167.124405,209.290863 
	C163.664703,191.964584 161.224731,174.520584 164.714691,156.900009 
	C168.035126,140.135422 176.898926,127.183296 192.146515,118.992355 
	C194.693497,117.624130 196.988510,116.103607 198.639236,113.695274 
	C211.318909,95.196220 229.661774,87.202545 251.305389,85.644440 
	C299.819519,82.151962 339.639771,100.660080 372.970917,134.668228 
	C382.703491,144.598511 389.380707,156.447205 389.388672,171.069427 
	C389.390381,174.218613 388.793365,176.638367 385.347260,177.564285 
	C383.361603,178.097809 382.076965,179.344925 382.754761,181.622940 
	C385.145660,189.658737 385.062347,198.036484 386.175873,206.247452 
	C386.507874,208.695770 387.537842,209.966003 389.983215,210.780960 
	C396.169830,212.842728 399.400177,217.207230 399.242249,224.036545 
	C398.980225,235.364197 397.630829,246.583923 393.528717,257.277863 
	C391.578979,262.360779 388.649597,266.778381 383.970001,269.765411 
	C381.506561,271.337830 380.713257,273.466003 380.195892,276.326355 
	C376.047638,299.261566 371.185272,322.002960 360.399048,342.989990 
	C356.639435,350.305237 352.122162,357.027313 346.450104,362.995941 
	C341.098022,368.627869 342.731750,375.342072 350.211975,378.355499 
	C364.889679,384.268372 379.364624,390.640625 393.663116,397.410889 
	C404.808105,402.688049 415.684540,408.450623 425.955475,415.328979 
	C431.423218,418.990723 436.396057,423.084076 439.738251,428.844757 
	C441.651093,432.141815 443.835480,433.243439 447.925690,432.142395 
	C457.805786,429.482788 466.343811,434.752228 468.868744,444.685516 
	C469.518036,447.239868 470.632202,449.142700 472.440186,450.990143 
	C477.136902,455.789490 478.321625,461.531006 476.653625,468.042175 
	C475.186157,473.770447 472.307007,478.841431 469.667816,484.023224 
	C468.549194,486.219543 468.056458,488.362427 468.611298,490.744110 
	C471.701050,504.006805 474.811371,517.264709 477.868469,530.534973 
	C478.367889,532.702820 479.239441,534.443420 481.005341,535.977112 
	C488.618073,542.588562 490.296051,549.749573 485.778259,558.663513 
	C483.983002,562.205688 483.614105,565.440247 484.398926,569.110352 
	C493.075500,609.684509 498.700317,650.832520 507.671814,691.365051 
	C513.183533,716.266418 511.808319,741.659424 510.646606,766.944458 
	C510.119781,778.410583 508.902893,789.804199 507.344818,801.166199 
	C506.788116,805.225891 507.780487,809.168762 508.516754,813.035400 
	C510.423889,823.051270 508.644470,832.573853 505.421082,841.942444 
	C504.109253,845.755127 503.931610,849.229492 505.516693,853.053040 
	C509.605621,862.916504 509.293030,872.802429 505.025116,882.612183 
	C502.509033,888.395264 503.369171,889.623108 509.787262,889.654297 
	C518.286377,889.695557 526.786011,889.673889 535.285156,889.630310 
	C539.527527,889.608521 542.236877,888.389221 543.029846,883.297363 
	C544.296082,875.166931 546.453369,873.845215 554.826416,872.347595 
	C562.746887,870.930908 570.760376,871.550781 578.723206,870.953613 
	C599.942078,869.361938 621.232788,868.750977 642.485352,867.576294 
	C656.759888,866.787354 671.014465,865.643799 685.285522,864.783081 
	C689.912842,864.503967 692.014893,862.212646 692.710083,857.710449 
	C697.366699,827.553650 702.163452,797.418457 706.902405,767.274292 
	C707.629517,762.649170 706.221252,760.408752 701.502380,760.570679 
	C692.661621,760.873962 684.768921,759.403809 677.982666,753.067871 
	C675.113464,750.388977 671.848511,752.309143 671.375916,756.296326 
	C670.204468,766.178284 668.860229,767.353149 658.798157,767.350952 
	C645.132385,767.347839 631.466553,767.371033 617.800781,767.352966 
	C610.801331,767.343689 608.282837,765.079895 607.647949,758.007080 
	C607.336609,754.539429 606.107056,752.552307 602.224304,752.294189 
	C576.052734,750.553772 561.863098,738.971680 555.598938,712.920471 
	C550.619263,692.211487 552.977173,672.558655 567.716248,655.798523 
	C575.623657,646.806946 585.719971,642.297363 597.557922,641.720703 
	C604.210205,641.396729 610.903259,641.782043 617.540771,641.317749 
	C624.132812,640.856567 625.040588,638.919678 625.726685,632.485840 
	C626.767456,622.726257 623.552490,615.664368 616.198730,608.918335 
	C600.278870,594.314087 589.318726,575.918884 580.267944,556.469116 
	C578.078003,551.763062 575.280029,550.166138 570.295593,550.256470 
	C556.300964,550.510132 542.298889,550.371399 528.299805,550.350342 
	C503.937500,550.313660 486.686615,533.236816 486.679626,508.846344 
	C486.641144,375.187988 486.652649,241.529633 486.698364,107.871292 
	C486.706055,85.380936 503.391479,68.705750 525.935608,68.699257 
	C669.426514,68.657913 812.917480,68.663811 956.408386,68.697021 
	C978.895203,68.702225 995.327454,85.131340 995.330750,107.500053 
	C995.350464,241.991669 995.350586,376.483307 995.333862,510.974915 
	C995.331177,532.726074 978.227112,550.014587 956.473389,550.330750 
	C950.483398,550.417847 944.491089,550.351807 937.999878,550.356445 
M498.353271,336.499908 
	C498.358887,394.161682 498.352081,451.823486 498.378693,509.485260 
	C498.385559,524.375610 506.905060,535.373169 521.383667,537.672058 
	C536.730713,540.108704 552.296204,538.276245 567.762207,538.539246 
	C571.034790,538.594849 571.949707,536.225708 571.168701,533.290344 
	C570.399780,530.400208 569.405823,527.569824 568.639526,524.679077 
	C566.622192,517.068665 568.533447,514.445984 576.304504,514.072449 
	C577.801392,514.000549 579.303650,514.033020 580.803467,514.033508 
	C610.801392,514.042358 640.799316,514.054443 670.797241,514.064026 
	C697.628662,514.072571 724.460205,514.025269 751.291321,514.117737 
	C759.586670,514.146301 761.690857,517.074646 759.626221,525.110291 
	C758.923218,527.846313 758.275879,530.625610 757.237488,533.239929 
	C755.568604,537.441467 757.296509,538.777527 761.256836,538.653564 
	C762.755188,538.606689 764.256348,538.652954 765.756226,538.652710 
	C828.418640,538.644165 891.081360,538.531677 953.743347,538.692566 
	C971.400330,538.737854 983.843018,525.955872 983.804382,508.711334 
	C983.505676,375.554352 983.622803,242.396362 983.634583,109.238693 
	C983.636169,91.363907 972.711365,80.357361 954.700928,80.356987 
	C812.377197,80.354012 670.053528,80.360725 527.729797,80.378258 
	C509.155365,80.380547 498.347900,91.313896 498.347839,110.015007 
	C498.347534,185.176636 498.351135,260.338257 498.353271,336.499908 
M285.870453,710.332642 
	C291.497406,706.769531 297.118622,703.197388 302.753571,699.646912 
	C305.895020,697.667419 305.888885,695.688171 302.899048,693.539490 
	C301.007202,692.179810 299.134460,690.776855 297.374359,689.253235 
	C277.513977,672.060730 263.110901,652.020325 263.695312,624.240295 
	C263.787811,619.843872 261.347626,620.445679 258.416626,621.221741 
	C236.221146,627.098816 213.987457,632.832031 191.801834,638.745728 
	C167.093903,645.331909 141.568405,649.861755 120.818329,666.598938 
	C118.875954,668.165649 116.340576,668.606812 114.531395,666.373352 
	C112.542351,663.917908 114.412308,661.989136 116.129219,660.375916 
	C121.875214,654.976868 128.289047,650.554504 135.517426,647.329407 
	C137.198456,646.579529 139.187622,646.025940 140.204544,643.291687 
	C123.901741,643.653503 110.456772,650.192444 97.809036,658.485596 
	C96.240059,657.436951 97.436485,654.419739 94.776497,654.960938 
	C92.612259,655.401306 90.578590,656.295349 90.102989,658.855225 
	C89.638107,661.357361 88.692612,663.207825 85.794464,662.827087 
	C84.926140,661.272034 85.547188,660.232605 86.333633,659.373840 
	C90.710915,654.593994 94.872414,649.639832 100.534958,646.164673 
	C113.838425,638.000122 128.598984,635.092285 143.818329,633.866699 
	C147.720230,633.552429 149.196899,632.510132 148.024506,628.315063 
	C139.409088,597.487427 135.729218,565.733215 130.746750,534.234741 
	C126.898132,509.904388 120.887566,486.322113 109.042412,464.535583 
	C103.097694,453.601593 95.912086,443.661652 85.279839,436.707184 
	C83.758537,435.712097 82.260750,434.326569 80.352524,434.468689 
	C71.519402,435.126617 63.738384,438.364197 58.026375,445.245728 
	C47.962543,457.370148 45.004257,472.605103 40.670132,487.143280 
	C39.418407,491.341949 39.800560,496.057922 39.635296,500.544189 
	C39.246098,511.109131 35.728485,521.121948 34.326412,531.523682 
	C32.583775,544.451965 32.564922,556.981934 37.969753,569.223083 
	C39.765827,573.290894 40.046780,577.922119 39.423054,582.472473 
	C38.664761,588.004639 39.138523,593.432373 40.933010,598.741150 
	C46.486698,615.170898 55.650772,630.022522 61.683483,646.244019 
	C62.629807,648.788635 64.424149,650.793274 66.291512,652.716370 
	C69.272789,655.786560 70.962547,659.467041 72.048187,663.610229 
	C74.418594,672.656494 73.147644,681.472351 70.686378,690.195435 
	C69.679390,693.764343 68.608643,697.266357 69.211655,700.976135 
	C71.133835,712.801575 72.988335,724.573669 78.105339,735.674561 
	C83.353722,747.060425 90.107597,756.283447 101.974243,761.873901 
	C119.028107,769.908081 136.283890,768.749512 153.737823,764.912048 
	C200.738724,754.578308 243.685944,734.302734 285.870453,710.332642 
M107.856339,446.696350 
	C120.078835,463.901123 127.857956,483.151093 133.226913,503.370636 
	C139.250458,526.055420 141.604248,549.434265 145.294800,572.550049 
	C148.470932,592.443909 152.555145,612.098083 158.139709,631.457581 
	C159.499405,636.171143 161.747208,637.419250 166.503967,636.034851 
	C174.957428,633.574402 183.621246,631.846375 192.116669,629.518616 
	C225.390945,620.401672 259.827637,614.929016 290.561462,597.789490 
	C294.328369,595.688782 296.025482,593.651428 295.846985,589.430176 
	C295.298615,576.461121 295.471710,563.479797 295.007416,550.494751 
	C293.889343,519.225586 292.799133,487.964874 290.687042,456.742310 
	C290.232727,450.025879 288.277679,444.614502 282.125977,440.973755 
	C277.705688,438.357727 273.628113,435.131256 269.540771,431.990814 
	C261.595673,425.886383 258.199768,425.767029 249.356125,430.657288 
	C237.966751,436.955292 227.518311,444.707306 216.445786,451.487885 
	C209.020294,456.035065 204.452133,455.164886 199.556503,447.937073 
	C196.470001,443.380219 194.016495,438.470703 191.729706,433.457397 
	C184.616135,417.862305 177.311340,402.354065 170.268311,386.727570 
	C169.130692,384.203522 167.698990,383.309875 165.065262,383.128845 
	C159.372009,382.737488 145.317810,391.362701 142.522690,398.369812 
	C138.289413,408.982330 130.613800,414.018677 119.658348,414.664337 
	C111.807098,415.127045 105.904045,419.355164 100.394707,424.267883 
	C96.040543,428.150574 96.109009,433.121613 99.987183,437.376099 
	C102.563919,440.202881 104.959862,443.194427 107.856339,446.696350 
M342.366852,683.879028 
	C333.998016,691.108765 326.622711,699.393982 314.774139,701.925598 
	C310.164978,702.910400 304.587280,706.539978 304.942261,713.555847 
	C305.977905,734.024109 305.031494,754.515503 305.840179,775.004272 
	C307.002502,804.451233 305.841309,833.948547 307.086914,863.414917 
	C307.319763,868.924377 307.598053,873.078796 314.088135,874.472351 
	C316.689911,875.031067 319.025787,877.178467 321.300568,878.850464 
	C332.277130,886.918579 343.467010,883.484070 354.646759,879.529297 
	C355.460663,879.241394 356.109070,878.198547 356.614990,877.372437 
	C360.795013,870.546204 366.662048,865.387329 373.113800,860.876770 
	C385.493774,852.221741 398.157379,843.996033 408.294220,832.483337 
	C410.651031,829.806641 412.326355,827.302063 412.573517,823.902588 
	C413.321747,813.612732 414.322327,803.323669 414.567657,793.018677 
	C414.967926,776.204163 415.969879,759.415039 416.456451,742.613953 
	C417.512360,706.154663 417.975006,669.678040 418.630585,633.207642 
	C418.661560,631.483643 419.243073,629.485046 417.359619,628.135315 
	C416.058960,627.955505 415.167816,628.742188 414.271698,629.478821 
	C405.951752,636.317749 396.642761,641.388611 386.586395,645.187439 
	C380.423737,647.515442 375.221710,651.242432 370.582275,655.986633 
	C361.500732,665.273254 352.153046,674.299561 342.366852,683.879028 
M204.249054,351.229858 
	C205.083298,354.318542 206.551346,357.107086 208.278381,359.776062 
	C215.753174,371.327759 225.131027,381.281158 235.021576,390.698761 
	C251.804367,406.679138 269.905304,421.121460 288.213867,435.311707 
	C291.454712,437.823578 293.189941,437.673553 295.098358,434.098816 
	C302.949036,419.393799 310.450745,404.540344 315.377777,388.541199 
	C317.673126,381.087646 316.138702,378.945709 308.338348,379.496185 
	C296.492157,380.332184 285.103882,378.435394 274.118347,374.198059 
	C261.859711,369.469635 250.761703,362.854645 241.961334,352.864716 
	C239.758041,350.363586 237.837250,347.118500 240.460678,344.406189 
	C243.531357,341.231476 245.751678,344.840363 247.811981,346.783569 
	C258.936707,357.275940 271.711578,364.699219 286.674957,368.294708 
	C317.437714,375.686646 338.149292,366.212036 352.732208,338.034485 
	C361.854675,320.407806 366.704346,301.431610 370.502899,282.130524 
	C371.432648,277.406219 369.498993,275.399353 364.526001,275.315674 
	C359.862396,275.237152 355.197327,275.248535 350.532928,275.210724 
	C346.906952,275.181305 345.233246,276.939301 345.936951,280.528168 
	C346.587769,283.847595 346.507477,287.192474 346.238556,290.484802 
	C345.795227,295.912750 343.063660,300.168488 337.710358,301.659668 
	C330.061981,303.790222 322.207336,303.420532 314.456207,301.940094 
	C312.189819,301.507202 310.558746,299.998291 310.755219,297.338379 
	C310.959656,294.570435 312.832275,293.742157 315.233765,293.700531 
	C318.898499,293.636993 322.565277,293.688599 326.230042,293.624756 
	C336.006287,293.454437 338.505035,290.327972 336.310364,280.875244 
	C334.432404,272.786560 332.541656,264.697571 330.434387,256.667053 
	C329.661407,253.721268 329.087860,250.458252 325.938019,248.566193 
	C322.040131,250.819397 321.107483,254.918930 319.440247,258.416321 
	C315.488403,266.706268 309.882538,272.842529 300.277618,274.119476 
	C288.838165,275.640289 277.472107,275.739410 266.019806,273.593628 
	C244.813004,269.620056 239.619553,259.000061 236.770416,240.441864 
	C235.832367,234.331696 235.760284,233.906113 229.560959,234.345871 
	C226.585037,234.556946 224.455582,235.431091 224.217651,238.949783 
	C224.109299,240.552246 223.370590,242.154556 222.714386,243.668777 
	C221.273605,246.993561 218.742493,249.069061 215.058060,249.184540 
	C211.303940,249.302185 208.797668,247.147827 207.274887,243.911301 
	C206.143829,241.507339 205.380280,238.933044 204.310760,236.497101 
	C200.828796,228.566498 196.376617,221.396988 188.120560,217.591141 
	C181.131439,214.369354 175.676453,216.229767 172.329681,223.146194 
	C168.757950,230.527542 167.697998,238.333374 169.393234,246.433716 
	C172.248932,260.079041 179.115509,270.698547 192.090317,276.812347 
	C195.517654,278.427338 200.374695,277.138916 202.567444,280.500214 
	C204.837769,283.980438 202.140137,288.202789 202.218399,292.183533 
	C202.516357,307.340424 202.408859,322.506866 202.313553,337.668854 
	C202.286041,342.043854 202.848343,346.277374 204.249054,351.229858 
M118.353737,835.424805 
	C118.945473,837.717896 118.973137,840.013184 118.622803,842.361938 
	C117.484276,849.994995 118.736710,851.677551 126.329346,853.317078 
	C129.163498,853.929199 131.944260,853.874878 134.754562,853.296997 
	C139.172745,852.388550 143.634735,851.615356 148.148636,851.989868 
	C159.917679,852.966614 169.447159,848.059692 178.146469,840.860352 
	C193.398758,828.237549 216.895660,826.402893 230.460083,844.283142 
	C233.832413,848.728516 238.030334,852.638000 241.958160,856.687744 
	C247.067307,861.955505 254.054031,864.359802 259.033478,869.575500 
	C264.394470,875.191040 271.277100,877.394470 278.800171,877.921631 
	C290.074860,878.711792 299.408478,872.456482 298.497284,858.119751 
	C296.615906,828.519653 298.248993,798.835205 296.956055,769.197571 
	C296.288391,753.892456 296.802032,738.538757 296.582611,723.209839 
	C296.482269,716.199463 295.020508,715.585876 288.999512,718.895081 
	C275.430298,726.352661 261.838959,733.762451 247.906265,740.545959 
	C217.859924,755.174622 186.820999,766.986938 154.057312,773.891602 
	C136.051407,777.686157 118.095039,778.719604 100.771194,770.682861 
	C97.856316,769.330627 96.509491,770.537292 95.398224,773.044678 
	C94.440384,775.205933 93.492744,777.419739 93.618324,779.755615 
	C94.392097,794.148254 97.029953,808.174683 102.389450,821.608643 
	C103.643509,824.751953 105.800644,826.803223 109.476303,827.024170 
	C114.247932,827.311035 117.037292,830.081238 118.353737,835.424805 
M413.690247,497.268158 
	C416.092590,490.599121 421.097382,484.903076 421.971436,477.462341 
	C419.204620,476.978973 418.562683,478.511597 417.749023,479.708008 
	C407.324524,495.035736 397.846222,510.848206 392.371521,528.747681 
	C391.357819,532.062012 390.189636,536.518677 385.691956,535.008301 
	C381.342255,533.547607 383.517761,529.226318 384.424835,526.320618 
	C389.067291,511.449707 395.763977,497.547699 404.649658,484.702209 
	C409.430450,477.790985 412.856110,470.251465 414.207001,461.860077 
	C414.493835,460.078278 414.534515,458.449463 412.759766,457.514832 
	C411.006042,456.591278 409.542450,457.419586 408.296967,458.699402 
	C407.019226,460.012390 405.723633,461.312134 404.512970,462.685638 
	C392.458557,476.361359 382.349365,491.396240 373.318207,507.198090 
	C358.415070,533.274170 344.848938,559.934326 337.033661,589.144836 
	C336.432312,591.392395 335.914886,593.664856 335.239258,595.889526 
	C334.595795,598.008362 333.760315,600.238037 331.011414,600.031555 
	C328.386200,599.834473 328.376129,597.413940 327.900513,595.535706 
	C327.585754,594.292908 328.106628,592.828613 326.892303,591.820129 
	C325.887665,591.253967 324.934723,591.655823 324.030273,592.056641 
	C310.336029,598.125366 296.555237,604.010681 282.998901,610.374084 
	C275.703369,613.798706 272.059937,620.228882 272.460785,628.217529 
	C272.835419,635.684448 274.376465,643.023132 277.533508,649.953186 
	C284.865814,666.048096 296.346954,678.459900 310.987274,688.120850 
	C317.979401,692.734924 318.276886,692.839294 324.871674,687.458313 
	C335.597900,678.706299 345.654510,669.187561 354.917542,658.920898 
	C364.769714,648.001221 375.616211,638.975037 389.838867,634.020203 
	C400.847992,630.184814 409.807068,623.064026 417.043030,613.631165 
	C425.770935,602.253357 435.677826,591.888550 446.511810,582.444031 
	C453.666412,576.206909 460.818848,569.965088 467.862915,563.604309 
	C471.977539,559.888855 471.766022,553.307800 467.312073,547.338135 
	C463.883759,542.743225 460.345276,546.075500 457.230499,547.822754 
	C447.766479,553.131653 438.871826,559.284058 430.965210,566.782166 
	C429.519562,568.153137 428.065643,569.726135 425.752289,568.436951 
	C423.625580,567.251648 423.437408,565.213074 423.812958,563.206055 
	C424.515045,559.454041 425.274750,555.693481 426.339905,552.032227 
	C430.830383,536.597107 438.086609,522.344849 445.264893,508.053497 
	C447.111725,504.376617 449.759521,500.887421 449.790283,496.562195 
	C449.809113,493.918640 451.530212,490.081879 448.243286,488.927307 
	C444.777893,487.709991 443.286957,491.508667 441.733246,493.959625 
	C435.833069,503.266968 431.096466,513.171387 426.768768,523.294434 
	C425.646240,525.920105 423.783936,528.693298 420.341461,527.351379 
	C416.317535,525.782776 418.295746,522.627075 419.381714,520.174866 
	C423.675415,510.479553 428.119965,500.850861 432.544434,491.213867 
	C433.300140,489.567841 433.592468,488.096558 431.667297,486.608521 
	C428.640137,488.923279 426.246765,491.746216 424.402466,495.090485 
	C418.920410,505.031006 414.579254,515.476135 410.564117,526.072632 
	C409.572906,528.688477 408.092010,531.217163 404.725616,530.042603 
	C401.231903,528.823547 401.991150,525.864868 402.865997,523.294434 
	C405.817749,514.621399 409.066986,506.062836 413.690247,497.268158 
M488.540161,769.838318 
	C490.006104,767.181885 490.922821,764.317261 491.366821,761.345947 
	C492.557922,753.375122 491.911346,745.423462 491.068695,737.456360 
	C489.620178,723.760498 490.230103,709.627075 484.160919,696.846741 
	C479.487671,687.005859 479.380157,676.985901 480.543518,666.592773 
	C481.913605,654.352783 484.173920,641.839355 480.780945,629.857910 
	C476.435242,614.512268 474.968811,598.535767 469.766022,583.428467 
	C468.311035,579.203674 465.008118,578.145386 461.327576,581.195801 
	C450.278717,590.352905 440.210358,600.521912 430.750458,611.297729 
	C428.474640,613.890076 427.390808,616.953186 427.340302,620.441467 
	C427.010040,643.245850 426.565857,666.049011 426.357208,688.854309 
	C426.328400,692.001282 424.555817,696.400940 427.813416,698.086548 
	C430.736755,699.599365 433.222656,695.687195 435.872375,694.146912 
	C445.734955,688.413940 455.785645,683.310608 467.637482,683.649475 
	C470.353638,683.727112 472.942871,684.837769 473.319946,687.563660 
	C473.694336,690.270081 470.724731,690.579041 468.791748,691.345581 
	C467.719635,691.770691 466.551453,692.023438 465.402924,692.175232 
	C450.726624,694.115356 438.980804,701.611511 428.440735,711.485779 
	C426.200684,713.584351 425.311127,715.958557 425.315094,719.002502 
	C425.340546,738.475403 424.519226,757.923462 423.430603,777.362793 
	C423.333405,779.098206 422.751984,781.261963 424.818878,782.307678 
	C426.578064,783.197754 427.998260,781.861267 429.343384,780.924988 
	C443.377197,771.156799 458.543182,769.903992 474.580536,774.762329 
	C482.187744,777.066711 483.170227,776.689636 488.540161,769.838318 
M329.206268,579.697815 
	C330.924988,578.618713 331.271332,576.738037 331.860474,575.032288 
	C336.974579,560.225403 342.844269,545.744019 349.863586,531.720093 
	C366.271790,498.938232 384.622040,467.537720 412.029877,442.411285 
	C415.412903,439.309875 416.036163,434.071533 413.932556,430.051636 
	C412.162018,426.668152 408.987030,425.215820 405.625916,424.093872 
	C393.041260,419.893188 380.311157,421.237335 367.634644,423.439697 
	C364.759094,423.939270 362.973450,426.354950 362.089844,429.300171 
	C359.819550,436.867249 356.738708,438.266632 349.605133,434.680786 
	C345.749939,432.742859 341.982941,430.532745 338.474213,428.027893 
	C334.450592,425.155518 331.601471,425.351257 329.445435,430.080658 
	C328.320770,432.547699 326.435059,434.495667 324.286224,436.106140 
	C317.876617,440.910095 311.313141,445.598755 303.975861,448.782684 
	C299.951508,450.528992 298.912811,452.812500 299.242889,456.793091 
	C300.039825,466.404816 300.820587,476.028809 301.179779,485.663849 
	C302.358368,517.277527 304.293396,548.867126 304.342682,580.518555 
	C304.345276,582.184631 304.291840,583.858765 304.431396,585.515076 
	C304.741364,589.194458 306.351990,590.652466 310.062256,588.842346 
	C316.197418,585.849121 322.398834,582.991577 329.206268,579.697815 
M645.659851,616.960266 
	C657.157043,616.957581 668.664124,616.672485 680.147278,617.072876 
	C685.770935,617.268982 690.013184,615.408386 694.149536,611.901001 
	C715.383057,593.896484 731.150330,571.899719 742.346802,546.527954 
	C745.005615,540.502930 744.124695,539.166321 737.488098,539.140198 
	C718.826111,539.066772 700.163879,539.071411 681.501709,539.076599 
	C651.175598,539.084961 620.849365,539.092163 590.523376,539.163574 
	C584.680786,539.177368 583.304504,540.842224 585.322937,545.539185 
	C596.662598,571.926453 612.160950,595.313538 634.672668,613.633667 
	C637.680420,616.081482 640.795593,617.575378 645.659851,616.960266 
M233.440308,198.923340 
	C231.649567,203.136292 229.405640,207.230927 229.629959,212.449081 
	C238.372498,211.021027 246.698685,209.862595 255.187561,209.890640 
	C293.685150,210.017883 332.183441,209.962662 370.681396,209.920639 
	C376.773041,209.913986 378.140137,208.658676 377.526001,203.061264 
	C376.621338,194.816101 375.957153,186.510941 373.617889,178.484421 
	C372.709229,175.366547 371.496002,172.601532 368.072174,171.324677 
	C359.456726,168.111710 350.624756,166.055191 341.438934,165.288345 
	C323.847351,163.819794 306.667053,168.264832 289.210480,168.676880 
	C273.389648,169.050308 257.996521,167.326385 243.576859,160.202255 
	C241.860580,159.354324 240.268997,157.801453 236.912994,159.140045 
	C241.589966,172.442169 242.391113,185.864563 233.440308,198.923340 
M353.500061,220.344818 
	C323.035339,220.335098 292.570648,220.323471 262.105927,220.318283 
	C258.610199,220.317688 255.112274,220.282089 251.619431,220.392090 
	C248.255112,220.498047 246.399048,222.288467 246.320648,225.716003 
	C246.145584,233.369583 246.171829,240.985428 248.479813,248.429001 
	C250.718521,255.649078 255.169144,260.602081 262.470001,262.759613 
	C272.818298,265.817719 283.439606,266.069183 294.098206,265.459900 
	C302.384216,264.986298 307.987793,260.712524 311.155273,253.019623 
	C312.738281,249.174957 314.679077,245.450836 317.428619,242.281616 
	C323.291016,235.524384 332.214996,236.512085 336.384766,244.387589 
	C338.578583,248.531067 339.676208,253.072388 340.555237,257.645020 
	C341.301392,261.526337 343.576691,263.761993 347.379059,264.639496 
	C354.286774,266.233582 361.170990,265.861511 368.152344,264.978790 
	C379.035095,263.602661 384.278870,256.949554 386.659576,246.896545 
	C388.005737,241.212067 388.569092,235.447571 389.406189,229.706665 
	C390.406769,222.844574 388.451508,220.451721 381.468506,220.372009 
	C372.480103,220.269394 363.489624,220.346207 353.500061,220.344818 
M434.939636,881.456787 
	C437.421997,882.097839 438.670532,880.591064 439.596344,878.684814 
	C441.340210,875.094116 443.041443,871.482117 444.710907,867.856140 
	C446.935303,863.024902 449.017059,858.125244 451.353516,853.349609 
	C452.396759,851.217224 454.359222,850.060669 456.758057,851.071533 
	C459.201965,852.101501 459.508392,854.137390 458.646118,856.498108 
	C458.020752,858.210327 457.653320,860.026978 456.926025,861.689941 
	C454.127655,868.088745 451.079193,874.382080 448.424530,880.838318 
	C446.696350,885.041321 448.042114,886.878845 452.462067,886.946716 
	C459.663483,887.057373 465.299744,884.410461 468.660461,877.680603 
	C471.334351,872.326172 474.208588,867.069275 476.141296,861.378540 
	C476.581055,860.083862 477.303375,859.030579 478.317780,858.101318 
	C485.251770,851.749939 485.402618,843.112610 477.984650,837.397949 
	C466.595886,828.624084 453.588562,824.222290 439.169281,826.991882 
	C414.936157,831.646423 399.339417,849.119751 396.433472,873.921265 
	C396.215149,875.784546 396.635864,876.894226 398.262177,878.049561 
	C403.384247,881.688232 410.853912,879.976868 413.330444,874.260132 
	C416.570557,866.780823 419.626953,859.221924 422.867462,851.742737 
	C423.801392,849.587219 425.118988,847.170715 427.986816,848.081299 
	C430.958527,849.024780 431.012360,851.720337 430.432495,854.329224 
	C430.037567,856.106140 429.656006,857.916321 428.977295,859.593872 
	C427.293945,863.754395 425.405609,867.831360 423.669312,871.971069 
	C421.095459,878.107788 422.858276,881.224976 429.411987,881.894165 
	C430.991516,882.055359 432.640503,881.536377 434.939636,881.456787 
M216.864883,441.368042 
	C225.848480,435.374298 234.538147,428.944336 244.049942,423.742706 
	C250.287445,420.331604 250.295975,416.819733 244.752594,411.990295 
	C232.886307,401.652191 220.553177,391.762848 209.491760,380.617340 
	C201.536484,372.601562 192.910553,370.343597 182.478516,372.246887 
	C176.868484,373.270416 175.194199,376.236877 177.343872,381.501099 
	C185.201996,400.744202 193.820541,419.647125 203.285217,438.152405 
	C207.341339,446.082855 208.807709,446.366241 216.864883,441.368042 
M471.288391,783.203186 
	C462.323364,780.292297 453.359558,780.111694 444.425842,783.301819 
	C429.860687,788.502808 422.602783,798.489563 422.205414,813.751648 
	C422.162292,815.407837 422.116516,817.092712 421.789307,818.706970 
	C421.040527,822.401306 422.286987,823.386414 425.751129,822.016968 
	C441.385712,815.836609 456.813232,815.857239 472.015625,823.542847 
	C473.578003,824.332642 475.350983,825.238953 477.185425,823.894531 
	C485.336487,817.920532 491.690979,808.133423 487.507935,796.801331 
	C484.642395,789.038513 478.900299,785.904541 471.288391,783.203186 
M442.147125,546.543213 
	C447.181000,543.633240 452.205811,540.707336 457.251617,537.818176 
	C461.329376,535.483337 462.118408,532.787659 459.554382,528.865417 
	C457.485046,525.699890 454.759064,523.041687 453.604340,519.195435 
	C452.866699,516.738464 450.862427,517.028992 449.566986,519.114075 
	C444.207977,527.739441 440.305878,536.990173 437.529602,546.492615 
	C439.108765,548.139343 440.311005,547.427917 442.147125,546.543213 
M334.878448,400.374878 
	C329.098846,406.655457 329.752594,412.429352 336.788116,416.634338 
	C338.920349,417.908752 341.112854,419.119843 343.385895,420.112305 
	C346.646881,421.536163 349.523895,420.138794 349.905121,417.013184 
	C350.451538,412.533478 349.154663,407.391937 346.031494,404.612061 
	C343.496246,402.355469 340.723297,397.452332 334.878448,400.374878 
M805.290527,836.945374 
	C809.599426,835.908508 811.873352,833.481201 811.026245,828.781311 
	C810.298035,824.740417 807.463379,822.412231 803.868958,822.525513 
	C799.390259,822.666687 798.654541,826.997803 798.740845,830.341492 
	C798.822876,833.522095 799.340576,837.615601 805.290527,836.945374 
M377.550568,870.460083 
	C380.656189,871.798950 383.662689,875.572388 387.193359,872.017029 
	C390.731842,868.453796 386.099762,866.842224 384.679504,864.512329 
	C384.557587,864.312256 384.094757,864.320068 383.561920,864.164673 
	C381.438995,866.191895 377.791016,866.730591 377.550568,870.460083 
z"/>
<path fill="#000000" opacity="1.000000" stroke="none" 
	d="
M413.974274,335.687347 
	C414.283051,336.770416 414.488892,337.541565 414.803070,338.718658 
	C412.138519,338.854126 410.169006,333.384827 407.822174,338.572723 
	C405.352051,335.607819 405.781647,333.207611 408.221924,331.862671 
	C411.609436,329.995605 412.696320,333.025299 413.974274,335.687347 
z"/>
<path fill="#000000" opacity="1.000000" stroke="none" 
	d="
M757.348877,467.221649 
	C757.550171,461.243103 757.752380,455.589508 757.697693,449.938385 
	C757.665649,446.629944 759.192017,445.639801 762.277466,445.611023 
	C765.322205,445.582642 767.035217,446.486694 767.026733,449.785004 
	C766.990356,463.932190 767.013306,478.079468 766.981201,492.226654 
	C766.976379,494.352783 766.562134,496.339355 763.784973,496.315247 
	C760.900452,496.290192 757.723694,497.227478 756.211365,493.324219 
	C753.869873,487.280792 751.287659,481.330780 748.824585,475.334167 
	C748.204407,473.824280 747.834229,472.183411 745.910095,470.600098 
	C744.825256,477.879791 745.457642,484.774536 745.359192,491.615936 
	C745.311279,494.943390 744.239990,496.489594 740.703491,496.399017 
	C737.722595,496.322662 736.617126,495.214478 736.612549,492.225128 
	C736.590576,477.915405 736.409973,463.606018 736.310974,449.296295 
	C736.298828,447.538239 736.628296,445.741089 738.874939,445.775635 
	C741.835815,445.821198 745.374268,444.355560 747.049255,448.489594 
	C749.483459,454.497437 751.922852,460.504852 754.509277,466.447510 
	C754.878357,467.295532 755.108093,470.320984 757.348877,467.221649 
z"/>
<path fill="#000000" opacity="1.000000" stroke="none" 
	d="
M734.335449,410.864868 
	C734.677490,414.858978 733.423157,416.560730 729.563904,416.418457 
	C725.572510,416.271362 725.610718,413.819702 725.619263,410.987091 
	C725.659180,397.823212 725.585327,384.658600 725.710388,371.495728 
	C725.729797,369.457031 724.439026,366.356659 728.001465,365.846039 
	C731.465393,365.349579 734.986633,364.979614 736.595520,369.537994 
	C738.310730,374.397522 740.425354,379.118317 742.431030,383.872040 
	C743.313232,385.962982 743.996460,388.202179 745.949158,390.206055 
	C748.067566,387.819977 747.547607,385.299133 747.488770,382.922546 
	C747.377563,378.428833 747.180786,373.937256 747.033142,369.444366 
	C746.928528,366.259064 748.834534,365.601227 751.563416,365.649353 
	C754.175903,365.695465 756.224915,366.082245 756.217529,369.360779 
	C756.184875,383.857086 756.193665,398.353485 756.174072,412.849854 
	C756.171509,414.703522 755.549622,416.312286 753.411926,416.241791 
	C750.610962,416.149384 747.195984,417.610077 745.572937,413.761444 
	C743.115601,407.934723 740.727783,402.078400 738.228577,396.269867 
	C737.608154,394.827881 737.523193,392.930267 734.337463,391.950500 
	C734.337463,398.337982 734.337463,404.359222 734.335449,410.864868 
z"/>
<path fill="#000000" opacity="1.000000" stroke="none" 
	d="
M774.642334,226.920197 
	C774.668884,220.870071 774.777527,215.204453 774.658325,209.543610 
	C774.591614,206.376221 776.166626,205.587662 778.971924,205.593307 
	C781.701660,205.598816 783.381348,206.181564 783.365112,209.432907 
	C783.294495,223.591568 783.362183,237.750931 783.387451,251.910049 
	C783.391296,254.069992 783.104553,255.984009 780.319458,256.080719 
	C777.341187,256.184174 774.192017,256.801910 772.708801,253.055756 
	C770.443176,247.333359 768.130371,241.629593 765.813599,235.927658 
	C765.067139,234.090515 764.245239,232.284012 762.194275,230.489212 
	C762.194275,237.269836 762.194336,244.050446 762.194275,250.831070 
	C762.194214,253.474091 761.996582,255.886215 758.468018,256.170898 
	C754.723267,256.473022 752.899780,255.121780 752.915771,251.138306 
	C752.970093,237.646088 752.845459,224.153229 752.833618,210.660583 
	C752.831787,208.544312 752.491150,205.894592 755.633972,205.761810 
	C758.772888,205.629227 762.399353,204.418320 764.088928,208.855240 
	C766.338135,214.761765 768.824829,220.578293 771.244263,226.419098 
	C771.728027,227.586899 772.367676,228.690094 772.888916,229.730072 
	C774.582520,229.366196 774.445251,228.242126 774.642334,226.920197 
z"/>
<path fill="#000000" opacity="1.000000" stroke="none" 
	d="
M590.349243,288.501709 
	C590.744385,286.521729 591.715515,285.768860 593.245728,285.783630 
	C597.403870,285.823761 601.616638,285.485229 605.709717,286.031464 
	C619.848083,287.918396 621.777283,302.094513 613.680481,310.162201 
	C618.889587,313.808533 619.924744,319.140625 619.331970,325.058899 
	C618.934875,329.022919 617.035950,332.018799 613.519653,333.791443 
	C606.970764,337.092865 599.898865,336.361694 592.927368,336.099518 
	C590.627563,336.013000 590.580261,334.080536 590.566589,332.394104 
	C590.448975,317.911835 590.359314,303.429352 590.349243,288.501709 
M608.201782,316.175598 
	C601.419617,312.883301 599.915710,313.749634 599.926636,320.960724 
	C599.928406,322.116882 599.994629,323.272980 600.032532,324.429047 
	C600.117676,327.029724 601.636963,327.781830 603.997681,327.620239 
	C609.539124,327.240967 611.591125,322.533478 608.201782,316.175598 
M604.710144,306.068756 
	C608.058472,304.873749 609.205994,302.343353 608.763000,299.031219 
	C608.299561,295.566803 605.770081,294.565338 602.715759,294.406281 
	C598.990295,294.212280 599.300110,297.170776 599.552673,299.233337 
	C599.907349,302.128967 597.029236,307.530914 604.710144,306.068756 
z"/>
<path fill="#000000" opacity="1.000000" stroke="none" 
	d="
M715.934082,333.078308 
	C714.384705,329.149933 712.999146,325.587494 711.577087,322.039703 
	C711.010010,320.624695 710.362122,319.114685 708.457703,319.396698 
	C706.522034,319.683289 706.375061,321.288055 706.356812,322.841431 
	C706.321594,325.837677 706.203918,328.838959 706.328491,331.829498 
	C706.480042,335.466034 704.544861,336.295380 701.345276,336.308594 
	C697.980713,336.322449 696.577698,335.115326 696.609619,331.619873 
	C696.735779,317.803619 696.714111,303.985382 696.640808,290.168457 
	C696.623901,286.978088 697.922241,285.593567 701.094177,285.706329 
	C703.920410,285.806824 706.756958,285.627228 709.582703,285.734955 
	C723.616821,286.269836 731.280640,299.740509 723.607300,311.572968 
	C720.225037,316.788483 720.292664,320.813477 723.018066,325.658478 
	C723.664795,326.807983 724.204956,328.078674 724.482239,329.361023 
	C724.949524,331.522675 728.074829,334.295959 724.710876,335.751251 
	C721.961365,336.940704 718.039917,337.583801 715.934082,333.078308 
M713.999390,308.683289 
	C717.015991,306.228455 717.211060,302.907501 716.281189,299.606415 
	C715.411011,296.517212 713.233521,294.296326 709.725891,294.637299 
	C705.965454,295.002808 706.338989,298.071289 706.311951,300.733582 
	C706.300171,301.895416 706.297607,303.057648 706.312805,304.219421 
	C706.387695,309.932495 707.388062,310.626831 713.999390,308.683289 
z"/>
<path fill="#000000" opacity="1.000000" stroke="none" 
	d="
M665.209290,285.761841 
	C668.686462,285.730591 671.692993,285.585968 674.682861,285.748444 
	C681.011414,286.092316 686.509094,288.082550 689.277954,294.391724 
	C692.168457,300.978119 692.104065,307.553497 687.218323,313.088959 
	C684.538208,316.125366 684.387756,318.470581 686.098938,321.915375 
	C688.148682,326.041962 689.524658,330.503204 691.177612,334.781342 
	C684.794800,337.918518 681.809387,336.809143 679.459106,330.792267 
	C678.248718,327.693390 676.959534,324.623749 675.634033,321.572144 
	C675.093506,320.327911 674.335938,319.058624 672.669250,319.527069 
	C671.256592,319.924042 671.309753,321.271545 671.294067,322.429504 
	C671.249084,325.761322 671.198608,329.094452 671.246704,332.425690 
	C671.292542,335.603455 669.429016,336.342621 666.721680,336.298798 
	C664.046631,336.255463 661.655090,336.110748 661.666138,332.451996 
	C661.709412,318.123138 661.686279,303.794067 661.677368,289.465057 
	C661.676086,287.369934 662.334595,285.869049 665.209290,285.761841 
M672.846252,309.609283 
	C677.937683,310.698669 680.359741,307.808777 681.347595,303.474365 
	C682.245911,299.533325 680.298950,296.667267 676.712891,295.124542 
	C674.310181,294.090881 671.691345,294.288879 671.472168,297.494659 
	C671.206543,301.381042 670.421509,305.405487 672.846252,309.609283 
z"/>
<path fill="#000000" opacity="1.000000" stroke="none" 
	d="
M870.951538,238.519836 
	C868.011230,242.377914 869.612488,246.626114 869.455383,250.635818 
	C869.314636,254.228851 868.627747,256.180664 864.471985,256.209900 
	C860.209839,256.239838 859.579407,254.121414 859.608521,250.593460 
	C859.718445,237.271469 859.735657,223.947083 859.592590,210.625702 
	C859.554260,207.058762 860.613586,205.330978 864.401306,205.598175 
	C867.218262,205.796890 870.061340,205.673141 872.891663,205.625610 
	C879.399170,205.516327 884.744751,207.577957 887.550232,213.874069 
	C890.566223,220.642487 890.190857,227.354004 885.365234,233.065826 
	C883.169250,235.665161 882.797485,237.645294 884.140015,240.550583 
	C885.601624,243.713638 886.822327,247.003693 887.915405,250.315155 
	C888.505737,252.103424 891.081482,254.670425 887.841003,255.734421 
	C885.115479,256.629333 881.298096,257.519592 879.424866,253.799469 
	C877.635437,250.245911 876.357666,246.436569 874.811035,242.758118 
	C874.069336,240.994080 873.915894,238.709274 870.951538,238.519836 
M876.253235,229.013947 
	C880.024902,225.137329 880.764099,220.662796 878.282043,217.089111 
	C876.548828,214.593536 874.110352,213.832382 871.340027,214.527374 
	C868.644958,215.203476 869.497253,217.649765 869.370117,219.506927 
	C869.268799,220.985977 869.343506,222.477554 869.351196,223.963516 
	C869.382507,229.998718 869.407227,230.018845 876.253235,229.013947 
z"/>
<path fill="#000000" opacity="1.000000" stroke="none" 
	d="
M835.971741,287.575500 
	C845.663513,294.442108 847.235229,305.848053 839.718506,314.572083 
	C837.975220,316.595459 837.825439,318.079620 838.827026,320.276825 
	C840.273132,323.449158 841.639709,326.673309 842.770142,329.967987 
	C843.437012,331.911560 845.828064,334.223572 842.725220,336.013397 
	C839.917847,337.632751 835.042358,335.978485 833.846985,333.119781 
	C832.309448,329.442627 831.017395,325.663483 829.573486,321.946167 
	C828.920837,320.266052 828.436584,318.180847 825.950012,318.645691 
	C823.497986,319.104034 824.366577,321.248566 824.298828,322.735291 
	C824.154968,325.890045 824.177979,329.057220 824.257996,332.216125 
	C824.345337,335.661804 822.363342,336.321045 819.444397,336.292328 
	C816.578125,336.264069 814.615784,335.727356 814.636292,332.219757 
	C814.718933,318.078339 814.701660,303.936157 814.667908,289.794373 
	C814.661682,287.189758 815.531738,285.693970 818.386475,285.719482 
	C824.183289,285.771362 830.034668,285.171478 835.971741,287.575500 
M825.141602,294.977325 
	C823.492371,299.915375 824.346619,304.848145 824.536316,309.751129 
	C831.479309,310.076172 834.396973,307.862518 834.629517,302.606049 
	C834.861633,297.359955 831.982605,294.748627 825.141602,294.977325 
z"/>
<path fill="#000000" opacity="1.000000" stroke="none" 
	d="
M804.200684,167.859024 
	C804.922974,170.362061 806.908142,172.192825 805.927612,174.708221 
	C798.010010,176.453659 797.344177,176.141479 794.583252,169.265320 
	C793.529846,166.641937 792.588745,163.973007 791.512451,161.359436 
	C790.690369,159.363235 789.521118,157.833649 786.317749,159.252563 
	C786.317749,163.087570 786.176758,167.206543 786.358032,171.311279 
	C786.532837,175.270767 784.135742,175.400330 781.202271,175.442917 
	C778.180786,175.486755 776.595032,174.667847 776.624756,171.245895 
	C776.744568,157.429871 776.723083,143.611954 776.644348,129.795364 
	C776.627625,126.863770 777.638794,125.487633 780.690979,125.615265 
	C783.848145,125.747269 787.015808,125.656296 790.178406,125.624054 
	C796.249390,125.562149 801.502563,127.418968 804.411133,133.027191 
	C807.517212,139.016098 808.050232,145.927155 803.731873,150.976944 
	C799.579956,155.832169 800.525085,159.666595 802.688965,164.296738 
	C803.181763,165.351166 803.604370,166.438416 804.200684,167.859024 
M786.346069,142.378967 
	C786.440735,148.022766 788.214722,150.294754 791.890442,149.479660 
	C795.226318,148.739944 797.396912,144.646957 796.600403,140.195175 
	C795.984131,136.751251 794.079895,134.317612 790.271545,134.479279 
	C785.384216,134.686737 786.476624,138.499496 786.346069,142.378967 
z"/>
<path fill="#000000" opacity="1.000000" stroke="none" 
	d="
M789.218750,495.832703 
	C773.651428,497.671753 773.650146,497.671753 773.650635,482.775146 
	C773.651001,471.963745 773.738953,461.151306 773.608032,450.341522 
	C773.567566,447.000977 774.575867,445.270386 778.141113,445.655273 
	C779.127136,445.761719 780.135193,445.662292 781.133179,445.660309 
	C796.984253,445.628967 802.681885,450.724396 804.200256,466.559265 
	C804.742676,472.216034 804.219116,477.822815 802.559265,483.313263 
	C800.566406,489.905304 796.578613,494.322235 789.218750,495.832703 
M783.288696,474.462250 
	C783.291870,476.792877 783.238159,479.125397 783.314575,481.453613 
	C783.388550,483.708466 782.765076,486.662201 785.846130,487.200378 
	C788.509949,487.665680 790.695374,485.852936 791.836975,483.504028 
	C795.860474,475.225555 795.462769,466.794006 792.044067,458.449890 
	C791.126526,456.210297 789.322815,454.411224 786.598267,455.033722 
	C783.847961,455.662109 783.276978,457.970917 783.289490,460.492279 
	C783.311096,464.820435 783.292053,469.148834 783.288696,474.462250 
z"/>
<path fill="#000000" opacity="1.000000" stroke="none" 
	d="
M705.082275,205.636414 
	C709.527832,205.883896 713.523743,205.116837 717.455261,206.327545 
	C728.667236,209.780289 733.263184,223.463974 725.595886,232.341522 
	C722.572388,235.842239 722.873291,238.455353 724.267639,242.099747 
	C725.901611,246.370239 728.432861,250.358078 729.028137,254.983231 
	C722.213135,257.531555 719.985413,256.620056 717.703003,250.633759 
	C716.401306,247.219696 715.039856,243.828445 713.706299,240.426529 
	C713.245178,239.250122 712.526489,238.359451 711.126831,238.579849 
	C709.687866,238.806427 709.328552,239.969055 709.304504,241.184326 
	C709.235474,244.676056 709.154175,248.171646 709.245789,251.661301 
	C709.341370,255.299408 707.280945,256.111755 704.164429,256.136047 
	C701.100159,256.159943 699.600159,255.119980 699.623108,251.801071 
	C699.719727,237.828049 699.754272,223.853012 699.604187,209.880936 
	C699.563049,206.049026 701.541809,205.412903 705.082275,205.636414 
M717.159058,216.276276 
	C714.805603,214.397720 712.228821,213.085022 709.693176,215.625076 
	C708.224854,217.096054 709.293274,228.808426 710.693176,229.386673 
	C712.271790,230.038757 713.989197,229.942245 715.551575,229.282867 
	C719.453918,227.635910 720.453064,221.612091 717.159058,216.276276 
z"/>
<path fill="#000000" opacity="1.000000" stroke="none" 
	d="
M935.319580,143.203400 
	C935.869873,150.104233 936.157288,156.541534 934.273071,162.883957 
	C931.848755,171.044373 926.281555,175.331284 917.850098,175.399109 
	C904.689392,175.504974 904.692993,175.504959 904.698486,162.334000 
	C904.702881,151.857605 904.853027,141.377747 904.619324,130.906540 
	C904.525452,126.698647 906.093628,125.141998 910.130920,125.600334 
	C911.444397,125.749443 912.788940,125.624855 914.119263,125.625900 
	C928.008972,125.636765 932.144592,128.982758 935.319580,143.203400 
M915.851990,166.397476 
	C920.870422,167.308456 923.427124,164.282242 924.665161,160.211990 
	C926.535950,154.061478 926.215332,147.725540 924.806885,141.492218 
	C924.450928,139.916519 923.721802,138.325546 922.793884,137.000946 
	C921.228149,134.765747 918.930908,133.812958 916.219971,134.640869 
	C913.475220,135.479126 914.464417,137.907181 914.391907,139.734039 
	C914.253296,143.225952 914.202026,146.737350 914.408508,150.223221 
	C914.719849,155.480972 913.338013,160.825104 915.851990,166.397476 
z"/>
<path fill="#000000" opacity="1.000000" stroke="none" 
	d="
M683.576782,464.312592 
	C685.788696,459.866486 684.711914,455.467102 684.857056,451.188660 
	C684.973267,447.765594 685.574951,445.603943 689.859253,445.544525 
	C694.503357,445.480194 694.406921,448.106445 694.392334,451.318939 
	C694.332397,464.483398 694.345398,477.648224 694.355652,490.812927 
	C694.357910,493.723938 694.678284,496.407288 690.226135,496.466492 
	C685.777832,496.525574 684.810669,494.373413 684.933228,490.633606 
	C685.047791,487.138000 684.948975,483.635620 684.960571,480.136292 
	C684.970703,477.072845 684.582397,474.304077 680.562561,474.325287 
	C676.558350,474.346375 674.321960,476.158691 674.377991,480.400146 
	C674.430725,484.398499 674.247559,488.401733 674.366394,492.396912 
	C674.458679,495.497528 672.995667,496.453796 670.115051,496.400085 
	C667.212341,496.345978 664.740967,496.199554 664.751038,492.313141 
	C664.787720,478.148956 664.792358,463.984192 664.701477,449.820374 
	C664.676819,445.978851 666.925598,445.665802 669.927002,445.618866 
	C673.056519,445.569946 674.580688,446.605530 674.398621,449.926971 
	C674.234741,452.917175 674.288025,455.927338 674.400208,458.922882 
	C674.621826,464.842102 677.527527,466.663025 683.576782,464.312592 
z"/>
<path fill="#000000" opacity="1.000000" stroke="none" 
	d="
M762.762085,413.785828 
	C762.689697,399.157532 762.767212,385.006927 762.591187,370.859467 
	C762.543457,367.021393 763.729675,365.186432 767.726379,365.655457 
	C768.875671,365.790314 770.057678,365.729614 771.219299,365.663879 
	C786.989197,364.771820 791.958557,372.794525 793.272949,387.062378 
	C793.775513,392.518280 793.388367,397.984161 791.739868,403.343414 
	C789.563843,410.417389 785.033752,414.840668 777.754822,415.886932 
	C773.674133,416.473511 769.464844,416.193726 765.312805,416.237335 
	C764.037476,416.250763 763.082764,415.638062 762.762085,413.785828 
M774.586548,374.494354 
	C771.812744,375.162323 772.344849,377.441559 772.332886,379.338531 
	C772.283630,387.136627 772.292847,394.935425 772.341370,402.733582 
	C772.351257,404.321411 771.821167,406.279114 773.746277,407.154510 
	C775.644531,408.017792 777.282837,406.838684 778.828613,405.903137 
	C780.773376,404.726074 781.866699,402.852905 782.452698,400.721039 
	C784.249878,394.182739 784.207092,387.591034 782.455322,381.083252 
	C781.502563,377.543884 779.459717,374.770477 774.586548,374.494354 
z"/>
<path fill="#000000" opacity="1.000000" stroke="none" 
	d="
M803.557373,256.098999 
	C789.230469,256.285217 791.835999,256.719086 791.677185,244.780960 
	C791.527039,233.488602 791.806580,222.189148 791.559570,210.900192 
	C791.467163,206.677383 793.069153,205.833450 797.015808,205.494354 
	C818.270996,203.668121 822.760803,215.603348 822.017883,234.314255 
	C821.829773,239.050552 820.793640,243.827148 818.196594,248.086792 
	C814.925781,253.451767 809.821960,255.336304 803.557373,256.098999 
M812.594971,232.261612 
	C812.600769,231.596786 812.732849,230.903839 812.591980,230.271698 
	C811.627441,225.942627 812.207642,221.225433 809.507080,217.335724 
	C807.973877,215.127502 805.805237,213.767273 803.092407,214.544540 
	C800.416687,215.311188 801.369202,217.836456 801.341980,219.664413 
	C801.235596,226.812119 801.226562,233.963242 801.332825,241.110840 
	C801.362244,243.092682 800.313660,245.874115 803.256958,246.615387 
	C806.219788,247.361588 808.199768,245.546112 809.792847,243.128021 
	C811.817444,240.054840 811.416260,236.394562 812.594971,232.261612 
z"/>
<path fill="#000000" opacity="1.000000" stroke="none" 
	d="
M606.897827,205.638519 
	C610.180908,205.530762 611.198120,207.107788 611.192627,209.679688 
	C611.162903,223.653809 611.111694,237.627960 611.133972,251.602005 
	C611.139465,255.064651 609.461792,256.180634 606.166199,256.198120 
	C602.656250,256.216705 601.465759,254.716736 601.593689,251.365173 
	C601.758484,247.046280 601.494324,242.711151 601.655273,238.391968 
	C601.802429,234.442871 599.412476,234.040970 596.468811,234.341980 
	C593.699402,234.625198 590.101562,233.658417 590.354858,238.601990 
	C590.575989,242.916092 590.261963,247.256393 590.445374,251.574036 
	C590.594604,255.087692 589.086975,256.236389 585.709534,256.195679 
	C582.431580,256.156158 581.563477,254.827682 581.458984,251.660400 
	C580.992798,237.531845 580.902771,223.404694 581.423889,209.284866 
	C581.674500,202.495117 586.923767,207.211166 590.400146,204.737549 
	C590.400146,210.992523 590.564575,215.927521 590.353027,220.846359 
	C590.148560,225.600449 593.112000,225.622406 596.538147,225.748611 
	C600.056152,225.878235 601.883911,224.828583 601.675415,220.992249 
	C601.486145,217.509079 601.807312,213.997055 601.595276,210.516525 
	C601.374451,206.891479 602.695984,205.162704 606.897827,205.638519 
z"/>
<path fill="#000000" opacity="1.000000" stroke="none" 
	d="
M571.649597,393.863556 
	C571.479797,386.879089 571.467468,380.418610 574.276367,374.293610 
	C576.612488,369.199402 580.117981,366.023834 585.983032,365.595245 
	C592.535095,365.116486 597.830078,366.859161 601.158936,372.891693 
	C604.582458,379.095612 605.128113,385.968231 604.884766,392.747772 
	C604.715149,397.474854 604.416870,402.355804 602.356750,406.908508 
	C599.324524,413.609558 594.453979,417.170258 587.693604,416.916016 
	C580.729553,416.654175 576.206665,412.904053 573.854675,406.537201 
	C572.412598,402.633270 571.544250,398.558228 571.649597,393.863556 
M581.640686,381.456360 
	C581.065552,388.080658 580.590759,394.735992 582.004456,401.284637 
	C582.758911,404.779266 584.482239,408.489716 588.652222,408.166107 
	C592.712830,407.850952 593.846863,403.978912 594.575562,400.459656 
	C595.835205,394.375519 595.654663,388.283844 594.652527,382.166748 
	C594.018738,378.298096 592.633118,374.564392 588.572693,373.963104 
	C584.204346,373.316162 583.087524,377.364563 581.640686,381.456360 
z"/>
<path fill="#000000" opacity="1.000000" stroke="none" 
	d="
M618.707581,448.572754 
	C629.213745,442.032288 639.524963,445.608673 643.130310,456.964233 
	C646.114868,466.364563 646.207336,475.912537 643.182251,485.364716 
	C640.765503,492.916077 635.275635,497.105652 628.203796,497.028229 
	C621.098267,496.950409 615.759888,492.722443 613.756775,484.850525 
	C610.559631,472.286377 609.928162,459.926514 618.707581,448.572754 
M635.352051,464.277679 
	C635.107178,463.140564 634.890808,461.996429 634.612061,460.867706 
	C633.778320,457.491882 632.361816,453.818573 628.615295,453.816895 
	C624.647644,453.815125 623.113892,457.480774 622.317017,461.105072 
	C620.826904,467.882965 620.992859,474.653473 622.443909,481.391418 
	C623.177368,484.796967 624.760254,488.180542 628.559509,488.365723 
	C632.315247,488.548767 633.614197,485.099701 634.534607,481.985809 
	C636.168640,476.457214 635.660034,470.781006 635.352051,464.277679 
z"/>
<path fill="#000000" opacity="1.000000" stroke="none" 
	d="
M621.979980,416.332642 
	C615.063599,414.451172 612.024841,409.610077 610.365601,403.469818 
	C607.916260,394.405579 608.071106,385.396759 610.905762,376.480316 
	C613.148804,369.424561 618.078918,365.615509 624.667297,365.499908 
	C632.434631,365.363678 637.358521,368.431152 639.922974,375.819885 
	C643.465393,386.026245 643.452148,396.419373 639.825623,406.607666 
	C637.078491,414.325653 631.223389,417.393433 621.979980,416.332642 
M619.446533,401.789612 
	C620.586548,405.037933 622.092041,408.364349 626.092468,408.020782 
	C629.794617,407.702789 630.853943,404.182495 631.620544,401.143188 
	C633.389648,394.129303 633.216492,387.031677 631.488586,380.041229 
	C630.714233,376.908356 629.026001,373.686249 625.367493,373.841034 
	C621.827087,373.990784 620.207458,377.096771 619.440125,380.341827 
	C617.815613,387.211182 617.877991,394.103729 619.446533,401.789612 
z"/>
<path fill="#000000" opacity="1.000000" stroke="none" 
	d="
M573.351196,164.067795 
	C573.349670,166.383926 573.231262,168.224197 573.370789,170.044678 
	C573.644531,173.617111 572.762024,175.549316 568.505981,175.511154 
	C564.237061,175.472870 563.616943,173.436432 563.644592,169.923523 
	C563.748230,156.772171 563.785706,143.618103 563.613403,130.468140 
	C563.564819,126.760185 564.832397,125.543251 568.509155,125.539207 
	C572.196533,125.535156 573.630798,126.790199 573.390259,130.474045 
	C573.173828,133.789001 573.425049,137.131653 573.351074,140.459457 
	C573.267090,144.235947 574.883545,145.729889 578.776123,145.729828 
	C582.800903,145.729752 584.762573,144.286987 584.589783,140.235184 
	C584.447998,136.911026 584.297424,133.586365 584.080872,130.266495 
	C583.859375,126.871437 585.305725,125.570374 588.769592,125.557808 
	C592.240845,125.545227 593.428345,126.781242 593.394287,130.227753 
	C593.260925,143.711594 593.231140,157.198975 593.408875,170.681778 
	C593.459534,174.527939 591.942505,175.504288 588.378601,175.477310 
	C584.806641,175.450241 584.365601,173.773163 584.457336,170.788101 
	C584.584839,166.640823 584.157898,162.479797 584.135193,158.323746 
	C584.112122,154.114685 581.286377,154.172058 578.304871,154.125778 
	C575.185669,154.077332 573.055786,154.877045 573.338501,158.590179 
	C573.464539,160.245178 573.354126,161.918152 573.351196,164.067795 
z"/>
<path fill="#000000" opacity="1.000000" stroke="none" 
	d="
M682.124084,205.370300 
	C688.858398,207.397522 691.848999,211.996948 692.883423,218.181915 
	C687.333313,222.092560 686.356262,221.930313 682.672974,216.569656 
	C679.701538,212.245071 674.946167,212.293777 672.927368,217.245346 
	C669.363220,225.987122 669.234253,235.116531 672.715027,243.968491 
	C674.190125,247.719955 678.084656,248.742508 680.945740,246.859055 
	C683.336853,245.284973 685.262390,238.334412 683.829468,236.444092 
	C683.023010,235.380295 681.828308,235.307175 680.666077,235.316635 
	C677.541809,235.342041 676.758179,233.524628 676.750916,230.786057 
	C676.742126,227.485779 678.993103,227.620621 681.205017,227.611176 
	C685.000061,227.594986 688.795227,227.606705 693.027893,227.606705 
	C693.427673,233.324677 693.951721,238.615723 692.814697,243.813034 
	C690.946228,252.353149 686.781738,256.133667 679.630920,256.372223 
	C670.555664,256.674957 665.357788,253.180649 662.972290,244.597519 
	C660.293152,234.957748 660.056213,225.238159 663.418152,215.663483 
	C666.480835,206.940781 672.486877,203.582687 682.124084,205.370300 
z"/>
<path fill="#000000" opacity="1.000000" stroke="none" 
	d="
M645.645996,304.000366 
	C645.655640,298.840424 645.755920,294.177795 645.643860,289.520294 
	C645.565857,286.279572 647.359436,285.615234 650.071228,285.689484 
	C652.473145,285.755249 655.111694,285.560638 655.047302,288.981201 
	C654.822083,300.946045 656.025818,312.955505 654.383789,324.868866 
	C653.318970,332.594635 648.563965,336.317230 640.636597,336.383942 
	C631.520081,336.460663 626.644592,333.260284 625.567261,325.314056 
	C623.931580,313.249695 624.921875,301.069244 625.018799,288.939514 
	C625.048157,285.267944 628.120056,285.810089 630.596863,285.704071 
	C633.405334,285.583862 634.398560,286.912842 634.378662,289.615601 
	C634.310242,298.936035 634.352539,308.257385 634.374939,317.578308 
	C634.378906,319.239594 634.274658,320.943237 634.595154,322.552734 
	C635.238037,325.781677 636.909973,328.202087 640.653748,327.865265 
	C644.120422,327.553406 645.477722,325.040649 645.569092,321.975098 
	C645.742493,316.154419 645.636108,310.325439 645.645996,304.000366 
z"/>
<path fill="#000000" opacity="1.000000" stroke="none" 
	d="
M691.966553,416.302948 
	C688.402527,416.407562 687.302734,414.927338 688.006104,411.926270 
	C691.339478,397.703766 694.654358,383.476929 697.977356,369.251984 
	C698.609253,366.546814 700.325867,365.303925 703.066406,365.698151 
	C705.762024,366.085907 709.478699,364.158539 710.550598,368.537933 
	C714.219849,383.529144 717.806458,398.540710 721.387085,413.553436 
	C721.529419,414.150116 721.289246,414.838074 721.232788,415.426483 
	C714.207031,417.429657 713.029358,416.969086 711.460876,410.249573 
	C710.318848,405.357147 707.041382,405.467041 703.152832,405.283325 
	C698.977844,405.086090 698.043823,407.460663 697.590332,410.625549 
	C697.143555,413.743103 696.742859,416.789398 691.966553,416.302948 
M706.251160,396.599121 
	C708.639038,392.211792 706.435974,388.759094 704.252136,384.115143 
	C701.912231,388.830353 701.072327,392.564270 701.324951,396.447021 
	C702.808350,397.688812 704.210144,397.681122 706.251160,396.599121 
z"/>
<path fill="#000000" opacity="1.000000" stroke="none" 
	d="
M789.479492,285.885742 
	C791.743469,285.775238 793.576111,285.825745 795.396179,285.697662 
	C798.019348,285.513062 799.435303,286.800537 800.014709,289.213623 
	C803.415710,303.378815 806.824036,317.542297 810.175598,331.719208 
	C810.472107,332.973328 810.664001,334.343109 809.910583,335.569183 
	C802.743225,337.193481 801.568359,336.832153 800.361755,330.018036 
	C799.385132,324.502411 795.718811,325.591370 792.171692,325.336578 
	C788.341125,325.061432 786.762878,326.873047 786.317200,330.427460 
	C785.994751,332.999695 785.929077,335.856171 782.216614,336.245056 
	C777.394043,336.750153 775.977051,335.381104 777.068481,330.658478 
	C780.238098,316.943756 783.494446,303.249146 786.707581,289.544464 
	C787.055847,288.059113 787.462524,286.636780 789.479492,285.885742 
M792.047119,304.557465 
	C791.019653,308.325378 789.955872,312.087280 789.947083,316.414886 
	C792.520020,316.347839 796.270081,318.858734 796.125916,314.045654 
	C795.993103,309.608978 794.266113,305.220062 793.241333,300.810089 
	C793.013245,300.854980 792.785217,300.899902 792.557129,300.944794 
	C792.444641,301.911255 792.332092,302.877686 792.047119,304.557465 
z"/>
<path fill="#000000" opacity="1.000000" stroke="none" 
	d="
M599.760315,164.957947 
	C602.456543,153.424011 605.163086,142.318253 607.628662,131.159225 
	C608.438660,127.493477 609.600708,125.221664 614.050781,125.507286 
	C617.915588,125.755356 620.779419,125.609184 621.848206,130.712143 
	C624.897156,145.268860 628.630554,159.682220 632.081787,174.098099 
	C625.135437,177.038269 623.104309,176.193115 621.609192,169.278992 
	C620.716980,165.153122 617.975342,164.485352 614.628967,164.621567 
	C611.416016,164.752335 608.663330,165.083405 607.937439,169.520508 
	C606.831787,176.279007 605.624756,176.631302 598.169861,174.485977 
	C597.673584,171.319427 599.212891,168.419907 599.760315,164.957947 
M613.148010,146.863480 
	C612.637268,148.931763 612.110901,150.996368 611.619873,153.069321 
	C611.096008,155.280991 611.774597,156.555893 614.260132,156.627380 
	C616.394592,156.688797 617.978760,156.168137 617.623474,153.658554 
	C617.095642,149.929962 616.541504,146.180664 614.504211,142.235794 
	C614.006653,143.990875 613.696045,145.086639 613.148010,146.863480 
z"/>
<path fill="#000000" opacity="1.000000" stroke="none" 
	d="
M705.906860,461.161530 
	C706.690674,457.856232 707.612366,454.983307 707.971313,452.041718 
	C708.598145,446.906433 711.164124,445.062225 716.323242,445.546936 
	C719.417786,445.837708 721.096130,446.549561 721.857971,449.802673 
	C725.141785,463.824554 728.682678,477.786102 732.051697,491.788483 
	C732.465820,493.509583 732.927246,495.846497 730.307251,496.139526 
	C727.860535,496.413239 724.831055,497.504730 723.316467,494.200958 
	C722.844849,493.172241 722.706238,491.975861 722.506775,490.840149 
	C721.777710,486.688660 719.446777,485.139923 715.162354,485.283844 
	C710.953735,485.425201 708.661987,486.793182 708.149963,491.177094 
	C707.901184,493.307129 707.720886,495.860504 704.498169,496.316650 
	C699.508606,497.022949 697.981628,495.544281 699.108276,490.614441 
	C701.322021,480.927460 703.562134,471.246460 705.906860,461.161530 
M716.450195,464.679169 
	C715.937500,463.949860 716.091248,462.649445 714.595581,462.621613 
	C713.432678,466.216309 712.553284,469.867645 712.302185,473.650177 
	C712.151794,475.914886 712.784485,477.774109 715.498901,477.460175 
	C718.007263,477.170074 718.613342,475.290833 718.204041,473.071198 
	C717.727905,470.489044 717.123962,467.930450 716.450195,464.679169 
z"/>
<path fill="#000000" opacity="1.000000" stroke="none" 
	d="
M849.923950,383.215820 
	C851.000488,378.617523 852.171692,374.456543 852.868042,370.217529 
	C853.619690,365.641571 856.676086,365.571381 860.223999,365.635895 
	C863.442017,365.694427 865.673828,365.906586 866.569885,370.046600 
	C869.477112,383.479126 872.996521,396.778320 876.161682,410.156921 
	C876.564697,411.860504 877.562439,413.600494 876.770020,415.471130 
	C869.447937,417.490997 868.114563,417.007050 866.657288,410.092438 
	C865.645447,405.291412 862.603455,405.385498 858.913879,405.307434 
	C855.348083,405.231995 853.355225,406.152924 852.880554,410.051056 
	C852.640686,412.021698 852.836243,414.709320 850.524719,415.779419 
	C848.381042,416.771851 845.805359,416.900635 843.780029,415.713928 
	C841.678284,414.482391 843.244995,412.389069 843.612427,410.737793 
	C845.626282,401.686615 847.733948,392.656250 849.923950,383.215820 
M856.565613,392.717377 
	C856.181702,395.040100 856.225281,397.194427 859.277832,397.467468 
	C861.176392,397.637268 862.736145,396.760651 862.563293,394.695709 
	C862.236877,390.797516 862.029602,386.793976 859.600952,382.935211 
	C857.666321,386.109283 857.603271,389.146515 856.565613,392.717377 
z"/>
<path fill="#000000" opacity="1.000000" stroke="none" 
	d="
M735.213867,333.965424 
	C732.810852,331.982086 731.288330,329.812256 730.632080,327.158905 
	C730.121643,325.095245 728.287109,322.542267 731.974365,321.479004 
	C734.837585,320.653290 737.870850,319.352020 739.342468,323.639252 
	C740.480957,326.956116 742.891663,328.421875 746.354797,327.566681 
	C750.067383,326.649902 751.334595,322.936676 749.056030,319.865967 
	C747.434143,317.680298 745.022156,316.462799 742.847229,314.936768 
	C737.677185,311.309296 732.414001,307.819122 731.150146,300.802277 
	C729.906189,293.895752 734.147461,286.999359 740.838867,285.708649 
	C749.169739,284.101685 757.615479,288.958160 758.851318,295.989014 
	C759.080017,297.289917 759.089050,298.599701 757.747253,298.844818 
	C755.440491,299.266296 752.952026,300.700745 750.748901,298.632599 
	C749.918274,297.852844 749.491821,296.642700 748.661499,295.862579 
	C746.431763,293.767670 743.775452,293.345398 741.531311,295.503448 
	C739.175476,297.768951 740.376038,300.217743 742.468018,301.944611 
	C745.150208,304.158752 748.117981,306.024048 750.927734,308.087372 
	C755.182312,311.211761 758.771423,314.802887 759.309753,320.459198 
	C759.848999,326.124512 758.742188,331.299316 753.502869,334.315155 
	C747.636658,337.691833 741.492554,337.646790 735.213867,333.965424 
z"/>
<path fill="#000000" opacity="1.000000" stroke="none" 
	d="
M811.682129,378.921692 
	C812.288757,371.415680 816.158020,366.699615 822.145081,365.735535 
	C830.153809,364.445862 836.063721,367.311035 839.045959,374.049042 
	C839.741211,375.619812 841.220154,377.805115 838.739746,378.754669 
	C836.625244,379.564209 834.087036,380.917389 831.753906,378.864410 
	C831.510559,378.650330 831.365295,378.325989 831.169922,378.056091 
	C829.513794,375.768005 828.004333,373.137604 824.501831,374.031677 
	C822.777649,374.471832 821.577759,375.661163 821.366577,377.532196 
	C820.976807,380.985565 823.677551,382.525421 825.841003,384.217896 
	C828.719604,386.469696 831.998169,388.223083 834.802307,390.554565 
	C840.882690,395.610168 842.321106,404.307800 838.338379,410.367065 
	C834.327515,416.469208 825.207642,418.676178 818.297363,415.226227 
	C815.167847,413.663818 812.842041,411.301422 811.881775,407.941711 
	C811.277710,405.828186 809.008423,403.173798 812.670105,401.610107 
	C815.802063,400.272705 818.792908,399.730530 820.318359,404.033173 
	C821.158569,406.403137 823.062073,407.935303 825.566162,408.089142 
	C827.605835,408.214447 829.403137,407.364441 830.583130,405.409424 
	C831.849731,403.310608 831.218384,401.583435 829.864868,399.934845 
	C827.605347,397.182617 824.562317,395.409729 821.630554,393.506866 
	C816.413818,390.120941 812.295959,385.967865 811.682129,378.921692 
z"/>
<path fill="#000000" opacity="1.000000" stroke="none" 
	d="
M893.458191,125.620285 
	C895.534058,125.687431 897.223328,125.338326 898.709473,126.159439 
	C900.200623,133.589905 899.699768,134.259186 892.748291,134.283539 
	C883.314575,134.316574 882.579041,135.376892 884.865540,146.019043 
	C887.065063,146.184067 889.365906,146.604675 891.632812,146.467148 
	C894.823242,146.273621 896.165283,147.313400 896.085876,150.675049 
	C896.008362,153.954819 894.545654,155.029465 891.487732,155.079956 
	C888.062439,155.136505 883.848511,153.880539 884.026306,160.041061 
	C884.212219,166.484039 884.162537,166.754211 890.642883,166.762878 
	C891.308411,166.763763 891.973877,166.759125 892.639404,166.760178 
	C899.760437,166.771561 900.089844,167.184692 898.789062,175.297211 
	C891.502502,175.297211 884.082520,175.376312 876.665955,175.252609 
	C874.201294,175.211502 873.976990,173.086304 873.966553,171.219131 
	C873.889587,157.410461 873.884094,143.601364 873.802307,129.792725 
	C873.784790,126.839294 875.119507,125.584328 878.040588,125.624863 
	C883.030762,125.694115 888.022766,125.630112 893.458191,125.620285 
z"/>
<path fill="#000000" opacity="1.000000" stroke="none" 
	d="
M718.024170,126.693291 
	C721.321167,135.511932 721.384705,144.802643 724.930847,153.473694 
	C728.648254,151.352737 727.746765,148.049637 728.478577,145.549698 
	C729.729431,141.276489 730.239075,136.792007 731.202454,132.427689 
	C732.882568,124.816315 733.886963,124.285805 742.271667,126.600517 
	C739.992004,136.385025 737.691895,146.193359 735.425781,156.009537 
	C734.195068,161.340515 732.946228,166.669357 731.852844,172.029190 
	C731.245911,175.004715 729.334534,175.636444 726.745911,175.389511 
	C724.115417,175.138611 720.786255,176.443146 719.795959,172.411316 
	C716.159729,157.606659 712.536072,142.798889 708.938538,127.984810 
	C708.831116,127.542313 709.065979,127.016670 709.166870,126.364197 
	C712.029907,125.333054 714.896973,125.188690 718.024170,126.693291 
z"/>
<path fill="#000000" opacity="1.000000" stroke="none" 
	d="
M639.678345,168.089218 
	C636.345581,153.990509 633.066101,140.297165 629.791870,126.625725 
	C638.364380,124.305031 639.795288,125.157448 641.267456,132.740860 
	C642.622253,139.719574 644.072388,146.679779 645.545898,153.971313 
	C648.107666,153.167908 648.386475,151.505890 648.713501,149.661484 
	C649.727051,143.945236 650.819763,138.240479 652.021484,132.560837 
	C653.613586,125.036301 654.667603,124.466202 663.172913,126.493019 
	C661.231934,134.841278 659.324768,143.211563 657.332031,151.561447 
	C655.789612,158.024582 653.717102,164.395233 652.682373,170.933945 
	C651.954224,175.535339 649.280457,175.279800 645.977844,175.485779 
	C642.426453,175.707260 640.635132,174.436447 640.350037,170.908279 
	C640.284119,170.092377 639.944946,169.298553 639.678345,168.089218 
z"/>
<path fill="#000000" opacity="1.000000" stroke="none" 
	d="
M827.947632,234.999512 
	C827.948914,226.519760 828.037415,218.538467 827.910583,210.560577 
	C827.853638,206.974655 829.179077,205.430481 832.887512,205.575272 
	C838.199707,205.782623 843.527710,205.735153 848.844666,205.612473 
	C851.895142,205.542053 853.391785,206.446533 853.400635,209.828583 
	C853.410034,213.407639 851.849182,214.609314 848.548584,214.334900 
	C847.392395,214.238754 846.222351,214.307022 845.058594,214.305603 
	C837.373840,214.296249 835.860168,216.222351 837.396057,223.862671 
	C838.223328,227.977692 841.505798,226.245773 843.838928,226.603546 
	C846.302734,226.981323 849.141724,225.884216 849.470215,230.219574 
	C849.829346,234.960266 847.503906,235.603378 843.808594,235.175308 
	C839.390686,234.663498 836.960388,235.865494 837.251770,241.074646 
	C837.616272,247.590424 837.302185,247.607315 844.025757,247.623901 
	C845.854492,247.628418 847.687012,247.717072 849.510986,247.627747 
	C852.253845,247.493423 853.409851,248.679504 853.365601,251.449265 
	C853.324585,254.014191 853.121643,256.156342 849.780334,256.134155 
	C843.796021,256.094421 837.811340,256.112396 831.826782,256.114380 
	C828.652588,256.115448 828.005676,254.052750 827.997192,251.459091 
	C827.979736,246.139175 827.963745,240.819275 827.947632,234.999512 
z"/>
<path fill="#000000" opacity="1.000000" stroke="none" 
	d="
M847.221924,480.307983 
	C847.317261,487.650085 847.317261,487.650604 854.200928,487.662415 
	C855.698914,487.664978 857.201111,487.734650 858.693909,487.646729 
	C861.648926,487.472748 863.357117,488.283661 863.380005,491.760101 
	C863.403320,495.297913 861.947998,496.466217 858.593811,496.374634 
	C853.105286,496.224670 847.607605,496.232208 842.118225,496.361938 
	C839.037964,496.434723 837.553162,495.458069 837.579773,492.114777 
	C837.692261,477.968292 837.694153,463.820312 837.617371,449.673523 
	C837.600647,446.599121 838.910828,445.591858 841.820312,445.654480 
	C847.310242,445.772644 852.806885,445.780090 858.296204,445.647614 
	C861.319397,445.574646 862.389709,446.809906 862.385071,449.782837 
	C862.380493,452.774597 861.699585,454.658203 858.237915,454.379242 
	C856.750061,454.259338 855.243103,454.342743 853.745911,454.377197 
	C847.850037,454.512878 847.287354,455.318665 847.083008,461.062988 
	C846.926025,465.477966 848.686707,466.969452 852.967468,466.787842 
	C855.124878,466.696320 858.205750,465.369415 859.202087,469.033356 
	C860.341675,473.224365 858.857300,475.175262 854.377258,475.319733 
	C851.080994,475.426025 847.301697,474.736755 847.221924,480.307983 
z"/>
<path fill="#000000" opacity="1.000000" stroke="none" 
	d="
M666.680725,156.999008 
	C666.683044,147.682632 666.764465,138.864883 666.646790,130.049805 
	C666.604797,126.903046 667.681396,125.508644 670.960938,125.598526 
	C676.612732,125.753426 682.273132,125.721588 687.927124,125.616219 
	C690.878906,125.561218 692.199829,126.706665 692.086426,129.726440 
	C691.986023,132.402222 691.301392,134.327438 688.152344,134.248718 
	C687.321289,134.227921 686.489075,134.257858 685.657349,134.263626 
	C675.321899,134.335159 674.773376,135.068970 676.976135,146.011536 
	C679.366699,147.047119 681.848511,145.997772 684.296143,146.097748 
	C687.199829,146.216339 688.425659,147.357040 688.396362,150.366684 
	C688.369324,153.148209 687.691772,154.910263 684.577515,154.857391 
	C683.912964,154.846100 683.247437,154.884384 682.582520,154.905701 
	C676.960999,155.085953 674.265320,159.631424 676.530151,164.996124 
	C677.184631,166.546417 678.435303,166.705399 679.785034,166.730164 
	C682.445801,166.778976 685.111755,166.863724 687.768127,166.753494 
	C690.820068,166.626846 692.372803,167.640686 692.350037,171.008499 
	C692.328491,174.187836 691.196228,175.510010 687.951965,175.423996 
	C682.300049,175.274155 676.638367,175.279556 670.986206,175.427490 
	C667.718933,175.512985 666.559692,174.122757 666.659119,170.972137 
	C666.800720,166.485214 666.686340,161.990234 666.680725,156.999008 
z"/>
<path fill="#000000" opacity="1.000000" stroke="none" 
	d="
M635.835632,235.133087 
	C634.040649,235.154984 632.703796,235.239044 631.377869,235.154114 
	C628.364136,234.961075 627.101990,236.331131 627.321472,239.312592 
	C627.443420,240.968903 627.394409,242.641708 627.352051,244.305267 
	C627.293091,246.621048 628.417725,247.643204 630.687866,247.621231 
	C633.517761,247.593811 636.352295,247.729492 639.177246,247.612701 
	C642.078369,247.492752 643.391296,248.534851 643.396179,251.629761 
	C643.401245,254.822144 642.186401,256.208405 638.999268,256.162537 
	C633.339844,256.081085 627.677917,256.081909 622.018311,256.152985 
	C618.807373,256.193298 617.630371,254.699829 617.647400,251.567780 
	C617.722473,237.749603 617.728210,223.930374 617.628845,210.112457 
	C617.606506,207.005463 618.564026,205.514847 621.890503,205.603622 
	C627.547058,205.754547 633.211670,205.707153 638.870728,205.613358 
	C641.841187,205.564117 643.109741,206.865417 643.085938,209.794266 
	C643.061340,212.818741 641.942200,214.556366 638.643921,214.307343 
	C637.485352,214.219864 636.314209,214.302979 635.148804,214.300232 
	C627.397217,214.281891 625.571838,216.541443 627.435913,224.133713 
	C628.476013,228.370102 632.041382,226.346207 634.510498,226.577332 
	C638.904968,226.988708 640.372253,228.803421 639.218262,232.974518 
	C638.776855,234.570175 637.739624,235.042221 635.835632,235.133087 
z"/>
<path fill="#000000" opacity="1.000000" stroke="none" 
	d="
M918.344360,402.785156 
	C918.042969,406.433899 919.505493,407.815033 922.721863,407.641266 
	C925.047424,407.515594 927.389709,407.715546 929.717529,407.611633 
	C932.640686,407.481171 934.425476,408.137390 934.391296,411.687012 
	C934.357971,415.140930 933.087952,416.465424 929.647827,416.355225 
	C924.321472,416.184631 918.982849,416.214233 913.654541,416.352966 
	C910.377136,416.438293 908.697449,415.364471 908.717529,411.815582 
	C908.796814,397.819885 908.774597,383.823364 908.718079,369.827423 
	C908.706116,366.866089 909.953430,365.605072 912.918091,365.656433 
	C918.414917,365.751617 923.917053,365.790710 929.412048,365.653931 
	C933.022461,365.564087 933.302612,367.666870 933.383667,370.479279 
	C933.473022,373.577179 932.201355,374.711945 929.229187,374.432587 
	C927.742371,374.292816 926.232361,374.380951 924.733154,374.396271 
	C918.345215,374.461487 918.608459,374.507355 918.241394,380.842133 
	C917.967651,385.566864 919.701904,387.039215 924.237671,386.767731 
	C926.324219,386.642853 929.505554,385.257782 930.266479,389.212708 
	C931.117371,393.635406 929.890259,395.167053 925.162476,395.318451 
	C918.394104,395.535187 918.394104,395.535187 918.344360,402.785156 
z"/>
<path fill="#000000" opacity="1.000000" stroke="none" 
	d="
M873.759033,327.766785 
	C877.525208,329.211090 876.324280,332.044647 875.965698,334.266113 
	C875.579895,336.655518 873.221313,336.239838 871.445557,336.255493 
	C865.950745,336.303955 860.452698,336.179260 854.961243,336.324341 
	C851.701599,336.410431 850.595276,335.027679 850.617432,331.862823 
	C850.715271,317.875793 850.701843,303.887573 850.635437,289.900238 
	C850.621582,286.981903 851.677002,285.623993 854.711365,285.684418 
	C860.370728,285.797150 866.034607,285.793579 871.694824,285.712036 
	C875.065735,285.663513 875.325195,287.735443 875.352051,290.318604 
	C875.378845,292.903870 874.648804,294.511169 871.710388,294.375153 
	C869.883179,294.290558 868.016357,294.600586 866.222412,294.345825 
	C861.209961,293.634125 860.121887,295.948273 860.085999,300.580017 
	C860.048645,305.402466 861.557617,307.168091 866.376160,306.757294 
	C868.494690,306.576691 871.719299,305.416992 872.240601,309.394562 
	C872.720398,313.055603 872.088501,315.441742 867.422668,315.342529 
	C860.702637,315.199677 858.361084,318.872620 860.397217,325.337250 
	C861.054016,327.422546 862.580627,327.598267 864.300110,327.622375 
	C867.296875,327.664398 870.294006,327.683289 873.759033,327.766785 
z"/>
<path fill="#000000" opacity="1.000000" stroke="none" 
	d="
M746.564880,162.687805 
	C746.443298,151.421677 746.342163,140.624680 746.171204,129.828796 
	C746.131775,127.339691 746.616089,125.597977 749.649841,125.628754 
	C756.607483,125.699348 763.566345,125.651100 770.412292,125.651100 
	C772.501038,133.200256 771.748596,134.244858 764.582642,134.273346 
	C763.917053,134.275986 763.251526,134.278214 762.585938,134.278625 
	C755.960815,134.282654 753.148071,138.179398 755.607727,144.393738 
	C757.145386,148.278809 760.809753,146.269272 763.519226,146.475266 
	C767.659363,146.790024 769.136841,148.538345 767.989807,152.449814 
	C767.144592,155.332031 764.758362,154.868073 762.681274,154.973404 
	C756.385498,155.292679 754.392334,158.103867 756.046509,164.228638 
	C756.522766,165.992142 757.548523,166.709122 759.235840,166.736359 
	C761.065613,166.765869 762.895813,166.771881 764.725830,166.777527 
	C771.666748,166.798920 772.199097,167.508087 770.556885,175.445465 
	C763.442200,175.445465 756.165771,175.438675 748.889404,175.449463 
	C746.604004,175.452866 746.083130,173.883942 746.107300,172.116364 
	C746.148132,169.128510 746.398010,166.143539 746.564880,162.687805 
z"/>
<path fill="#000000" opacity="1.000000" stroke="none" 
	d="
M564.302490,402.715332 
	C567.978882,403.350433 568.707703,405.023651 567.244385,408.065979 
	C564.721863,413.310364 560.958374,416.458832 554.898376,416.636108 
	C548.712830,416.817017 543.428650,414.898346 540.793945,409.177582 
	C535.145386,396.912689 534.875183,384.387939 541.211182,372.250153 
	C544.303162,366.326965 550.813477,364.202087 558.160767,365.828247 
	C563.327759,366.971832 567.130005,371.903320 567.794861,378.564819 
	C563.915527,379.985474 560.212463,382.692657 557.346436,376.475708 
	C555.616394,372.722839 551.826172,373.020142 549.352356,376.464111 
	C545.532166,381.782379 545.251526,399.355103 548.896729,404.994904 
	C551.506470,409.032654 554.961426,409.303131 558.242798,405.455475 
	C559.820496,403.605530 561.109924,401.746796 564.302490,402.715332 
z"/>
<path fill="#000000" opacity="1.000000" stroke="none" 
	d="
M890.350403,381.867828 
	C889.919739,386.241669 891.717102,387.830231 895.608398,387.335754 
	C898.187622,387.008026 900.186707,387.343292 900.316101,390.759033 
	C900.446594,394.202454 899.157166,395.692932 895.686890,395.426514 
	C891.602112,395.112976 890.038818,397.105682 890.298523,401.157135 
	C890.542908,404.969727 890.219727,408.815399 890.345459,412.639954 
	C890.455322,415.979889 888.519348,416.412292 885.865173,416.363464 
	C883.190552,416.314270 880.715698,416.223328 880.718140,412.596832 
	C880.727905,398.112823 880.734314,383.628815 880.733276,369.144806 
	C880.733093,366.913422 881.782104,365.723511 884.045959,365.719452 
	C889.706116,365.709320 895.366577,365.753113 901.026245,365.698212 
	C904.160828,365.667786 904.372559,367.660034 904.345886,370.030762 
	C904.319824,372.359375 904.195557,374.471527 901.029480,374.364624 
	C899.866211,374.325317 898.699463,374.394226 897.534241,374.403992 
	C890.372925,374.463837 890.372925,374.462921 890.350403,381.867828 
z"/>
<path fill="#000000" opacity="1.000000" stroke="none" 
	d="
M828.709656,130.149750 
	C828.457214,126.613243 829.982666,125.548447 832.890259,125.608780 
	C838.051514,125.715881 843.219116,125.738579 848.379028,125.604935 
	C851.481262,125.524590 852.417114,126.935165 852.366333,129.832474 
	C852.318787,132.543457 851.810059,134.467468 848.536133,134.222992 
	C847.542419,134.148788 846.538086,134.203949 845.538879,134.218811 
	C838.280884,134.326782 838.400146,134.390808 838.257385,141.414581 
	C838.180847,145.178085 839.206116,147.135117 843.279114,146.737015 
	C846.310547,146.440735 848.359070,147.164948 848.380859,150.990631 
	C848.401794,154.673218 846.708862,155.614868 843.491821,155.422150 
	C839.704590,155.195236 838.032471,156.977753 838.291809,160.852066 
	C838.502747,164.002426 838.187683,167.186356 838.362000,170.341248 
	C838.553284,173.804321 837.541260,175.436676 833.654907,175.505814 
	C829.481079,175.580048 828.616943,173.777359 828.654297,170.108932 
	C828.788025,156.951721 828.704407,143.792313 828.709656,130.149750 
z"/>
<path fill="#000000" opacity="1.000000" stroke="none" 
	d="
M601.332947,487.936768 
	C601.299622,496.096313 600.937012,496.458771 595.949890,496.377045 
	C592.187378,496.315369 591.638733,494.205444 591.655518,491.167572 
	C591.710876,481.167969 591.495117,471.163788 591.733154,461.169678 
	C591.846313,456.416901 590.583191,453.762909 585.318237,454.271423 
	C581.987793,454.593140 581.654297,452.344086 581.640198,449.732635 
	C581.626282,447.140442 582.361084,445.645203 585.300415,445.680145 
	C592.799011,445.769440 600.299927,445.762024 607.798828,445.686218 
	C611.251587,445.651337 611.294006,447.863037 611.356506,450.364471 
	C611.423340,453.041199 610.418762,454.687897 607.616699,454.289001 
	C601.718201,453.449280 601.145447,456.782501 601.270020,461.448669 
	C601.501221,470.109100 601.334290,478.780182 601.332947,487.936768 
z"/>
<path fill="#000000" opacity="1.000000" stroke="none" 
	d="
M567.633423,254.333130 
	C560.944763,257.958038 558.667725,256.644470 558.653625,249.633926 
	C558.633118,239.470840 558.593872,229.307434 558.658508,219.144791 
	C558.676758,216.274689 558.132568,214.455887 554.655334,214.225784 
	C548.253479,213.802185 548.265381,213.622681 548.924316,206.381516 
	C552.502441,204.886398 556.352173,205.795212 560.088562,205.662369 
	C564.580994,205.502655 569.085388,205.712143 573.581848,205.622589 
	C576.541260,205.563644 578.377441,206.338867 578.275696,209.797150 
	C578.183655,212.924225 576.880554,214.618515 573.718384,214.206390 
	C568.644775,213.545151 568.048767,216.340652 568.079224,220.464279 
	C568.161621,231.617447 567.932312,242.772919 567.633423,254.333130 
z"/>
<path fill="#000000" opacity="1.000000" stroke="none" 
	d="
M809.713318,449.234131 
	C810.398926,444.276703 813.892334,445.846313 816.423706,445.809692 
	C819.665588,445.762756 819.319519,448.404358 819.326843,450.527100 
	C819.361572,460.522919 819.333313,470.518951 819.353455,480.514862 
	C819.366943,487.217529 819.759033,487.542572 826.411438,487.700989 
	C828.496277,487.750610 830.941223,486.912842 832.514709,488.901337 
	C833.719971,490.424408 833.408325,492.435730 832.989685,494.214050 
	C832.498413,496.300934 830.675049,496.323761 828.973999,496.328888 
	C824.475830,496.342468 819.957947,496.072205 815.484802,496.407501 
	C810.640930,496.770630 809.557861,494.534271 809.618347,490.192535 
	C809.806274,476.700653 809.690125,463.204559 809.713318,449.234131 
z"/>
<path fill="#000000" opacity="1.000000" stroke="none" 
	d="
M647.843750,398.995972 
	C647.837524,389.170044 647.950928,379.840759 647.767029,370.517334 
	C647.692932,366.761963 649.185669,365.579407 652.787781,365.588257 
	C656.260315,365.596771 657.443542,366.882050 657.395386,370.311707 
	C657.248230,380.802490 657.548401,391.302216 657.259949,401.787079 
	C657.130798,406.482971 658.820007,408.237488 663.345642,407.656036 
	C664.491821,407.508789 665.679932,407.720398 666.839172,407.635895 
	C669.871460,407.414886 671.452026,408.390381 671.400879,411.815460 
	C671.354065,414.957550 670.335266,416.423523 667.060913,416.337158 
	C662.234314,416.209839 657.399170,416.207092 652.572693,416.337219 
	C649.087402,416.431183 647.795593,414.765533 647.851624,411.486359 
	C647.919800,407.490417 647.852600,403.492188 647.843750,398.995972 
z"/>
<path fill="#000000" opacity="1.000000" stroke="none" 
	d="
M744.997192,243.962585 
	C745.001709,246.620010 744.984192,248.784042 745.008179,250.947617 
	C745.044067,254.180679 744.263672,256.322693 740.245300,256.254181 
	C736.332886,256.187469 735.577454,254.304138 735.605103,250.922607 
	C735.715271,237.440613 735.709839,223.956772 735.610229,210.474640 
	C735.586731,207.299606 736.247009,205.583984 739.965210,205.530319 
	C743.738892,205.475845 745.012756,207.027481 744.997803,210.512283 
	C744.950745,221.497665 744.988708,232.483398 744.997192,243.962585 
z"/>
<path fill="#000000" opacity="1.000000" stroke="none" 
	d="
M857.785278,169.840210 
	C857.776306,157.378174 857.773987,145.399536 857.756226,133.420944 
	C857.743774,124.986824 858.054504,124.721024 866.953918,126.200493 
	C866.953918,142.309021 866.953918,158.491653 866.953918,174.645950 
	C859.550415,176.392044 858.327881,175.802963 857.785278,169.840210 
z"/>
<path fill="#000000" opacity="1.000000" stroke="none" 
	d="
M543.349060,134.051804 
	C543.346375,146.530258 543.245300,158.518097 543.399841,170.502655 
	C543.446472,174.119064 542.303284,175.510803 538.556824,175.487076 
	C534.798706,175.463242 533.638855,173.962036 533.668518,170.407730 
	C533.776917,157.423233 533.766052,144.436615 533.649475,131.452133 
	C533.617310,127.865242 533.922363,125.511131 538.598999,125.497742 
	C543.445801,125.483856 543.563110,128.140060 543.353210,131.562515 
	C543.312561,132.225922 543.348328,132.894012 543.349060,134.051804 
z"/>
<path fill="#000000" opacity="1.000000" stroke="none" 
	d="
M815.077026,175.273987 
	C812.090332,174.497116 812.696106,172.356873 812.688843,170.664291 
	C812.631165,157.197586 812.736572,143.729706 812.600098,130.264130 
	C812.565491,126.844414 813.693665,125.558563 817.180908,125.555908 
	C820.560303,125.553337 822.081543,126.701172 822.068604,130.125519 
	C822.017151,143.758331 821.998535,157.391724 822.073608,171.024323 
	C822.101135,176.013062 818.745544,175.453644 815.077026,175.273987 
z"/>
<path fill="#000000" opacity="1.000000" stroke="none" 
	d="
M285.546875,321.995514 
	C287.367706,316.260468 291.887024,317.465088 295.607880,317.923889 
	C303.041931,318.840515 310.445007,319.871277 317.956268,319.683258 
	C322.266388,319.575378 326.603821,320.076416 330.856842,318.762085 
	C332.207306,318.344696 333.997772,317.992279 334.891357,319.675171 
	C335.797150,321.381104 335.002625,322.902008 333.758240,324.175446 
	C332.069427,325.903717 329.929565,326.802338 327.632172,327.357117 
	C314.874268,330.438080 302.181244,328.555237 289.506042,326.746155 
	C287.205719,326.417847 285.517487,325.045380 285.546875,321.995514 
z"/>
<path fill="#000000" opacity="1.000000" stroke="none" 
	d="
M179.852814,231.687515 
	C180.855453,226.474426 183.868134,224.947128 187.862930,227.424988 
	C189.373016,228.361649 190.775864,229.687317 191.813736,231.132797 
	C197.100586,238.496078 198.722153,246.756607 197.231293,255.624481 
	C196.791245,258.241821 195.505920,260.395966 192.357758,260.257202 
	C188.955841,260.107269 187.949097,257.738464 187.779724,254.843475 
	C187.663757,252.861069 187.794678,250.865509 187.764160,248.876602 
	C187.680359,243.414444 186.841690,238.312210 181.753143,234.944702 
	C180.886780,234.371368 180.515610,233.049789 179.852814,231.687515 
z"/>
<path fill="#000000" opacity="1.000000" stroke="none" 
	d="
M372.490967,619.568604 
	C374.573486,616.527039 376.472595,613.793762 378.396881,611.078308 
	C385.189667,601.492493 388.150482,590.812439 387.687408,579.104431 
	C387.591461,576.678833 387.175507,573.491638 390.729370,573.339355 
	C393.823639,573.206909 394.785278,576.010132 395.029083,578.571472 
	C396.637604,595.470093 391.458130,610.036682 379.677917,622.240051 
	C378.892700,623.053528 377.870850,623.774048 376.820343,624.163818 
	C375.287018,624.732483 373.483185,625.383118 372.097809,624.036072 
	C370.775452,622.750244 371.744537,621.251953 372.490967,619.568604 
z"/>
<path fill="#000000" opacity="1.000000" stroke="none" 
	d="
M355.933899,235.036285 
	C362.482391,231.429169 366.162720,233.463455 366.335541,240.378372 
	C366.402008,243.037628 366.337006,245.700348 366.321472,248.361420 
	C366.300751,251.921265 364.550720,253.925201 360.979370,254.320663 
	C357.458008,254.710602 355.053436,253.235199 354.299866,249.805603 
	C353.218628,244.884689 352.820587,239.934235 355.933899,235.036285 
z"/>
<path fill="#000000" opacity="1.000000" stroke="none" 
	d="
M280.864624,233.641327 
	C286.869232,232.695602 289.151428,234.415497 289.321838,239.697342 
	C289.412628,242.511261 289.323608,245.330627 289.341370,248.147354 
	C289.363129,251.593628 288.006775,253.940094 284.319641,254.301407 
	C280.687347,254.657364 278.309235,253.283829 277.451874,249.465698 
	C276.170105,243.757645 275.838074,238.321915 280.864624,233.641327 
z"/>
</svg>