<svg id="svg" version="1.1" xmlns="http://www.w3.org/2000/svg" xmlns:xlink="http://www.w3.org/1999/xlink" width="400" height="400" viewBox="0, 0, 400,400"><g id="svgg"><path id="path0" d="M16.589 16.589 L 14.800 18.379 14.800 200.000 L 14.800 381.621 16.589 383.411 L 18.379 385.200 200.000 385.200 L 381.621 385.200 383.411 383.411 L 385.200 381.621 385.200 200.000 L 385.200 18.379 383.411 16.589 L 381.621 14.800 200.000 14.800 L 18.379 14.800 16.589 16.589 M360.663 34.201 C 363.379 34.991,365.246 36.635,366.449 39.297 L 367.400 41.400 367.505 199.600 C 367.619 369.276,367.705 361.109,365.748 364.905 C 364.929 366.492,359.866 372.155,358.209 373.337 L 357.000 374.200 203.800 374.473 C 119.540 374.623,48.980 374.859,47.000 374.997 C 42.733 375.294,40.641 374.289,38.427 370.877 C 37.757 369.845,36.923 368.640,36.574 368.200 C 35.309 366.608,34.453 364.499,33.805 361.380 C 33.198 358.454,33.147 345.589,33.171 200.545 L 33.198 42.891 34.016 40.241 C 35.068 36.835,36.753 35.089,39.926 34.115 C 43.280 33.085,357.114 33.169,360.663 34.201 M225.099 67.407 C 217.432 68.165,217.392 68.177,216.020 70.171 C 214.236 72.764,209.777 76.000,207.988 76.000 C 207.746 76.000,206.615 76.426,205.474 76.947 C 203.380 77.903,199.477 78.891,195.800 79.396 C 192.855 79.800,191.324 80.881,191.003 82.781 C 190.392 86.400,187.409 89.369,183.169 90.580 C 180.205 91.426,179.517 92.439,178.509 97.440 C 177.618 101.861,176.953 103.528,175.294 105.500 C 174.692 106.215,173.664 107.486,173.008 108.325 C 172.353 109.163,171.082 110.404,170.183 111.081 C 166.859 113.587,165.878 123.604,166.766 145.949 C 167.294 159.221,167.587 160.490,170.656 162.807 C 171.841 163.702,173.287 165.192,173.869 166.117 C 174.451 167.043,175.446 168.561,176.082 169.491 C 177.521 171.598,178.552 174.549,179.199 178.417 C 179.839 182.240,180.571 183.256,183.304 184.117 C 187.136 185.325,190.800 189.482,190.800 192.622 C 190.800 193.966,193.176 195.819,195.657 196.410 C 200.884 197.657,203.345 199.588,204.589 203.422 C 205.625 206.615,205.670 206.649,209.862 207.363 C 213.310 207.950,219.711 210.000,222.255 211.332 C 224.068 212.282,225.874 214.409,226.967 216.883 C 228.157 219.578,229.065 220.158,233.387 220.985 C 239.188 222.095,242.202 224.354,243.229 228.362 C 243.893 230.951,243.893 230.951,247.971 231.993 C 257.520 234.431,262.350 237.330,264.413 241.864 C 265.673 244.633,267.262 245.822,271.200 246.945 C 274.954 248.016,277.242 250.501,278.387 254.751 C 278.890 256.619,280.882 258.800,282.085 258.800 C 286.134 258.800,291.200 263.888,291.200 267.955 C 291.200 268.902,293.450 272.000,294.139 272.000 C 294.432 272.000,295.783 272.555,297.140 273.233 C 301.003 275.163,301.774 276.542,304.581 286.536 C 306.359 292.864,306.850 294.000,307.806 294.000 C 308.872 294.000,312.377 297.675,313.427 299.894 C 314.712 302.611,315.781 307.709,316.425 314.200 C 316.780 317.775,317.145 319.485,317.857 320.900 L 318.813 322.800 325.000 322.800 L 331.187 322.800 332.191 320.817 L 333.196 318.834 332.339 313.317 L 331.481 307.800 328.791 305.200 C 324.710 301.255,322.350 295.078,321.040 284.909 C 320.298 279.151,319.557 277.750,316.561 276.444 C 314.066 275.355,311.498 272.716,310.761 270.482 C 310.498 269.684,309.866 268.203,309.357 267.190 C 308.848 266.177,307.965 263.650,307.394 261.574 C 306.026 256.601,306.139 256.751,302.886 255.600 C 297.999 253.872,295.860 251.509,294.540 246.383 L 293.837 243.656 291.219 243.003 C 286.143 241.735,283.436 239.344,281.951 234.814 C 280.836 231.414,280.826 231.404,277.745 230.630 C 274.939 229.926,271.763 228.480,269.800 227.015 C 269.140 226.522,268.004 225.812,267.276 225.437 C 265.202 224.369,263.004 222.182,262.191 220.381 C 261.366 218.551,258.054 216.575,254.246 215.641 C 249.593 214.499,245.657 210.635,245.609 207.162 C 245.592 205.967,244.205 205.300,240.001 204.465 C 233.056 203.085,226.461 199.145,224.582 195.253 C 223.713 193.453,220.515 191.822,215.930 190.841 C 211.981 189.997,209.540 187.662,208.150 183.400 C 207.311 180.828,206.684 180.141,204.874 179.808 C 199.730 178.861,197.479 176.579,196.184 170.995 C 195.187 166.692,194.221 165.101,192.070 164.211 C 185.363 161.438,183.411 155.113,183.425 136.200 C 183.438 117.886,185.360 112.005,192.062 109.779 C 194.202 109.069,195.122 107.844,196.141 104.350 C 197.424 99.952,199.939 97.538,204.400 96.423 C 209.818 95.069,211.859 94.035,213.121 92.005 C 216.322 86.854,223.158 84.618,237.136 84.149 C 255.097 83.546,264.150 85.540,270.263 91.446 L 272.837 93.933 279.119 95.614 C 288.011 97.993,289.619 98.996,291.211 103.155 C 291.684 104.390,292.222 105.786,292.407 106.258 C 292.650 106.875,293.622 107.409,295.872 108.160 C 300.523 109.712,302.445 111.856,303.607 116.788 C 304.624 121.106,305.732 122.971,308.071 124.303 C 310.614 125.750,312.036 127.186,313.307 129.589 C 314.382 131.622,316.988 133.159,320.789 134.004 C 325.369 135.021,327.862 137.158,329.050 141.085 C 329.435 142.358,330.083 143.779,330.490 144.242 C 331.270 145.129,331.294 145.130,335.698 144.373 L 338.396 143.910 337.408 142.736 C 335.503 140.472,334.713 136.237,334.046 124.704 C 333.610 117.171,332.737 114.954,329.558 113.312 C 327.453 112.224,324.620 109.264,323.974 107.478 C 323.518 106.219,319.264 103.206,317.927 103.196 C 315.208 103.176,310.875 99.273,309.765 95.844 C 308.925 93.248,307.102 91.304,305.014 90.777 C 300.549 89.651,297.887 87.315,296.671 83.458 C 295.760 80.567,294.716 79.867,290.400 79.251 C 280.602 77.852,273.417 75.056,270.060 71.336 L 267.700 68.721 262.150 67.772 C 255.669 66.664,234.705 66.457,225.099 67.407 M90.946 178.368 C 88.930 179.094,86.400 180.684,86.400 181.225 C 86.400 181.376,86.685 182.287,87.033 183.250 C 87.381 184.212,88.082 186.938,88.591 189.307 C 89.101 191.676,89.807 194.016,90.160 194.507 C 90.513 194.998,91.477 196.339,92.301 197.488 C 93.126 198.636,94.648 200.112,95.684 200.769 C 96.720 201.425,98.102 202.735,98.757 203.681 C 101.114 207.087,101.902 207.433,109.970 208.592 C 118.766 209.855,124.717 212.923,127.537 217.648 C 128.604 219.435,129.678 219.754,137.560 220.623 C 150.827 222.086,155.538 224.007,160.253 229.877 C 161.832 231.842,162.967 232.198,170.899 233.215 C 184.258 234.927,190.698 237.725,192.764 242.713 C 193.341 244.106,194.027 244.283,203.926 245.587 C 216.539 247.249,224.005 250.670,225.011 255.248 C 225.293 256.536,228.151 257.663,233.000 258.400 C 238.494 259.235,242.022 261.157,243.177 263.944 C 243.666 265.125,243.882 265.193,245.449 264.665 C 246.440 264.331,246.789 262.787,246.796 258.709 C 246.801 255.432,246.401 255.071,241.492 253.928 C 235.751 252.591,233.742 250.804,232.387 245.831 C 231.751 243.497,231.662 243.386,230.162 243.056 C 216.944 240.145,213.121 238.244,210.467 233.264 C 208.974 230.463,207.891 229.948,202.000 229.235 C 191.744 227.995,186.121 225.037,182.600 219.029 C 182.293 218.505,180.717 218.125,175.800 217.388 C 157.833 214.695,153.973 213.234,150.558 207.837 C 149.240 205.754,146.640 204.767,140.000 203.830 C 131.293 202.601,125.543 199.397,123.975 194.901 C 123.458 193.416,120.734 192.160,116.814 191.598 C 111.526 190.842,109.730 190.359,106.561 188.844 C 103.059 187.170,100.858 185.266,99.622 182.843 C 98.877 181.383,94.372 177.582,93.425 177.614 C 93.191 177.622,92.076 177.962,90.946 178.368 M78.200 217.457 C 74.745 218.164,73.936 218.717,75.031 219.626 C 76.262 220.647,77.602 224.008,78.230 227.650 C 79.019 232.220,79.996 233.703,82.663 234.374 C 87.299 235.542,89.460 237.333,91.180 241.437 C 92.421 244.401,93.407 245.126,96.260 245.177 C 98.271 245.213,112.631 247.126,114.500 247.606 C 121.928 249.517,126.475 251.676,129.013 254.499 C 131.129 256.852,132.364 257.144,144.600 258.179 C 154.419 259.010,160.019 259.797,165.095 261.060 C 170.035 262.289,171.926 261.969,173.488 259.641 C 175.923 256.012,174.283 255.054,163.800 253.980 C 152.547 252.828,147.518 250.788,144.570 246.179 C 142.719 243.286,142.044 243.067,131.061 241.784 C 119.718 240.460,114.201 238.071,111.521 233.321 C 109.927 230.498,109.003 230.105,101.800 229.185 C 90.412 227.731,86.308 225.592,84.717 220.281 C 83.969 217.785,81.604 216.760,78.200 217.457 M56.000 245.843 C 56.000 247.323,56.091 248.442,56.202 248.331 C 56.595 247.939,56.747 243.614,56.376 243.385 C 56.156 243.249,56.000 244.267,56.000 245.843 M59.428 253.490 C 57.088 254.086,56.848 255.856,58.844 257.793 C 60.707 259.601,62.415 262.748,63.420 266.221 C 63.891 267.850,64.721 269.336,66.054 270.935 C 67.124 272.219,68.000 273.425,68.000 273.616 C 68.000 273.806,69.232 274.758,70.737 275.732 C 72.555 276.908,73.864 278.122,74.637 279.350 C 76.387 282.130,78.545 282.663,90.200 283.193 C 113.825 284.268,128.541 287.265,133.400 291.990 C 136.006 294.524,139.831 295.423,149.600 295.797 C 168.304 296.513,175.249 298.266,179.927 303.448 C 182.240 306.011,182.497 306.174,185.674 307.084 C 193.503 309.327,199.561 313.201,201.266 317.056 C 201.694 318.024,202.919 319.523,204.120 320.550 L 206.225 322.347 212.611 322.431 L 218.997 322.515 220.289 320.757 C 221.867 318.610,221.865 318.934,220.320 316.243 C 219.365 314.580,218.466 313.660,216.774 312.617 C 214.497 311.211,213.075 309.680,211.867 307.334 C 211.094 305.833,207.476 303.723,204.787 303.204 C 199.576 302.198,196.278 300.066,194.587 296.609 C 194.001 295.412,193.306 294.254,193.042 294.035 C 192.525 293.606,184.934 292.195,181.000 291.796 C 167.928 290.473,158.947 287.602,154.521 283.331 C 151.454 280.372,149.003 279.726,138.800 279.187 C 121.330 278.263,112.559 275.882,108.711 271.017 C 106.583 268.328,106.089 268.149,98.646 267.376 C 88.930 266.368,85.061 265.504,82.436 263.756 C 81.206 262.937,79.527 261.824,78.705 261.283 C 77.883 260.741,76.572 259.337,75.792 258.161 C 73.009 253.969,65.716 251.887,59.428 253.490 M179.483 265.258 C 178.066 265.985,176.790 268.179,177.442 268.768 C 178.171 269.427,181.603 269.959,189.200 270.592 C 199.560 271.454,203.854 272.141,205.227 273.157 C 206.486 274.087,206.784 273.892,207.791 271.482 C 209.403 267.624,209.074 267.512,192.880 266.401 C 189.294 266.155,185.121 265.639,183.607 265.254 C 180.983 264.588,180.789 264.588,179.483 265.258 M249.093 265.887 C 248.484 265.979,248.082 266.210,248.200 266.400 C 248.317 266.589,248.230 266.858,248.007 266.996 C 246.877 267.694,247.679 268.797,250.190 269.995 C 251.614 270.675,253.571 271.835,254.539 272.574 L 256.298 273.917 257.964 273.171 C 259.563 272.456,260.800 270.667,260.800 269.069 C 260.800 266.759,254.555 265.062,249.093 265.887 M268.000 276.688 C 264.477 277.919,262.922 280.316,264.341 282.327 C 265.540 284.027,267.015 287.175,267.962 290.054 C 268.931 293.001,269.490 293.651,271.738 294.445 C 276.792 296.230,278.461 300.009,279.359 311.697 C 280.078 321.052,279.595 320.436,287.064 321.536 C 294.472 322.626,293.838 322.685,294.792 320.816 C 296.177 318.101,294.959 311.939,292.783 310.653 C 292.140 310.274,291.026 309.235,290.307 308.345 C 289.588 307.455,288.481 306.173,287.847 305.496 C 286.179 303.713,284.538 299.851,283.984 296.400 C 283.185 291.419,282.128 289.872,279.200 289.400 C 275.038 288.730,273.686 287.285,273.022 282.800 C 272.714 280.713,269.092 276.306,268.000 276.688 M215.814 278.187 C 213.226 278.882,211.520 280.660,212.649 281.485 C 213.598 282.179,218.864 283.842,221.237 284.197 C 225.293 284.804,227.481 287.093,228.382 291.671 C 228.948 294.546,230.221 295.849,233.439 296.845 C 238.754 298.489,239.976 300.356,241.842 309.690 C 243.598 318.472,243.347 318.142,250.031 320.472 C 256.612 322.767,256.167 322.753,257.458 320.708 L 258.526 319.016 257.810 312.808 C 257.024 305.995,256.780 305.427,254.476 305.059 C 250.634 304.444,247.880 301.358,246.473 296.089 C 245.599 292.811,244.738 291.815,242.237 291.184 C 236.446 289.725,233.866 287.356,232.992 282.696 C 232.606 280.640,232.190 280.417,227.146 279.556 C 224.684 279.136,221.767 278.524,220.663 278.196 C 218.312 277.498,218.380 277.498,215.814 278.187 " stroke="none" fill="#f8f9fa" fill-rule="evenodd"></path><path id="path1" d="M0.000 200.000 L 0.000 400.000 200.000 400.000 L 400.000 400.000 400.000 200.000 L 400.000 0.000 200.000 0.000 L 0.000 0.000 0.000 200.000 M384.547 9.473 C 387.777 10.380,389.620 12.223,390.527 15.453 C 391.568 19.162,391.568 380.838,390.527 384.547 C 389.620 387.777,387.777 389.620,384.547 390.527 C 380.838 391.568,19.162 391.568,15.453 390.527 C 12.223 389.620,10.380 387.777,9.473 384.547 C 8.432 380.838,8.432 19.162,9.473 15.453 C 10.348 12.336,12.237 10.384,15.229 9.503 C 18.665 8.492,380.947 8.463,384.547 9.473 M41.755 37.178 C 39.512 38.467,37.980 40.087,36.780 42.440 C 36.008 43.953,35.997 45.999,35.964 200.486 L 35.930 357.000 36.792 359.295 C 37.951 362.381,39.843 365.065,41.886 366.521 L 43.573 367.723 51.086 367.250 C 56.657 366.900,97.175 366.785,207.751 366.808 L 356.901 366.839 358.402 365.846 C 360.481 364.470,362.712 361.635,363.643 359.183 C 364.604 356.654,364.913 44.525,363.956 42.700 C 362.966 40.812,361.059 38.751,359.404 37.781 L 357.684 36.773 201.342 36.687 C 115.354 36.639,44.730 36.466,44.400 36.302 C 44.028 36.117,43.021 36.451,41.755 37.178 M196.000 39.468 C 309.841 39.622,344.510 39.556,349.695 39.176 L 356.391 38.686 358.201 40.096 C 361.366 42.562,361.450 42.768,361.747 48.822 C 362.514 64.469,362.028 356.777,361.232 358.337 C 360.804 359.177,359.676 360.713,358.727 361.751 L 357.000 363.638 205.581 363.614 C 98.983 363.597,52.644 363.720,49.032 364.028 L 43.902 364.467 42.327 362.933 C 41.460 362.090,40.195 360.431,39.516 359.248 L 38.281 357.095 38.342 200.905 C 38.398 57.733,38.457 44.600,39.052 43.347 C 39.409 42.594,40.529 41.251,41.540 40.360 L 43.379 38.741 46.190 39.005 C 47.735 39.151,115.150 39.359,196.000 39.468 M221.400 62.020 C 212.205 62.592,206.350 64.371,203.679 67.405 C 200.751 70.731,197.235 72.910,192.094 74.583 C 189.230 75.515,186.488 77.437,184.934 79.600 C 183.142 82.094,182.121 83.081,179.765 84.597 C 177.008 86.371,174.945 89.003,173.769 92.246 C 172.415 95.980,170.788 98.361,167.802 100.983 C 163.472 104.785,163.078 105.947,161.575 119.379 C 161.131 123.350,160.612 127.590,160.423 128.800 C 159.937 131.913,161.547 156.824,162.608 162.600 C 162.931 164.360,163.307 166.459,163.443 167.264 C 163.747 169.059,165.418 171.145,168.199 173.199 C 170.629 174.994,173.229 178.662,174.221 181.695 C 175.703 186.221,177.513 188.708,181.132 191.187 C 181.864 191.689,183.361 193.333,184.457 194.840 C 186.862 198.147,188.823 199.881,192.118 201.612 C 195.992 203.647,197.702 205.220,198.488 207.469 C 199.477 210.301,200.531 211.110,204.122 211.798 C 210.097 212.941,217.902 217.489,217.414 219.543 C 215.642 227.021,198.802 225.623,195.000 217.683 C 193.669 214.904,190.939 213.727,183.200 212.596 C 172.621 211.051,165.941 208.695,162.349 205.243 C 159.207 202.224,155.538 200.835,147.000 199.430 C 140.950 198.434,136.817 196.191,133.839 192.287 C 132.281 190.245,128.823 188.645,123.295 187.410 C 116.446 185.881,112.155 183.584,109.377 179.961 C 108.939 179.390,106.965 177.780,104.990 176.384 C 100.666 173.326,96.487 170.029,95.416 168.829 C 94.984 168.346,93.429 167.059,91.959 165.970 C 90.490 164.880,88.678 163.227,87.933 162.295 C 86.335 160.295,84.400 157.346,84.399 156.909 C 84.398 156.739,83.711 155.803,82.871 154.829 L 81.343 153.058 79.841 154.435 C 77.400 156.671,76.426 161.807,76.016 174.600 C 75.525 189.889,74.174 194.078,69.447 194.965 C 64.777 195.841,62.010 203.024,62.757 212.331 C 63.037 215.806,63.328 219.787,63.405 221.177 C 63.645 225.483,64.351 226.381,67.509 226.395 C 69.535 226.403,71.791 230.088,72.112 233.915 C 72.561 239.270,73.658 240.529,78.628 241.393 C 82.799 242.117,84.013 243.209,83.005 245.333 C 81.932 247.594,81.733 247.636,78.000 246.377 C 76.130 245.747,73.297 245.019,71.704 244.761 C 68.319 244.212,68.490 244.374,66.685 240.000 C 65.914 238.130,64.734 235.430,64.063 234.000 C 63.392 232.570,62.651 230.654,62.417 229.741 C 61.938 227.873,61.514 227.620,58.400 227.340 C 56.104 227.133,54.614 228.030,52.981 230.600 C 50.546 234.434,49.940 254.442,51.963 264.200 C 52.419 266.400,52.794 268.360,52.796 268.555 C 52.798 268.750,54.825 270.910,57.300 273.355 C 59.778 275.803,62.764 279.238,63.944 281.000 C 67.745 286.672,71.617 287.916,87.600 288.596 C 96.149 288.960,103.054 290.850,110.854 294.963 C 116.304 297.838,121.845 298.857,142.600 300.802 C 156.346 302.091,161.368 303.443,167.194 307.424 C 170.112 309.418,173.983 310.904,178.515 311.771 C 183.028 312.635,189.222 316.231,191.080 319.066 C 191.441 319.617,193.816 321.807,196.358 323.934 C 198.901 326.060,202.195 328.942,203.679 330.337 L 206.376 332.875 212.488 333.213 C 224.281 333.867,227.877 331.428,229.264 321.833 C 229.789 318.200,228.838 313.736,226.439 308.575 C 225.103 305.699,225.459 304.838,228.420 303.793 C 230.844 302.938,231.269 303.027,232.949 304.748 L 234.461 306.296 233.990 311.848 C 233.289 320.119,233.508 321.863,235.627 324.837 C 236.499 326.063,239.834 327.997,241.087 328.004 C 241.961 328.009,249.591 330.697,253.366 332.328 C 261.033 335.643,265.329 327.852,264.466 312.200 C 264.050 304.652,264.504 302.984,267.290 301.820 C 268.741 301.214,268.790 301.223,269.821 302.301 C 272.553 305.158,272.691 305.631,272.969 313.056 C 273.445 325.748,275.191 328.640,283.678 330.790 C 285.285 331.198,288.212 331.994,290.182 332.561 L 293.765 333.592 294.934 332.496 C 298.002 329.620,299.872 325.360,301.370 317.833 C 302.504 312.137,303.557 309.374,305.193 307.806 L 306.328 306.719 306.944 307.659 C 308.147 309.496,309.890 313.848,310.766 317.200 C 313.155 326.338,314.161 328.677,317.178 332.114 L 318.483 333.600 325.010 333.600 L 331.538 333.600 333.141 331.724 C 340.507 323.107,339.715 299.020,331.814 291.400 C 328.756 288.451,326.891 284.769,325.433 278.800 C 324.070 273.223,322.593 270.336,319.632 267.459 C 316.768 264.676,314.845 261.875,312.969 257.760 C 311.143 253.754,309.942 252.254,307.385 250.791 C 304.185 248.960,301.487 246.329,300.054 243.641 C 298.476 240.680,296.946 239.113,294.037 237.479 C 291.177 235.872,288.522 233.211,286.903 230.331 C 285.463 227.768,284.269 226.766,280.047 224.577 C 277.103 223.050,273.886 220.229,271.257 216.868 C 269.927 215.168,263.190 211.511,257.471 209.386 C 256.152 208.896,255.077 208.098,254.071 206.862 C 250.565 202.553,249.141 201.434,245.393 200.042 C 240.472 198.216,237.102 195.968,234.698 192.909 C 232.172 189.694,228.127 187.673,220.064 185.597 C 218.047 185.078,215.096 182.548,214.000 180.400 C 212.979 178.398,210.007 175.771,207.507 174.659 C 203.475 172.866,201.958 170.819,200.055 164.600 C 198.771 160.404,197.349 157.799,194.704 154.800 C 186.128 145.079,186.644 126.769,195.762 117.197 C 198.843 113.963,200.282 111.702,201.652 107.946 C 202.808 104.774,205.060 102.761,208.495 101.828 C 216.395 99.681,224.765 96.616,227.834 94.744 L 231.069 92.773 237.404 91.987 L 243.740 91.201 247.770 92.262 C 249.987 92.846,253.812 94.285,256.271 95.462 C 258.729 96.638,262.239 97.974,264.071 98.431 C 280.667 102.573,282.749 103.463,285.356 107.531 C 287.319 110.594,288.821 111.992,291.737 113.470 C 295.801 115.529,297.426 117.370,298.385 121.000 C 301.207 131.688,304.757 135.416,315.391 138.858 C 319.589 140.217,321.913 141.878,323.231 144.461 C 325.191 148.302,327.796 150.269,333.272 152.045 C 337.528 153.424,339.040 154.267,341.708 156.749 L 343.616 158.524 344.604 157.596 C 347.004 155.342,349.572 145.084,348.585 141.691 C 347.640 138.439,345.764 134.448,344.352 132.685 C 343.316 131.392,342.942 130.217,341.807 124.685 C 338.526 108.688,335.392 104.279,322.286 97.223 C 318.745 95.317,315.600 92.490,315.600 91.213 C 315.600 90.546,310.980 86.461,308.707 85.119 C 304.903 82.873,304.509 82.532,303.031 80.222 C 301.233 77.411,299.171 76.060,293.612 74.053 C 288.545 72.224,286.007 70.704,282.995 67.697 C 277.770 62.480,252.078 60.112,221.400 62.020 M263.445 64.806 C 272.416 65.958,277.210 67.777,283.115 72.271 C 285.197 73.856,287.714 75.002,291.298 75.998 C 296.201 77.361,297.935 78.593,301.914 83.544 C 302.636 84.443,304.526 86.012,306.114 87.029 C 309.640 89.290,311.524 91.055,313.799 94.230 C 315.785 97.001,316.869 97.887,321.538 100.557 C 333.272 107.266,336.445 111.822,338.260 124.567 C 339.288 131.786,340.001 133.807,342.697 137.128 C 344.333 139.144,346.099 142.632,346.100 143.848 C 346.100 144.783,344.047 151.200,343.747 151.200 C 343.644 151.200,343.068 150.945,342.465 150.634 C 340.966 149.859,335.660 148.800,333.274 148.800 C 330.685 148.800,328.264 146.982,325.728 143.133 C 323.549 139.825,321.262 138.020,317.400 136.558 C 307.563 132.836,304.839 130.173,301.330 120.851 C 299.377 115.664,298.058 114.023,293.409 111.001 C 290.010 108.790,289.061 107.890,287.656 105.539 C 285.399 101.763,283.296 100.585,274.151 97.975 C 265.791 95.589,263.449 94.677,260.110 92.509 C 251.020 86.609,232.006 86.734,222.634 92.756 C 219.690 94.648,216.160 96.197,209.851 98.369 C 202.983 100.732,201.532 101.966,198.283 108.200 C 197.131 110.410,195.622 112.427,193.407 114.720 C 187.733 120.593,186.233 125.226,186.364 136.479 C 186.489 147.191,188.371 153.374,193.068 158.500 C 195.514 161.169,197.244 164.243,198.562 168.260 C 199.876 172.265,202.134 174.852,206.000 176.784 C 207.894 177.730,211.600 181.058,211.600 181.813 C 211.600 183.740,216.158 187.093,221.317 188.960 C 227.165 191.077,231.244 193.307,232.376 195.006 C 234.194 197.736,238.000 200.239,242.642 201.758 C 245.730 202.768,248.173 204.507,250.235 207.162 C 252.542 210.133,253.937 211.108,259.663 213.754 C 266.328 216.834,268.335 218.101,269.964 220.255 C 272.003 222.953,275.635 225.760,278.751 227.048 C 281.915 228.354,283.728 229.927,285.050 232.514 C 286.491 235.335,288.583 237.443,291.558 239.074 C 295.034 240.980,296.621 242.505,298.048 245.312 C 299.613 248.390,301.600 250.518,304.341 252.053 C 307.957 254.078,309.007 255.314,310.600 259.427 C 312.339 263.916,314.206 266.869,317.718 270.687 C 320.648 273.873,321.864 275.998,323.162 280.200 C 325.617 288.147,326.222 289.737,327.457 291.492 C 333.144 299.575,334.308 302.883,335.630 314.724 C 336.155 319.434,335.646 321.574,332.919 326.110 L 331.531 328.419 324.920 328.310 L 318.310 328.200 316.774 325.659 C 315.082 322.860,314.168 320.227,312.795 314.200 C 311.198 307.191,308.482 302.028,305.463 300.258 C 303.471 299.091,303.013 298.313,302.196 294.706 C 299.684 283.623,297.449 279.050,293.439 276.787 C 290.372 275.057,289.216 273.647,288.375 270.611 C 287.149 266.190,284.438 263.301,279.935 261.616 C 277.246 260.610,276.738 260.083,275.035 256.528 C 273.275 252.857,270.865 250.729,267.132 249.551 C 263.806 248.501,261.574 246.976,260.217 244.828 C 257.881 241.126,252.997 237.797,246.502 235.478 C 242.175 233.933,241.969 233.772,239.985 230.374 C 237.545 226.196,234.958 224.402,229.856 223.349 C 225.856 222.524,223.801 221.436,222.403 219.404 C 219.655 215.410,215.022 212.413,208.477 210.395 C 204.002 209.015,202.964 208.250,199.914 204.082 C 198.787 202.541,197.609 201.595,195.033 200.161 C 190.957 197.891,188.041 195.423,186.669 193.082 C 185.724 191.469,183.669 189.422,180.865 187.302 C 179.369 186.170,177.433 183.269,176.564 180.856 C 174.527 175.199,172.587 172.400,169.102 170.090 C 165.444 167.664,163.494 155.494,163.129 132.800 C 163.019 125.942,164.251 116.011,166.068 109.113 C 166.855 106.125,166.974 105.942,169.794 103.419 C 172.731 100.790,173.626 99.398,176.151 93.530 C 177.317 90.822,179.821 87.995,182.666 86.175 C 183.806 85.446,185.449 83.887,186.318 82.711 C 189.003 79.076,192.011 76.873,195.200 76.204 C 198.171 75.581,202.413 73.254,204.914 70.874 C 208.722 67.251,214.895 65.114,223.400 64.476 C 233.346 63.729,256.546 63.920,263.445 64.806 M86.347 168.478 C 88.144 170.093,91.879 172.000,93.242 172.000 C 93.469 172.000,94.621 172.788,95.803 173.750 C 96.985 174.713,99.805 176.738,102.070 178.250 C 104.335 179.763,106.545 181.450,106.981 182.000 C 109.796 185.550,112.311 186.985,119.249 189.000 C 126.210 191.022,129.321 192.578,132.350 195.551 C 135.702 198.842,137.658 199.752,145.753 201.794 C 153.849 203.836,156.511 204.935,159.088 207.300 C 163.009 210.899,165.964 212.052,176.714 214.177 C 185.411 215.896,187.110 216.591,192.496 220.632 C 198.158 224.881,201.892 226.436,208.800 227.423 C 211.837 227.856,213.701 228.950,217.016 232.244 C 220.558 235.763,223.202 237.336,228.400 239.015 C 232.413 240.311,234.029 241.404,235.001 243.477 C 237.072 247.894,239.778 250.138,244.800 251.603 C 248.786 252.766,250.223 253.707,251.820 256.204 C 253.416 258.700,255.166 260.248,257.600 261.318 C 263.180 263.772,267.437 267.479,275.466 276.876 C 278.415 280.328,281.410 283.512,282.120 283.951 C 284.458 285.395,285.945 288.035,286.802 292.262 C 287.918 297.771,291.565 302.668,295.375 303.776 C 298.754 304.758,298.800 304.874,298.800 312.365 C 298.800 320.751,295.842 328.937,293.058 328.256 C 292.586 328.140,289.770 327.553,286.800 326.951 C 277.836 325.133,276.232 322.983,275.825 312.241 C 275.499 303.616,273.972 300.622,268.400 297.683 C 266.286 296.567,266.114 296.351,264.000 292.115 C 260.039 284.181,252.651 276.507,245.600 273.002 C 242.713 271.567,242.254 271.127,241.022 268.608 C 238.408 263.266,234.253 261.125,225.800 260.764 C 218.372 260.446,217.600 260.072,217.600 256.783 C 217.600 255.503,213.085 251.793,209.932 250.483 C 207.379 249.423,206.198 249.207,200.800 248.814 C 188.155 247.893,186.124 247.340,185.446 244.640 C 185.290 244.021,184.073 242.877,182.091 241.488 C 175.203 236.662,172.086 235.805,162.521 236.110 C 154.578 236.364,154.057 236.170,153.163 232.620 C 151.828 227.316,143.331 224.203,126.497 222.850 C 121.583 222.455,120.269 221.928,119.829 220.175 C 118.597 215.266,111.107 211.327,102.000 210.798 C 95.604 210.427,93.804 209.905,93.192 208.244 C 91.627 203.997,89.086 200.058,85.504 196.326 C 79.688 190.269,77.361 177.409,80.039 166.132 C 81.136 161.509,81.065 161.557,82.776 164.261 C 83.590 165.547,85.197 167.445,86.347 168.478 M83.921 199.540 C 89.064 205.516,89.527 206.764,87.391 208.900 C 83.817 212.474,79.013 211.922,76.159 207.610 C 74.170 204.604,75.788 198.391,78.837 197.323 C 81.098 196.530,81.470 196.693,83.921 199.540 M69.883 200.900 C 71.010 202.132,71.736 203.695,72.739 207.048 C 74.100 211.597,76.181 213.179,82.041 214.122 C 86.316 214.809,88.171 215.682,88.852 217.325 C 90.949 222.387,100.374 226.762,109.245 226.791 C 114.862 226.810,118.000 228.118,118.000 230.441 C 118.000 231.618,121.555 234.964,124.250 236.324 C 128.401 238.419,130.366 238.800,137.018 238.800 C 146.206 238.800,148.605 239.466,150.085 242.428 C 152.770 247.800,161.504 251.196,173.400 251.492 C 181.931 251.705,181.775 251.651,182.444 254.641 C 182.831 256.371,183.280 257.141,184.626 258.381 C 188.263 261.734,191.259 262.701,200.200 263.409 C 211.705 264.321,214.800 265.310,214.800 268.076 C 214.800 270.201,222.304 274.725,228.600 276.395 C 234.065 277.845,235.144 278.561,236.596 281.698 C 237.757 284.206,240.217 286.367,243.795 288.020 C 246.832 289.424,248.794 291.042,248.804 292.154 C 248.827 294.793,253.129 299.999,256.698 301.705 C 260.061 303.313,260.756 304.498,261.222 309.421 C 262.167 319.411,261.692 322.244,258.379 326.367 C 256.581 328.604,256.710 328.609,249.514 326.028 C 239.162 322.316,238.219 321.204,237.792 312.194 C 237.429 304.556,235.803 301.787,230.510 299.799 C 227.705 298.745,226.627 297.851,225.835 295.924 C 223.243 289.618,221.365 288.022,215.303 286.981 C 207.938 285.716,205.628 284.532,203.637 281.005 C 202.219 278.492,199.541 276.484,195.975 275.259 C 190.447 273.360,171.754 272.498,169.303 274.028 C 168.020 274.830,166.728 273.445,166.192 270.693 C 165.673 268.033,163.995 266.940,156.313 264.260 C 147.675 261.247,137.267 260.412,120.672 261.402 C 118.492 261.532,118.475 261.511,118.264 258.420 C 117.962 254.017,110.786 250.605,97.600 248.594 C 90.353 247.489,89.218 246.897,86.669 242.897 C 85.497 241.056,83.193 239.195,80.512 237.924 C 78.024 236.744,76.286 234.564,74.865 230.845 C 73.417 227.052,72.029 224.911,69.422 222.448 C 66.790 219.962,66.554 219.310,65.788 212.375 L 65.101 206.168 66.208 203.984 C 67.571 201.291,68.404 200.000,68.776 200.000 C 68.933 200.000,69.431 200.405,69.883 200.900 M109.158 214.612 C 111.567 215.734,115.200 218.271,115.200 218.833 C 115.200 220.696,109.596 224.035,106.415 224.067 C 104.274 224.088,97.992 221.559,95.069 219.499 L 93.938 218.702 95.269 217.303 C 98.431 213.981,105.047 212.699,109.158 214.612 M138.211 227.231 C 151.369 230.188,150.568 234.164,136.483 235.805 L 131.223 236.418 128.711 235.261 C 122.884 232.577,121.961 231.239,124.314 228.886 C 127.380 225.820,130.356 225.466,138.211 227.231 M232.714 226.670 C 239.084 230.602,239.770 236.911,233.851 237.130 C 230.116 237.267,220.796 232.939,220.801 231.069 C 220.813 227.599,229.201 224.502,232.714 226.670 M60.006 237.700 C 64.316 246.198,65.044 246.942,70.958 248.883 C 76.442 250.683,81.093 253.523,82.126 255.701 C 83.360 258.301,85.918 260.716,89.106 262.291 L 92.160 263.800 104.380 263.800 C 118.139 263.800,117.427 263.657,117.698 266.477 C 118.317 272.921,136.385 277.847,153.000 276.101 C 160.145 275.350,163.441 276.300,164.451 279.401 C 164.994 281.068,165.397 281.566,166.877 282.400 C 167.854 282.950,169.155 283.801,169.769 284.291 C 173.406 287.195,178.406 288.591,187.379 289.211 C 191.107 289.469,194.617 289.853,195.179 290.064 C 196.403 290.526,198.800 292.761,198.800 293.441 C 198.800 295.019,203.879 298.332,209.524 300.437 C 217.279 303.329,222.334 308.566,225.403 316.886 C 226.457 319.745,224.004 324.902,220.405 327.396 L 218.854 328.472 212.536 328.178 L 206.218 327.884 201.422 323.842 C 198.784 321.619,195.231 318.458,193.525 316.817 C 189.192 312.650,186.223 310.934,180.283 309.165 C 176.675 308.091,173.576 306.723,171.905 305.468 C 166.967 301.759,159.540 299.708,147.800 298.811 C 142.520 298.408,133.480 297.019,124.000 295.155 C 121.075 294.580,118.707 293.800,116.200 292.588 C 108.481 288.854,98.730 286.655,87.200 286.048 C 74.392 285.374,69.080 283.656,66.512 279.358 C 64.468 275.937,61.916 272.939,58.814 270.315 C 56.997 268.779,56.289 267.861,55.831 266.450 C 52.341 255.697,52.272 243.059,55.647 232.500 C 56.283 230.509,56.477 230.740,60.006 237.700 M246.975 238.950 C 254.164 242.272,255.727 244.115,253.820 247.025 C 252.449 249.118,244.346 249.543,241.746 247.660 C 238.713 245.462,237.951 244.194,238.048 241.500 C 238.204 237.180,241.257 236.308,246.975 238.950 M170.450 238.615 C 172.747 239.421,176.669 241.465,178.296 242.703 L 179.591 243.688 178.753 244.866 C 174.981 250.163,166.098 250.259,158.416 245.085 L 156.421 243.742 157.911 242.291 C 159.942 240.311,164.264 238.565,168.450 238.032 C 168.587 238.014,169.487 238.277,170.450 238.615 M101.055 252.210 C 106.007 253.441,111.600 255.646,111.600 256.367 C 111.600 257.586,106.499 259.703,101.484 260.567 C 93.401 261.958,92.925 261.884,88.299 258.515 C 84.481 255.734,85.798 251.961,90.930 250.981 C 93.782 250.437,94.046 250.469,101.055 252.210 M208.000 252.679 C 209.688 253.438,213.200 255.942,213.200 256.386 C 213.200 257.311,209.906 259.980,208.153 260.475 C 203.141 261.891,192.321 260.000,188.641 257.065 L 187.512 256.165 188.640 254.826 C 191.314 251.647,202.859 250.367,208.000 252.679 M270.511 254.732 C 271.741 255.914,271.984 256.391,271.811 257.292 C 271.695 257.902,271.499 258.926,271.375 259.568 C 270.829 262.408,269.272 263.162,267.072 261.654 C 264.711 260.036,261.432 258.428,258.404 257.406 L 255.809 256.529 255.943 254.964 C 256.017 254.104,256.138 253.302,256.212 253.181 C 256.286 253.061,259.194 253.034,262.673 253.121 L 269.000 253.279 270.511 254.732 M147.036 264.222 C 150.985 265.366,156.906 268.267,156.691 268.953 C 156.031 271.059,148.618 273.798,143.600 273.790 C 137.837 273.781,126.784 270.908,125.208 269.009 C 123.611 267.085,131.827 264.344,141.800 263.474 C 142.680 263.397,143.425 263.304,143.455 263.267 C 143.486 263.230,145.097 263.660,147.036 264.222 M234.301 265.105 C 237.995 267.521,238.837 269.852,237.019 272.627 C 235.043 275.643,227.602 274.355,221.674 269.969 L 219.948 268.692 221.274 267.296 C 222.881 265.603,225.387 264.404,228.600 263.791 C 231.389 263.258,231.526 263.289,234.301 265.105 M283.302 266.808 C 285.608 269.114,284.943 274.850,282.157 276.671 C 281.281 277.244,274.000 269.776,274.000 268.303 C 274.000 265.263,280.683 264.189,283.302 266.808 M188.200 276.625 C 198.589 277.976,202.442 281.969,196.371 285.094 C 193.469 286.587,182.301 286.909,178.802 285.601 C 176.142 284.606,171.600 281.855,171.600 281.239 C 171.600 279.133,178.810 275.369,182.000 275.811 C 182.550 275.887,185.340 276.254,188.200 276.625 M246.322 277.590 C 250.601 280.577,251.015 281.028,250.584 282.241 C 248.722 287.470,238.177 284.739,239.649 279.409 C 240.648 275.790,242.873 275.183,246.322 277.590 M296.341 287.355 L 298.549 293.711 297.574 295.547 C 297.038 296.557,295.970 297.805,295.200 298.321 L 293.800 299.259 292.670 297.929 C 289.957 294.738,289.550 292.603,290.421 286.129 C 290.973 282.016,291.114 281.612,292.135 281.195 C 293.830 280.502,294.097 280.892,296.341 287.355 M259.644 291.107 C 261.792 294.352,261.435 295.983,258.229 297.575 L 256.267 298.549 254.333 296.447 C 251.509 293.376,251.745 288.782,254.812 287.138 L 256.175 286.407 257.080 287.503 C 257.577 288.106,258.731 289.728,259.644 291.107 M220.436 292.235 C 222.107 293.867,222.154 294.343,220.931 297.254 C 219.962 299.559,219.018 299.829,216.236 298.599 C 214.944 298.028,212.125 297.134,209.971 296.612 C 204.581 295.307,203.063 294.185,204.259 292.389 C 205.629 290.331,205.751 290.304,212.546 290.523 L 218.892 290.728 220.436 292.235 " stroke="none" fill="#8198c2" fill-rule="evenodd"></path><path id="path2" d="M42.431 42.574 L 41.248 43.800 41.001 140.400 C 40.597 298.326,40.791 356.048,41.729 357.863 C 43.113 360.538,43.219 360.564,50.892 360.021 C 58.755 359.466,353.361 359.600,355.239 360.160 C 356.140 360.429,356.447 360.255,357.563 358.847 L 358.848 357.224 358.891 200.587 L 358.935 43.950 357.698 42.714 L 356.462 41.477 350.731 42.145 C 341.627 43.205,57.340 43.123,49.107 42.058 L 43.614 41.347 42.431 42.574 M265.048 59.203 C 282.810 59.944,286.966 61.323,288.479 66.979 C 289.118 69.367,292.016 71.071,296.368 71.617 C 302.667 72.407,306.852 75.061,309.308 79.822 C 309.785 80.747,310.695 81.539,312.094 82.248 C 313.236 82.827,315.372 84.493,316.840 85.950 C 318.308 87.408,320.158 89.101,320.951 89.714 C 321.744 90.327,322.779 91.497,323.251 92.314 C 324.235 94.016,330.283 97.657,333.452 98.455 C 335.844 99.057,338.066 101.202,338.992 103.800 C 339.384 104.900,340.372 107.510,341.188 109.600 C 342.003 111.690,342.911 114.210,343.204 115.200 C 343.498 116.190,344.124 117.450,344.596 118.000 C 346.511 120.231,347.829 123.322,349.460 129.400 C 349.991 131.380,350.808 134.350,351.275 136.000 C 354.209 146.367,351.249 160.393,345.405 163.818 L 343.694 164.821 341.024 163.852 C 337.461 162.558,335.324 160.429,334.569 157.417 C 334.239 156.103,332.287 155.087,328.810 154.421 C 323.925 153.484,321.354 151.367,320.179 147.315 C 318.984 143.190,319.141 143.364,315.932 142.640 C 307.519 140.743,301.120 138.150,299.538 136.000 C 298.716 134.882,295.989 126.120,295.048 121.573 C 294.413 118.503,293.758 117.600,292.166 117.600 C 288.273 117.600,283.338 114.488,282.169 111.296 C 280.170 105.839,275.814 103.777,264.200 102.790 C 256.062 102.098,249.155 100.939,246.258 99.779 L 243.631 98.727 239.915 99.570 C 234.413 100.819,224.530 102.400,222.232 102.400 C 221.126 102.400,217.697 103.017,214.611 103.770 C 211.525 104.524,208.297 105.292,207.438 105.476 L 205.875 105.812 204.957 109.273 C 203.998 112.884,202.002 117.704,201.280 118.150 C 201.050 118.293,200.737 118.976,200.585 119.670 C 200.231 121.278,196.993 124.542,195.145 125.152 C 194.139 125.484,193.537 126.039,193.023 127.108 C 191.334 130.620,191.283 131.056,191.816 137.600 C 192.412 144.918,192.943 146.515,195.082 147.409 C 199.769 149.367,201.930 153.771,203.465 164.490 C 204.298 170.314,204.703 170.811,209.359 171.741 C 214.278 172.724,216.776 175.005,217.433 179.116 C 217.813 181.494,218.299 181.944,221.000 182.419 C 232.708 184.478,237.537 186.992,239.058 191.817 C 240.005 194.823,242.252 196.310,246.674 196.859 C 252.558 197.590,256.001 199.942,258.646 205.037 C 259.116 205.942,259.839 206.471,261.344 207.009 C 262.475 207.414,264.664 208.319,266.208 209.020 C 267.753 209.722,269.620 210.429,270.358 210.591 C 273.547 211.291,275.775 213.676,276.770 217.453 C 277.288 219.419,280.361 221.775,283.000 222.231 C 287.192 222.954,289.500 225.231,290.429 229.559 C 290.943 231.956,293.297 234.397,295.101 234.404 C 298.962 234.418,303.200 238.985,303.200 243.133 C 303.200 244.137,305.977 246.698,307.400 247.006 C 312.241 248.052,314.216 250.023,315.384 254.972 C 316.180 258.345,318.362 261.317,320.452 261.876 C 325.782 263.302,327.469 266.470,328.399 276.800 C 328.992 283.378,329.949 285.305,333.221 286.502 C 339.958 288.968,340.751 291.848,340.899 314.400 C 341.044 336.480,339.096 339.588,325.111 339.596 C 312.596 339.603,310.186 337.111,308.831 322.753 C 308.472 318.945,307.358 314.832,306.427 313.875 C 305.695 313.124,304.068 318.658,303.449 324.000 C 301.981 336.677,299.040 339.985,289.712 339.454 C 283.839 339.119,274.873 337.804,271.600 336.798 L 269.000 335.998 266.550 337.234 C 261.372 339.845,253.702 340.185,246.600 338.120 C 242.997 337.072,235.940 337.367,225.600 338.996 C 219.711 339.923,206.997 339.831,204.733 338.844 C 202.445 337.847,200.671 335.881,199.729 333.299 C 198.815 330.793,195.480 327.704,192.004 326.145 C 188.727 324.674,187.021 322.717,186.265 319.562 C 185.648 316.987,182.494 315.756,175.185 315.237 C 163.993 314.441,160.291 312.892,158.027 308.058 C 157.172 306.231,156.924 306.015,155.244 305.624 C 150.384 304.493,143.577 303.654,137.400 303.425 C 104.833 302.218,103.642 301.937,99.560 294.510 C 98.359 292.323,94.622 291.730,76.330 290.822 C 64.392 290.229,62.214 289.202,60.409 283.308 C 59.486 280.292,57.515 277.750,55.200 276.585 C 48.918 273.427,47.672 268.959,47.621 249.400 C 47.571 230.629,48.630 226.828,54.862 223.393 C 59.574 220.796,59.641 220.619,59.348 211.447 C 58.887 196.980,60.520 191.892,66.618 188.792 C 69.190 187.485,69.494 187.189,70.645 184.886 L 71.890 182.394 72.093 169.497 C 72.316 155.268,72.630 153.304,75.096 150.676 C 79.900 145.555,86.698 147.492,88.995 154.635 C 89.884 157.399,92.751 160.612,95.358 161.765 C 97.785 162.838,99.779 164.969,100.449 167.205 C 100.988 169.006,105.142 172.480,107.407 173.025 C 110.731 173.825,113.293 176.053,114.244 178.970 C 115.415 182.562,116.894 183.423,122.891 184.006 C 135.001 185.184,138.114 186.820,139.376 192.669 C 139.874 194.975,143.334 196.256,150.452 196.769 C 162.231 197.618,165.602 198.962,168.803 204.090 L 170.200 206.329 174.600 207.645 C 180.919 209.536,187.696 209.630,192.686 207.896 C 194.875 207.136,194.880 205.853,192.695 205.383 C 188.809 204.547,183.560 201.031,182.163 198.328 C 181.846 197.715,181.005 196.913,180.293 196.546 C 175.381 194.011,172.540 189.913,171.634 184.057 C 170.970 179.760,169.658 178.008,166.363 177.021 C 160.979 175.409,159.806 172.920,159.201 161.821 C 158.979 157.744,158.348 149.252,157.799 142.952 L 156.802 131.497 157.792 125.648 C 158.337 122.432,158.962 116.549,159.181 112.576 C 159.812 101.128,161.180 98.121,166.510 96.467 C 169.396 95.570,169.955 94.791,170.671 90.656 C 171.454 86.139,172.699 83.587,174.855 82.083 C 175.815 81.413,176.960 80.306,177.400 79.624 C 177.840 78.941,178.885 77.905,179.723 77.321 C 180.560 76.737,181.622 75.730,182.083 75.084 C 183.270 73.416,186.342 72.133,190.511 71.563 C 195.347 70.902,197.421 69.563,198.475 66.418 C 200.278 61.043,203.651 59.786,217.800 59.216 C 228.724 58.776,254.654 58.769,265.048 59.203 M79.619 204.074 L 78.392 206.200 79.808 207.516 L 81.223 208.832 82.438 208.116 C 84.901 206.665,84.954 206.372,83.150 204.180 C 81.024 201.598,81.048 201.598,79.619 204.074 M204.097 215.540 C 202.885 215.889,200.400 217.908,200.400 218.544 C 200.400 218.824,201.525 219.727,202.900 220.551 C 205.872 222.332,207.414 222.325,210.340 220.516 C 212.790 219.001,212.694 218.509,209.602 216.711 C 207.074 215.241,205.958 215.004,204.097 215.540 M104.000 216.890 C 99.895 218.430,99.861 218.573,103.212 220.179 L 106.155 221.589 108.178 220.447 C 110.701 219.022,110.704 218.577,108.200 217.180 L 106.200 216.064 104.000 216.890 M129.300 229.856 C 127.156 231.149,127.173 231.376,129.500 232.522 C 131.571 233.541,131.424 233.545,136.528 232.334 C 140.715 231.340,140.632 231.167,135.328 229.828 C 130.521 228.615,131.366 228.611,129.300 229.856 M228.300 229.826 C 225.907 231.072,225.924 231.269,228.549 232.771 C 231.242 234.312,231.548 234.304,233.142 232.660 L 234.441 231.319 233.007 230.060 C 231.296 228.558,230.785 228.533,228.300 229.826 M166.290 241.619 C 161.676 243.492,161.682 243.814,166.360 245.783 L 168.918 246.860 171.478 245.560 C 174.831 243.859,174.829 243.879,171.870 242.224 C 168.947 240.589,168.852 240.579,166.290 241.619 M242.236 242.031 C 240.941 243.569,240.943 243.604,242.406 245.006 L 243.612 246.161 245.813 245.413 C 249.491 244.163,249.437 243.757,245.316 241.658 C 243.230 240.595,243.468 240.566,242.236 242.031 M91.394 254.931 L 89.854 256.261 91.791 257.594 L 93.728 258.927 97.364 258.038 C 104.035 256.407,104.061 256.355,98.985 254.874 C 93.554 253.290,93.289 253.292,91.394 254.931 M200.000 255.259 C 190.676 255.809,190.711 256.507,200.096 257.176 C 205.787 257.581,206.490 257.560,207.415 256.953 L 208.440 256.282 207.320 255.544 C 206.704 255.138,206.110 254.830,206.000 254.861 C 205.890 254.892,203.190 255.071,200.000 255.259 M141.200 266.468 C 136.901 267.383,133.169 268.529,133.479 268.839 C 133.664 269.024,136.051 269.710,138.783 270.364 L 143.750 271.552 146.875 270.347 C 148.594 269.684,150.000 268.995,150.000 268.816 C 150.000 268.464,144.060 265.966,143.400 266.041 C 143.180 266.065,142.190 266.258,141.200 266.468 M228.500 267.183 C 225.410 268.645,225.411 268.727,228.553 270.405 L 231.105 271.769 232.753 270.679 C 234.783 269.335,234.807 268.794,232.909 267.229 C 231.110 265.746,231.529 265.750,228.500 267.183 M178.700 279.877 C 176.316 281.204,176.326 281.282,179.011 282.553 C 181.656 283.805,181.591 283.804,188.372 282.806 C 196.480 281.613,196.482 281.180,188.392 279.785 C 181.341 278.569,181.045 278.572,178.700 279.877 M243.269 281.064 C 243.347 281.469,243.678 281.800,244.005 281.800 C 244.863 281.800,244.739 280.638,243.864 280.469 C 243.329 280.366,243.166 280.529,243.269 281.064 M255.822 292.765 C 255.240 293.705,256.009 294.962,256.727 294.245 C 257.317 293.654,257.318 293.546,256.733 292.962 C 256.295 292.524,256.009 292.462,255.822 292.765 M293.505 293.121 C 293.378 293.604,293.426 294.092,293.610 294.206 C 294.119 294.521,294.334 293.894,294.017 293.021 C 293.748 292.281,293.723 292.286,293.505 293.121 M268.275 305.858 C 267.897 306.236,267.971 320.220,268.362 322.200 C 269.000 325.438,269.400 322.296,269.400 314.035 C 269.400 306.311,269.209 304.924,268.275 305.858 " stroke="none" fill="#11398f" fill-rule="evenodd"></path><path id="path3" d="M41.540 40.360 C 40.529 41.251,39.409 42.594,39.052 43.347 C 38.457 44.600,38.398 57.733,38.342 200.905 L 38.281 357.095 39.516 359.248 C 40.195 360.431,41.460 362.090,42.327 362.933 L 43.902 364.467 49.032 364.028 C 52.644 363.720,98.983 363.597,205.581 363.614 L 357.000 363.638 358.727 361.751 C 359.676 360.713,360.804 359.177,361.232 358.337 C 362.028 356.777,362.514 64.469,361.747 48.822 C 361.450 42.768,361.366 42.562,358.201 40.096 L 356.391 38.686 349.695 39.176 C 342.493 39.704,51.887 39.541,46.190 39.005 L 43.379 38.741 41.540 40.360 M199.800 42.790 C 332.906 42.810,345.477 42.756,350.731 42.145 L 356.462 41.477 357.698 42.714 L 358.935 43.950 358.891 200.587 L 358.848 357.224 357.563 358.847 C 356.447 360.255,356.140 360.429,355.239 360.160 C 353.361 359.600,58.755 359.466,50.892 360.021 C 43.219 360.564,43.113 360.538,41.729 357.863 C 40.791 356.048,40.597 298.326,41.001 140.400 L 41.248 43.800 42.431 42.574 L 43.614 41.347 49.107 42.058 C 54.279 42.727,63.092 42.770,199.800 42.790 M217.800 59.216 C 203.651 59.786,200.278 61.043,198.475 66.418 C 197.421 69.563,195.347 70.902,190.511 71.563 C 186.342 72.133,183.270 73.416,182.083 75.084 C 181.622 75.730,180.560 76.737,179.723 77.321 C 178.885 77.905,177.840 78.941,177.400 79.624 C 176.960 80.306,175.815 81.413,174.855 82.083 C 172.699 83.587,171.454 86.139,170.671 90.656 C 169.955 94.791,169.396 95.570,166.510 96.467 C 161.180 98.121,159.812 101.128,159.181 112.576 C 158.962 116.549,158.337 122.432,157.792 125.648 L 156.802 131.497 157.799 142.952 C 158.348 149.252,158.979 157.744,159.201 161.821 C 159.806 172.920,160.979 175.409,166.363 177.021 C 169.658 178.008,170.970 179.760,171.634 184.057 C 172.540 189.913,175.381 194.011,180.293 196.546 C 181.005 196.913,181.846 197.715,182.163 198.328 C 183.560 201.031,188.809 204.547,192.695 205.383 C 194.880 205.853,194.875 207.136,192.686 207.896 C 187.696 209.630,180.919 209.536,174.600 207.645 L 170.200 206.329 168.803 204.090 C 165.602 198.962,162.231 197.618,150.452 196.769 C 143.334 196.256,139.874 194.975,139.376 192.669 C 138.114 186.820,135.001 185.184,122.891 184.006 C 116.894 183.423,115.415 182.562,114.244 178.970 C 113.293 176.053,110.731 173.825,107.407 173.025 C 105.142 172.480,100.988 169.006,100.449 167.205 C 99.779 164.969,97.785 162.838,95.358 161.765 C 92.751 160.612,89.884 157.399,88.995 154.635 C 86.698 147.492,79.900 145.555,75.096 150.676 C 72.630 153.304,72.316 155.268,72.093 169.497 L 71.890 182.394 70.645 184.886 C 69.494 187.189,69.190 187.485,66.618 188.792 C 60.520 191.892,58.887 196.980,59.348 211.447 C 59.641 220.619,59.574 220.796,54.862 223.393 C 48.630 226.828,47.571 230.629,47.621 249.400 C 47.672 268.959,48.918 273.427,55.200 276.585 C 57.515 277.750,59.486 280.292,60.409 283.308 C 62.214 289.202,64.392 290.229,76.330 290.822 C 94.622 291.730,98.359 292.323,99.560 294.510 C 103.642 301.937,104.833 302.218,137.400 303.425 C 143.577 303.654,150.384 304.493,155.244 305.624 C 156.924 306.015,157.172 306.231,158.027 308.058 C 160.291 312.892,163.993 314.441,175.185 315.237 C 182.494 315.756,185.648 316.987,186.265 319.562 C 187.021 322.717,188.727 324.674,192.004 326.145 C 195.480 327.704,198.815 330.793,199.729 333.299 C 200.671 335.881,202.445 337.847,204.733 338.844 C 206.997 339.831,219.711 339.923,225.600 338.996 C 235.940 337.367,242.997 337.072,246.600 338.120 C 253.702 340.185,261.372 339.845,266.550 337.234 L 269.000 335.998 271.600 336.798 C 274.873 337.804,283.839 339.119,289.712 339.454 C 299.040 339.985,301.981 336.677,303.449 324.000 C 304.068 318.658,305.695 313.124,306.427 313.875 C 307.358 314.832,308.472 318.945,308.831 322.753 C 310.186 337.111,312.596 339.603,325.111 339.596 C 339.096 339.588,341.044 336.480,340.899 314.400 C 340.751 291.848,339.958 288.968,333.221 286.502 C 329.949 285.305,328.992 283.378,328.399 276.800 C 327.469 266.470,325.782 263.302,320.452 261.876 C 318.362 261.317,316.180 258.345,315.384 254.972 C 314.216 250.023,312.241 248.052,307.400 247.006 C 305.977 246.698,303.200 244.137,303.200 243.133 C 303.200 238.985,298.962 234.418,295.101 234.404 C 293.297 234.397,290.943 231.956,290.429 229.559 C 289.500 225.231,287.192 222.954,283.000 222.231 C 280.361 221.775,277.288 219.419,276.770 217.453 C 275.775 213.676,273.547 211.291,270.358 210.591 C 269.620 210.429,267.753 209.722,266.208 209.020 C 264.664 208.319,262.475 207.414,261.344 207.009 C 259.839 206.471,259.116 205.942,258.646 205.037 C 256.001 199.942,252.558 197.590,246.674 196.859 C 242.252 196.310,240.005 194.823,239.058 191.817 C 237.537 186.992,232.708 184.478,221.000 182.419 C 218.299 181.944,217.813 181.494,217.433 179.116 C 216.776 175.005,214.278 172.724,209.359 171.741 C 204.703 170.811,204.298 170.314,203.465 164.490 C 201.930 153.771,199.769 149.367,195.082 147.409 C 192.943 146.515,192.412 144.918,191.816 137.600 C 191.283 131.056,191.334 130.620,193.023 127.108 C 193.537 126.039,194.139 125.484,195.145 125.152 C 196.993 124.542,200.231 121.278,200.585 119.670 C 200.737 118.976,201.050 118.293,201.280 118.150 C 202.002 117.704,203.998 112.884,204.957 109.273 L 205.875 105.812 207.438 105.476 C 208.297 105.292,211.525 104.524,214.611 103.770 C 217.697 103.017,221.126 102.400,222.232 102.400 C 224.530 102.400,234.413 100.819,239.915 99.570 L 243.631 98.727 246.258 99.779 C 249.155 100.939,256.062 102.098,264.200 102.790 C 275.814 103.777,280.170 105.839,282.169 111.296 C 283.338 114.488,288.273 117.600,292.166 117.600 C 293.758 117.600,294.413 118.503,295.048 121.573 C 295.989 126.120,298.716 134.882,299.538 136.000 C 301.120 138.150,307.519 140.743,315.932 142.640 C 319.141 143.364,318.984 143.190,320.179 147.315 C 321.354 151.367,323.925 153.484,328.810 154.421 C 332.287 155.087,334.239 156.103,334.569 157.417 C 335.324 160.429,337.461 162.558,341.024 163.852 L 343.694 164.821 345.405 163.818 C 351.249 160.393,354.209 146.367,351.275 136.000 C 350.808 134.350,349.991 131.380,349.460 129.400 C 347.829 123.322,346.511 120.231,344.596 118.000 C 344.124 117.450,343.498 116.190,343.204 115.200 C 342.911 114.210,342.003 111.690,341.188 109.600 C 340.372 107.510,339.384 104.900,338.992 103.800 C 338.066 101.202,335.844 99.057,333.452 98.455 C 330.283 97.657,324.235 94.016,323.251 92.314 C 322.779 91.497,321.744 90.327,320.951 89.714 C 320.158 89.101,318.308 87.408,316.840 85.950 C 315.372 84.493,313.236 82.827,312.094 82.248 C 310.695 81.539,309.785 80.747,309.308 79.822 C 306.852 75.061,302.667 72.407,296.368 71.617 C 292.016 71.071,289.118 69.367,288.479 66.979 C 287.441 63.097,284.284 60.984,278.264 60.143 C 269.675 58.942,237.023 58.442,217.800 59.216 M262.177 62.018 C 273.559 62.866,279.884 64.591,282.995 67.697 C 286.007 70.704,288.545 72.224,293.612 74.053 C 299.171 76.060,301.233 77.411,303.031 80.222 C 304.509 82.532,304.903 82.873,308.707 85.119 C 310.980 86.461,315.600 90.546,315.600 91.213 C 315.600 92.490,318.745 95.317,322.286 97.223 C 335.392 104.279,338.526 108.688,341.807 124.685 C 342.942 130.217,343.316 131.392,344.352 132.685 C 345.764 134.448,347.640 138.439,348.585 141.691 C 349.572 145.084,347.004 155.342,344.604 157.596 L 343.616 158.524 341.708 156.749 C 339.040 154.267,337.528 153.424,333.272 152.045 C 327.796 150.269,325.191 148.302,323.231 144.461 C 321.913 141.878,319.589 140.217,315.391 138.858 C 304.757 135.416,301.207 131.688,298.385 121.000 C 297.426 117.370,295.801 115.529,291.737 113.470 C 288.821 111.992,287.319 110.594,285.356 107.531 C 282.749 103.463,280.667 102.573,264.071 98.431 C 262.239 97.974,258.729 96.638,256.271 95.462 C 253.812 94.285,249.987 92.846,247.770 92.262 L 243.740 91.201 237.404 91.987 L 231.069 92.773 227.834 94.744 C 224.765 96.616,216.395 99.681,208.495 101.828 C 205.060 102.761,202.808 104.774,201.652 107.946 C 200.282 111.702,198.843 113.963,195.762 117.197 C 186.644 126.769,186.128 145.079,194.704 154.800 C 197.349 157.799,198.771 160.404,200.055 164.600 C 201.958 170.819,203.475 172.866,207.507 174.659 C 210.007 175.771,212.979 178.398,214.000 180.400 C 215.096 182.548,218.047 185.078,220.064 185.597 C 228.127 187.673,232.172 189.694,234.698 192.909 C 237.102 195.968,240.472 198.216,245.393 200.042 C 249.141 201.434,250.565 202.553,254.071 206.862 C 255.077 208.098,256.152 208.896,257.471 209.386 C 263.190 211.511,269.927 215.168,271.257 216.868 C 273.886 220.229,277.103 223.050,280.047 224.577 C 284.269 226.766,285.463 227.768,286.903 230.331 C 288.522 233.211,291.177 235.872,294.037 237.479 C 296.946 239.113,298.476 240.680,300.054 243.641 C 301.487 246.329,304.185 248.960,307.385 250.791 C 309.942 252.254,311.143 253.754,312.969 257.760 C 314.845 261.875,316.768 264.676,319.632 267.459 C 322.593 270.336,324.070 273.223,325.433 278.800 C 326.891 284.769,328.756 288.451,331.814 291.400 C 339.715 299.020,340.507 323.107,333.141 331.724 L 331.538 333.600 325.010 333.600 L 318.483 333.600 317.178 332.114 C 314.161 328.677,313.155 326.338,310.766 317.200 C 309.890 313.848,308.147 309.496,306.944 307.659 L 306.328 306.719 305.193 307.806 C 303.557 309.374,302.504 312.137,301.370 317.833 C 299.872 325.360,298.002 329.620,294.934 332.496 L 293.765 333.592 290.182 332.561 C 288.212 331.994,285.285 331.198,283.678 330.790 C 275.191 328.640,273.445 325.748,272.969 313.056 C 272.691 305.631,272.553 305.158,269.821 302.301 C 268.790 301.223,268.741 301.214,267.290 301.820 C 264.504 302.984,264.050 304.652,264.466 312.200 C 265.329 327.852,261.033 335.643,253.366 332.328 C 249.591 330.697,241.961 328.009,241.087 328.004 C 239.834 327.997,236.499 326.063,235.627 324.837 C 233.508 321.863,233.289 320.119,233.990 311.848 L 234.461 306.296 232.949 304.748 C 231.269 303.027,230.844 302.938,228.420 303.793 C 225.459 304.838,225.103 305.699,226.439 308.575 C 228.838 313.736,229.789 318.200,229.264 321.833 C 227.877 331.428,224.281 333.867,212.488 333.213 L 206.376 332.875 203.679 330.337 C 202.195 328.942,198.901 326.060,196.358 323.934 C 193.816 321.807,191.441 319.617,191.080 319.066 C 189.222 316.231,183.028 312.635,178.515 311.771 C 173.983 310.904,170.112 309.418,167.194 307.424 C 161.368 303.443,156.346 302.091,142.600 300.802 C 121.845 298.857,116.304 297.838,110.854 294.963 C 103.054 290.850,96.149 288.960,87.600 288.596 C 71.617 287.916,67.745 286.672,63.944 281.000 C 62.764 279.238,59.778 275.803,57.300 273.355 C 54.825 270.910,52.798 268.750,52.796 268.555 C 52.794 268.360,52.419 266.400,51.963 264.200 C 49.940 254.442,50.546 234.434,52.981 230.600 C 54.614 228.030,56.104 227.133,58.400 227.340 C 61.514 227.620,61.938 227.873,62.417 229.741 C 62.651 230.654,63.392 232.570,64.063 234.000 C 64.734 235.430,65.914 238.130,66.685 240.000 C 68.490 244.374,68.319 244.212,71.704 244.761 C 73.297 245.019,76.130 245.747,78.000 246.377 C 81.733 247.636,81.932 247.594,83.005 245.333 C 84.013 243.209,82.799 242.117,78.628 241.393 C 73.658 240.529,72.561 239.270,72.112 233.915 C 71.791 230.088,69.535 226.403,67.509 226.395 C 64.351 226.381,63.645 225.483,63.405 221.177 C 63.328 219.787,63.037 215.806,62.757 212.331 C 62.010 203.024,64.777 195.841,69.447 194.965 C 74.174 194.078,75.525 189.889,76.016 174.600 C 76.426 161.807,77.400 156.671,79.841 154.435 L 81.343 153.058 82.871 154.829 C 83.711 155.803,84.398 156.739,84.399 156.909 C 84.400 157.346,86.335 160.295,87.933 162.295 C 88.678 163.227,90.490 164.880,91.959 165.970 C 93.429 167.059,94.984 168.346,95.416 168.829 C 96.487 170.029,100.666 173.326,104.990 176.384 C 106.965 177.780,108.939 179.390,109.377 179.961 C 112.155 183.584,116.446 185.881,123.295 187.410 C 128.823 188.645,132.281 190.245,133.839 192.287 C 136.817 196.191,140.950 198.434,147.000 199.430 C 155.538 200.835,159.207 202.224,162.349 205.243 C 165.941 208.695,172.621 211.051,183.200 212.596 C 190.939 213.727,193.669 214.904,195.000 217.683 C 198.802 225.623,215.642 227.021,217.414 219.543 C 217.902 217.489,210.097 212.941,204.122 211.798 C 200.531 211.110,199.477 210.301,198.488 207.469 C 197.702 205.220,195.992 203.647,192.118 201.612 C 188.823 199.881,186.862 198.147,184.457 194.840 C 183.361 193.333,181.864 191.689,181.132 191.187 C 177.513 188.708,175.703 186.221,174.221 181.695 C 173.229 178.662,170.629 174.994,168.199 173.199 C 165.418 171.145,163.747 169.059,163.443 167.264 C 163.307 166.459,162.931 164.360,162.608 162.600 C 161.547 156.824,159.937 131.913,160.423 128.800 C 160.612 127.590,161.131 123.350,161.575 119.379 C 163.078 105.947,163.472 104.785,167.802 100.983 C 170.788 98.361,172.415 95.980,173.769 92.246 C 174.945 89.003,177.008 86.371,179.765 84.597 C 182.121 83.081,183.142 82.094,184.934 79.600 C 186.488 77.437,189.230 75.515,192.094 74.583 C 197.235 72.910,200.751 70.731,203.679 67.405 C 207.717 62.817,214.606 61.768,241.377 61.661 C 249.725 61.627,259.085 61.788,262.177 62.018 M78.837 197.323 C 75.788 198.391,74.170 204.604,76.159 207.610 C 79.013 211.922,83.817 212.474,87.391 208.900 C 89.527 206.764,89.064 205.516,83.921 199.540 C 81.470 196.693,81.098 196.530,78.837 197.323 M83.150 204.180 C 84.954 206.372,84.901 206.665,82.438 208.116 L 81.223 208.832 79.808 207.516 L 78.392 206.200 79.619 204.074 C 81.048 201.598,81.024 201.598,83.150 204.180 M101.400 214.170 C 98.364 214.931,96.733 215.764,95.269 217.303 L 93.938 218.702 95.069 219.499 C 102.465 224.711,109.767 225.212,113.769 220.782 C 115.584 218.773,115.580 218.747,113.258 217.042 C 108.841 213.800,105.805 213.065,101.400 214.170 M209.602 216.711 C 212.694 218.509,212.790 219.001,210.340 220.516 C 207.414 222.325,205.872 222.332,202.900 220.551 C 200.011 218.820,199.895 218.438,201.797 216.917 C 204.466 214.783,206.208 214.737,209.602 216.711 M110.200 218.800 C 110.200 219.077,109.290 219.819,108.178 220.447 L 106.155 221.589 103.212 220.179 C 99.861 218.573,99.895 218.430,104.000 216.890 L 106.200 216.064 108.200 217.180 C 109.300 217.794,110.200 218.523,110.200 218.800 M127.814 226.710 C 125.756 227.396,122.800 229.923,122.800 230.997 C 122.800 231.800,125.631 233.842,128.711 235.261 L 131.223 236.418 136.483 235.805 C 143.962 234.934,147.600 233.490,147.600 231.393 C 147.600 228.681,132.576 225.126,127.814 226.710 M226.287 226.437 C 223.313 227.137,220.807 229.253,220.801 231.069 C 220.796 232.939,230.116 237.267,233.851 237.130 C 239.770 236.911,239.084 230.602,232.714 226.670 C 231.536 225.943,228.804 225.844,226.287 226.437 M135.328 229.828 C 140.632 231.167,140.715 231.340,136.528 232.334 C 131.424 233.545,131.571 233.541,129.500 232.522 C 127.173 231.376,127.156 231.149,129.300 229.856 C 131.366 228.611,130.521 228.615,135.328 229.828 M233.007 230.060 L 234.441 231.319 233.142 232.660 C 231.548 234.304,231.242 234.312,228.549 232.771 C 225.924 231.269,225.907 231.072,228.300 229.826 C 230.785 228.533,231.296 228.558,233.007 230.060 M238.943 238.353 C 237.581 239.621,237.652 243.525,239.067 245.206 C 243.518 250.496,253.557 250.313,254.636 244.922 C 255.319 241.507,241.684 235.799,238.943 238.353 M165.727 238.601 C 162.281 239.350,159.658 240.589,157.911 242.291 L 156.421 243.742 158.416 245.085 C 166.098 250.259,174.981 250.163,178.753 244.866 L 179.591 243.688 178.296 242.703 C 176.058 241.001,169.514 237.896,168.450 238.032 C 168.312 238.049,167.087 238.306,165.727 238.601 M171.870 242.224 C 174.829 243.879,174.831 243.859,171.478 245.560 L 168.918 246.860 166.360 245.783 C 161.682 243.814,161.676 243.492,166.290 241.619 C 168.852 240.579,168.947 240.589,171.870 242.224 M245.316 241.658 C 249.437 243.757,249.491 244.163,245.813 245.413 L 243.612 246.161 242.406 245.006 C 240.943 243.604,240.941 243.569,242.236 242.031 C 243.468 240.566,243.230 240.595,245.316 241.658 M90.930 250.981 C 85.798 251.961,84.481 255.734,88.299 258.515 C 92.925 261.884,93.401 261.958,101.484 260.567 C 106.499 259.703,111.600 257.586,111.600 256.367 C 111.600 255.646,106.007 253.441,101.055 252.210 C 94.046 250.469,93.782 250.437,90.930 250.981 M191.784 252.521 C 190.675 253.052,189.260 254.089,188.640 254.826 L 187.512 256.165 188.641 257.065 C 192.321 260.000,203.141 261.891,208.153 260.475 C 209.906 259.980,213.200 257.311,213.200 256.386 C 213.200 255.942,209.688 253.438,208.000 252.679 C 205.282 251.457,194.234 251.349,191.784 252.521 M256.212 253.181 C 256.138 253.302,256.017 254.104,255.943 254.964 L 255.809 256.529 258.404 257.406 C 261.432 258.428,264.711 260.036,267.072 261.654 C 269.272 263.162,270.829 262.408,271.375 259.568 C 271.499 258.926,271.695 257.902,271.811 257.292 C 271.984 256.391,271.741 255.914,270.511 254.732 L 269.000 253.279 262.673 253.121 C 259.194 253.034,256.286 253.061,256.212 253.181 M98.985 254.874 C 104.061 256.355,104.035 256.407,97.364 258.038 L 93.728 258.927 91.791 257.594 L 89.854 256.261 91.394 254.931 C 93.289 253.292,93.554 253.290,98.985 254.874 M207.320 255.544 L 208.440 256.282 207.415 256.953 C 206.490 257.560,205.787 257.581,200.096 257.176 C 190.711 256.507,190.676 255.809,200.000 255.259 C 203.190 255.071,205.890 254.892,206.000 254.861 C 206.110 254.830,206.704 255.138,207.320 255.544 M141.800 263.474 C 131.827 264.344,123.611 267.085,125.208 269.009 C 126.784 270.908,137.837 273.781,143.600 273.790 C 148.618 273.798,156.031 271.059,156.691 268.953 C 156.974 268.050,144.078 262.510,143.455 263.267 C 143.425 263.304,142.680 263.397,141.800 263.474 M228.600 263.791 C 225.387 264.404,222.881 265.603,221.274 267.296 L 219.948 268.692 221.674 269.969 C 227.602 274.355,235.043 275.643,237.019 272.627 C 238.837 269.852,237.995 267.521,234.301 265.105 C 231.526 263.289,231.389 263.258,228.600 263.791 M277.048 265.614 C 273.176 266.773,273.280 268.044,277.657 273.044 C 281.762 277.733,282.175 277.836,283.746 274.568 C 286.635 268.563,283.078 263.808,277.048 265.614 M146.900 267.243 C 150.727 268.782,150.726 268.862,146.875 270.347 L 143.750 271.552 138.783 270.364 C 136.051 269.710,133.664 269.024,133.479 268.839 C 133.115 268.475,140.644 266.351,143.400 266.041 C 143.620 266.016,145.195 266.557,146.900 267.243 M232.909 267.229 C 234.807 268.794,234.783 269.335,232.753 270.679 L 231.105 271.769 228.553 270.405 C 225.411 268.727,225.410 268.645,228.500 267.183 C 231.529 265.750,231.110 265.746,232.909 267.229 M179.479 276.034 C 175.930 276.879,171.600 279.739,171.600 281.239 C 171.600 281.855,176.142 284.606,178.802 285.601 C 182.301 286.909,193.469 286.587,196.371 285.094 C 202.442 281.969,198.589 277.976,188.200 276.625 C 185.340 276.254,182.550 275.887,182.000 275.811 C 181.450 275.735,180.316 275.835,179.479 276.034 M241.015 276.949 C 238.631 279.332,239.037 281.760,242.225 284.192 C 245.893 286.989,253.250 283.076,249.784 280.172 C 244.945 276.117,242.679 275.284,241.015 276.949 M188.392 279.785 C 196.482 281.180,196.480 281.613,188.372 282.806 C 181.591 283.804,181.656 283.805,179.011 282.553 C 176.326 281.282,176.316 281.204,178.700 279.877 C 181.045 278.572,181.341 278.569,188.392 279.785 M244.600 281.205 C 244.600 282.063,243.438 281.939,243.269 281.064 C 243.166 280.529,243.329 280.366,243.864 280.469 C 244.269 280.547,244.600 280.878,244.600 281.205 M292.135 281.195 C 291.114 281.612,290.973 282.016,290.421 286.129 C 289.550 292.603,289.957 294.738,292.670 297.929 L 293.800 299.259 295.200 298.321 C 295.970 297.805,297.038 296.557,297.574 295.547 L 298.549 293.711 296.341 287.355 C 294.097 280.892,293.830 280.502,292.135 281.195 M254.812 287.138 C 251.745 288.782,251.509 293.376,254.333 296.447 L 256.267 298.549 258.229 297.575 C 262.095 295.655,261.820 293.251,257.080 287.503 L 256.175 286.407 254.812 287.138 M205.559 290.859 C 204.870 291.440,203.600 293.226,203.600 293.614 C 203.600 294.388,206.583 295.792,209.971 296.612 C 212.125 297.134,214.944 298.028,216.236 298.599 C 219.018 299.829,219.962 299.559,220.931 297.254 C 222.154 294.343,222.107 293.867,220.436 292.235 L 218.892 290.728 212.546 290.523 C 207.562 290.362,206.062 290.434,205.559 290.859 M256.727 294.245 C 256.134 294.837,256.061 294.822,255.815 294.048 C 255.422 292.808,255.952 292.181,256.733 292.962 C 257.318 293.546,257.317 293.654,256.727 294.245 M294.122 294.107 C 293.760 294.731,293.283 293.969,293.505 293.121 C 293.723 292.286,293.748 292.281,294.017 293.021 C 294.173 293.450,294.220 293.938,294.122 294.107 M269.400 314.035 C 269.400 322.296,269.000 325.438,268.362 322.200 C 267.971 320.220,267.897 306.236,268.275 305.858 C 269.209 304.924,269.400 306.311,269.400 314.035 " stroke="none" fill="#5c74ac" fill-rule="evenodd"></path><path id="path4" d="M15.229 9.503 C 12.237 10.384,10.348 12.336,9.473 15.453 C 8.432 19.162,8.432 380.838,9.473 384.547 C 10.380 387.777,12.223 389.620,15.453 390.527 C 19.162 391.568,380.838 391.568,384.547 390.527 C 387.777 389.620,389.620 387.777,390.527 384.547 C 391.568 380.838,391.568 19.162,390.527 15.453 C 389.620 12.223,387.777 10.380,384.547 9.473 C 380.947 8.463,18.665 8.492,15.229 9.503 M383.411 16.589 L 385.200 18.379 385.200 200.000 L 385.200 381.621 383.411 383.411 L 381.621 385.200 200.000 385.200 L 18.379 385.200 16.589 383.411 L 14.800 381.621 14.800 200.000 L 14.800 18.379 16.589 16.589 L 18.379 14.800 200.000 14.800 L 381.621 14.800 383.411 16.589 M39.926 34.115 C 36.753 35.089,35.068 36.835,34.016 40.241 L 33.198 42.891 33.171 200.545 C 33.147 345.589,33.198 358.454,33.805 361.380 C 34.453 364.499,35.309 366.608,36.574 368.200 C 36.923 368.640,37.757 369.845,38.427 370.877 C 40.641 374.289,42.733 375.294,47.000 374.997 C 48.980 374.859,119.540 374.623,203.800 374.473 L 357.000 374.200 358.209 373.337 C 359.866 372.155,364.929 366.492,365.748 364.905 C 367.705 361.109,367.619 369.276,367.505 199.600 L 367.400 41.400 366.449 39.297 C 365.246 36.635,363.379 34.991,360.663 34.201 C 357.114 33.169,43.280 33.085,39.926 34.115 M201.342 36.687 L 357.684 36.773 359.404 37.781 C 361.059 38.751,362.966 40.812,363.956 42.700 C 364.913 44.525,364.604 356.654,363.643 359.183 C 362.712 361.635,360.481 364.470,358.402 365.846 L 356.901 366.839 207.751 366.808 C 97.175 366.785,56.657 366.900,51.086 367.250 L 43.573 367.723 41.886 366.521 C 39.843 365.065,37.951 362.381,36.792 359.295 L 35.930 357.000 35.964 200.486 C 35.997 45.999,36.008 43.953,36.780 42.440 C 38.440 39.185,42.928 35.570,44.400 36.302 C 44.730 36.466,115.354 36.639,201.342 36.687 M223.400 64.476 C 214.895 65.114,208.722 67.251,204.914 70.874 C 202.413 73.254,198.171 75.581,195.200 76.204 C 192.011 76.873,189.003 79.076,186.318 82.711 C 185.449 83.887,183.806 85.446,182.666 86.175 C 179.821 87.995,177.317 90.822,176.151 93.530 C 173.626 99.398,172.731 100.790,169.794 103.419 C 166.974 105.942,166.855 106.125,166.068 109.113 C 164.251 116.011,163.019 125.942,163.129 132.800 C 163.494 155.494,165.444 167.664,169.102 170.090 C 172.587 172.400,174.527 175.199,176.564 180.856 C 177.433 183.269,179.369 186.170,180.865 187.302 C 183.669 189.422,185.724 191.469,186.669 193.082 C 188.041 195.423,190.957 197.891,195.033 200.161 C 197.609 201.595,198.787 202.541,199.914 204.082 C 202.964 208.250,204.002 209.015,208.477 210.395 C 215.022 212.413,219.655 215.410,222.403 219.404 C 223.801 221.436,225.856 222.524,229.856 223.349 C 234.958 224.402,237.545 226.196,239.985 230.374 C 241.969 233.772,242.175 233.933,246.502 235.478 C 252.997 237.797,257.881 241.126,260.217 244.828 C 261.574 246.976,263.806 248.501,267.132 249.551 C 270.865 250.729,273.275 252.857,275.035 256.528 C 276.738 260.083,277.246 260.610,279.935 261.616 C 284.438 263.301,287.149 266.190,288.375 270.611 C 289.216 273.647,290.372 275.057,293.439 276.787 C 297.449 279.050,299.684 283.623,302.196 294.706 C 303.013 298.313,303.471 299.091,305.463 300.258 C 308.482 302.028,311.198 307.191,312.795 314.200 C 314.168 320.227,315.082 322.860,316.774 325.659 L 318.310 328.200 324.920 328.310 L 331.531 328.419 332.919 326.110 C 335.646 321.574,336.155 319.434,335.630 314.724 C 334.308 302.883,333.144 299.575,327.457 291.492 C 326.222 289.737,325.617 288.147,323.162 280.200 C 321.864 275.998,320.648 273.873,317.718 270.687 C 314.206 266.869,312.339 263.916,310.600 259.427 C 309.007 255.314,307.957 254.078,304.341 252.053 C 301.600 250.518,299.613 248.390,298.048 245.312 C 296.621 242.505,295.034 240.980,291.558 239.074 C 288.583 237.443,286.491 235.335,285.050 232.514 C 283.728 229.927,281.915 228.354,278.751 227.048 C 275.635 225.760,272.003 222.953,269.964 220.255 C 268.335 218.101,266.328 216.834,259.663 213.754 C 253.937 211.108,252.542 210.133,250.235 207.162 C 248.173 204.507,245.730 202.768,242.642 201.758 C 238.000 200.239,234.194 197.736,232.376 195.006 C 231.244 193.307,227.165 191.077,221.317 188.960 C 216.158 187.093,211.600 183.740,211.600 181.813 C 211.600 181.058,207.894 177.730,206.000 176.784 C 202.134 174.852,199.876 172.265,198.562 168.260 C 197.244 164.243,195.514 161.169,193.068 158.500 C 188.371 153.374,186.489 147.191,186.364 136.479 C 186.233 125.226,187.733 120.593,193.407 114.720 C 195.622 112.427,197.131 110.410,198.283 108.200 C 201.532 101.966,202.983 100.732,209.851 98.369 C 216.160 96.197,219.690 94.648,222.634 92.756 C 232.006 86.734,251.020 86.609,260.110 92.509 C 263.449 94.677,265.791 95.589,274.151 97.975 C 283.296 100.585,285.399 101.763,287.656 105.539 C 289.061 107.890,290.010 108.790,293.409 111.001 C 298.058 114.023,299.377 115.664,301.330 120.851 C 304.839 130.173,307.563 132.836,317.400 136.558 C 321.262 138.020,323.549 139.825,325.728 143.133 C 328.264 146.982,330.685 148.800,333.274 148.800 C 335.660 148.800,340.966 149.859,342.465 150.634 C 343.068 150.945,343.644 151.200,343.747 151.200 C 344.047 151.200,346.100 144.783,346.100 143.848 C 346.099 142.632,344.333 139.144,342.697 137.128 C 340.001 133.807,339.288 131.786,338.260 124.567 C 336.445 111.822,333.272 107.266,321.538 100.557 C 316.869 97.887,315.785 97.001,313.799 94.230 C 311.524 91.055,309.640 89.290,306.114 87.029 C 304.526 86.012,302.636 84.443,301.914 83.544 C 297.935 78.593,296.201 77.361,291.298 75.998 C 287.714 75.002,285.197 73.856,283.115 72.271 C 274.142 65.442,266.854 63.961,242.685 64.058 C 234.718 64.089,226.040 64.277,223.400 64.476 M262.150 67.772 L 267.700 68.721 270.060 71.336 C 273.417 75.056,280.602 77.852,290.400 79.251 C 294.716 79.867,295.760 80.567,296.671 83.458 C 297.887 87.315,300.549 89.651,305.014 90.777 C 307.102 91.304,308.925 93.248,309.765 95.844 C 310.875 99.273,315.208 103.176,317.927 103.196 C 319.264 103.206,323.518 106.219,323.974 107.478 C 324.620 109.264,327.453 112.224,329.558 113.312 C 332.737 114.954,333.610 117.171,334.046 124.704 C 334.713 136.237,335.503 140.472,337.408 142.736 L 338.396 143.910 335.698 144.373 C 331.294 145.130,331.270 145.129,330.490 144.242 C 330.083 143.779,329.435 142.358,329.050 141.085 C 327.862 137.158,325.369 135.021,320.789 134.004 C 316.988 133.159,314.382 131.622,313.307 129.589 C 312.036 127.186,310.614 125.750,308.071 124.303 C 305.732 122.971,304.624 121.106,303.607 116.788 C 302.445 111.856,300.523 109.712,295.872 108.160 C 293.622 107.409,292.650 106.875,292.407 106.258 C 292.222 105.786,291.684 104.390,291.211 103.155 C 289.619 98.996,288.011 97.993,279.119 95.614 L 272.837 93.933 270.263 91.446 C 264.150 85.540,255.097 83.546,237.136 84.149 C 223.158 84.618,216.322 86.854,213.121 92.005 C 211.859 94.035,209.818 95.069,204.400 96.423 C 199.939 97.538,197.424 99.952,196.141 104.350 C 195.122 107.844,194.202 109.069,192.062 109.779 C 185.360 112.005,183.438 117.886,183.425 136.200 C 183.411 155.113,185.363 161.438,192.070 164.211 C 194.221 165.101,195.187 166.692,196.184 170.995 C 197.479 176.579,199.730 178.861,204.874 179.808 C 206.684 180.141,207.311 180.828,208.150 183.400 C 209.540 187.662,211.981 189.997,215.930 190.841 C 220.515 191.822,223.713 193.453,224.582 195.253 C 226.461 199.145,233.056 203.085,240.001 204.465 C 244.205 205.300,245.592 205.967,245.609 207.162 C 245.657 210.635,249.593 214.499,254.246 215.641 C 258.054 216.575,261.366 218.551,262.191 220.381 C 263.004 222.182,265.202 224.369,267.276 225.437 C 268.004 225.812,269.140 226.522,269.800 227.015 C 271.763 228.480,274.939 229.926,277.745 230.630 C 280.826 231.404,280.836 231.414,281.951 234.814 C 283.436 239.344,286.143 241.735,291.219 243.003 L 293.837 243.656 294.540 246.383 C 295.860 251.509,297.999 253.872,302.886 255.600 C 306.139 256.751,306.026 256.601,307.394 261.574 C 307.965 263.650,308.848 266.177,309.357 267.190 C 309.866 268.203,310.498 269.684,310.761 270.482 C 311.498 272.716,314.066 275.355,316.561 276.444 C 319.557 277.750,320.298 279.151,321.040 284.909 C 322.350 295.078,324.710 301.255,328.791 305.200 L 331.481 307.800 332.339 313.317 L 333.196 318.834 332.191 320.817 L 331.187 322.800 325.000 322.800 L 318.813 322.800 317.857 320.900 C 317.145 319.485,316.780 317.775,316.425 314.200 C 315.781 307.709,314.712 302.611,313.427 299.894 C 312.377 297.675,308.872 294.000,307.806 294.000 C 306.850 294.000,306.359 292.864,304.581 286.536 C 301.774 276.542,301.003 275.163,297.140 273.233 C 295.783 272.555,294.432 272.000,294.139 272.000 C 293.450 272.000,291.200 268.902,291.200 267.955 C 291.200 263.888,286.134 258.800,282.085 258.800 C 280.882 258.800,278.890 256.619,278.387 254.751 C 277.242 250.501,274.954 248.016,271.200 246.945 C 267.262 245.822,265.673 244.633,264.413 241.864 C 262.350 237.330,257.520 234.431,247.971 231.993 C 243.893 230.951,243.893 230.951,243.229 228.362 C 242.202 224.354,239.188 222.095,233.387 220.985 C 229.065 220.158,228.157 219.578,226.967 216.883 C 225.874 214.409,224.068 212.282,222.255 211.332 C 219.711 210.000,213.310 207.950,209.862 207.363 C 205.670 206.649,205.625 206.615,204.589 203.422 C 203.345 199.588,200.884 197.657,195.657 196.410 C 193.176 195.819,190.800 193.966,190.800 192.622 C 190.800 189.482,187.136 185.325,183.304 184.117 C 180.571 183.256,179.839 182.240,179.199 178.417 C 178.552 174.549,177.521 171.598,176.082 169.491 C 175.446 168.561,174.451 167.043,173.869 166.117 C 173.287 165.192,171.841 163.702,170.656 162.807 C 167.587 160.490,167.294 159.221,166.766 145.949 C 165.878 123.604,166.859 113.587,170.183 111.081 C 171.082 110.404,172.353 109.163,173.008 108.325 C 173.664 107.486,174.692 106.215,175.294 105.500 C 176.953 103.528,177.618 101.861,178.509 97.440 C 179.517 92.439,180.205 91.426,183.169 90.580 C 187.409 89.369,190.392 86.400,191.003 82.781 C 191.324 80.881,192.855 79.800,195.800 79.396 C 199.477 78.891,203.380 77.903,205.474 76.947 C 206.615 76.426,207.746 76.000,207.988 76.000 C 209.777 76.000,214.236 72.764,216.020 70.171 C 216.920 68.863,217.560 68.369,218.607 68.172 C 227.231 66.554,253.610 66.312,262.150 67.772 M81.086 162.261 C 79.354 165.068,78.512 180.098,79.790 185.400 C 80.818 189.663,82.864 193.577,85.504 196.326 C 89.086 200.058,91.627 203.997,93.192 208.244 C 93.804 209.905,95.604 210.427,102.000 210.798 C 111.107 211.327,118.597 215.266,119.829 220.175 C 120.269 221.928,121.583 222.455,126.497 222.850 C 143.331 224.203,151.828 227.316,153.163 232.620 C 154.057 236.170,154.578 236.364,162.521 236.110 C 172.086 235.805,175.203 236.662,182.091 241.488 C 184.073 242.877,185.290 244.021,185.446 244.640 C 186.124 247.340,188.155 247.893,200.800 248.814 C 206.198 249.207,207.379 249.423,209.932 250.483 C 213.085 251.793,217.600 255.503,217.600 256.783 C 217.600 260.072,218.372 260.446,225.800 260.764 C 234.253 261.125,238.408 263.266,241.022 268.608 C 242.254 271.127,242.713 271.567,245.600 273.002 C 252.651 276.507,260.039 284.181,264.000 292.115 C 266.114 296.351,266.286 296.567,268.400 297.683 C 273.972 300.622,275.499 303.616,275.825 312.241 C 276.232 322.983,277.836 325.133,286.800 326.951 C 289.770 327.553,292.586 328.140,293.058 328.256 C 295.842 328.937,298.800 320.751,298.800 312.365 C 298.800 304.874,298.754 304.758,295.375 303.776 C 291.565 302.668,287.918 297.771,286.802 292.262 C 285.945 288.035,284.458 285.395,282.120 283.951 C 281.410 283.512,278.415 280.328,275.466 276.876 C 267.437 267.479,263.180 263.772,257.600 261.318 C 255.166 260.248,253.416 258.700,251.820 256.204 C 250.223 253.707,248.786 252.766,244.800 251.603 C 239.778 250.138,237.072 247.894,235.001 243.477 C 234.029 241.404,232.413 240.311,228.400 239.015 C 223.202 237.336,220.558 235.763,217.016 232.244 C 213.701 228.950,211.837 227.856,208.800 227.423 C 201.892 226.436,198.158 224.881,192.496 220.632 C 187.110 216.591,185.411 215.896,176.714 214.177 C 165.964 212.052,163.009 210.899,159.088 207.300 C 156.511 204.935,153.849 203.836,145.753 201.794 C 137.658 199.752,135.702 198.842,132.350 195.551 C 129.321 192.578,126.210 191.022,119.249 189.000 C 112.311 186.985,109.796 185.550,106.981 182.000 C 106.545 181.450,104.335 179.763,102.070 178.250 C 99.805 176.738,96.985 174.713,95.803 173.750 C 94.621 172.788,93.469 172.000,93.242 172.000 C 90.432 172.000,85.247 168.166,82.776 164.261 C 81.961 162.975,81.201 162.075,81.086 162.261 M96.344 179.454 C 97.805 180.539,99.163 181.943,99.622 182.843 C 100.858 185.266,103.059 187.170,106.561 188.844 C 109.730 190.359,111.526 190.842,116.814 191.598 C 120.734 192.160,123.458 193.416,123.975 194.901 C 125.543 199.397,131.293 202.601,140.000 203.830 C 146.640 204.767,149.240 205.754,150.558 207.837 C 153.973 213.234,157.833 214.695,175.800 217.388 C 180.717 218.125,182.293 218.505,182.600 219.029 C 186.121 225.037,191.744 227.995,202.000 229.235 C 207.891 229.948,208.974 230.463,210.467 233.264 C 213.121 238.244,216.944 240.145,230.162 243.056 C 231.662 243.386,231.751 243.497,232.387 245.831 C 233.742 250.804,235.751 252.591,241.492 253.928 C 246.401 255.071,246.801 255.432,246.796 258.709 C 246.789 262.787,246.440 264.331,245.449 264.665 C 243.882 265.193,243.666 265.125,243.177 263.944 C 242.022 261.157,238.494 259.235,233.000 258.400 C 228.151 257.663,225.293 256.536,225.011 255.248 C 224.005 250.670,216.539 247.249,203.926 245.587 C 194.027 244.283,193.341 244.106,192.764 242.713 C 190.698 237.725,184.258 234.927,170.899 233.215 C 162.967 232.198,161.832 231.842,160.253 229.877 C 155.538 224.007,150.827 222.086,137.560 220.623 C 129.678 219.754,128.604 219.435,127.537 217.648 C 124.717 212.923,118.766 209.855,109.970 208.592 C 101.902 207.433,101.114 207.087,98.757 203.681 C 98.102 202.735,96.720 201.425,95.684 200.769 C 94.648 200.112,93.126 198.636,92.301 197.488 C 91.477 196.339,90.513 194.998,90.160 194.507 C 89.807 194.016,89.101 191.676,88.591 189.307 C 88.082 186.938,87.381 184.212,87.033 183.250 C 86.685 182.287,86.400 181.376,86.400 181.225 C 86.400 180.412,91.732 177.672,93.425 177.614 C 93.659 177.606,94.972 178.434,96.344 179.454 M67.903 200.900 C 67.579 201.395,66.816 202.783,66.208 203.984 L 65.101 206.168 65.788 212.375 C 66.554 219.310,66.790 219.962,69.422 222.448 C 72.029 224.911,73.417 227.052,74.865 230.845 C 76.286 234.564,78.024 236.744,80.512 237.924 C 83.193 239.195,85.497 241.056,86.669 242.897 C 89.218 246.897,90.353 247.489,97.600 248.594 C 110.786 250.605,117.962 254.017,118.264 258.420 C 118.475 261.511,118.492 261.532,120.672 261.402 C 137.267 260.412,147.675 261.247,156.313 264.260 C 163.995 266.940,165.673 268.033,166.192 270.693 C 166.728 273.445,168.020 274.830,169.303 274.028 C 171.754 272.498,190.447 273.360,195.975 275.259 C 199.541 276.484,202.219 278.492,203.637 281.005 C 205.628 284.532,207.938 285.716,215.303 286.981 C 221.365 288.022,223.243 289.618,225.835 295.924 C 226.627 297.851,227.705 298.745,230.510 299.799 C 235.803 301.787,237.429 304.556,237.792 312.194 C 238.219 321.204,239.162 322.316,249.514 326.028 C 256.710 328.609,256.581 328.604,258.379 326.367 C 261.692 322.244,262.167 319.411,261.222 309.421 C 260.756 304.498,260.061 303.313,256.698 301.705 C 253.129 299.999,248.827 294.793,248.804 292.154 C 248.794 291.042,246.832 289.424,243.795 288.020 C 240.217 286.367,237.757 284.206,236.596 281.698 C 235.144 278.561,234.065 277.845,228.600 276.395 C 222.304 274.725,214.800 270.201,214.800 268.076 C 214.800 265.310,211.705 264.321,200.200 263.409 C 191.259 262.701,188.263 261.734,184.626 258.381 C 183.280 257.141,182.831 256.371,182.444 254.641 C 181.775 251.651,181.931 251.705,173.400 251.492 C 161.504 251.196,152.770 247.800,150.085 242.428 C 148.605 239.466,146.206 238.800,137.018 238.800 C 130.366 238.800,128.401 238.419,124.250 236.324 C 121.555 234.964,118.000 231.618,118.000 230.441 C 118.000 228.118,114.862 226.810,109.245 226.791 C 100.374 226.762,90.949 222.387,88.852 217.325 C 88.171 215.682,86.316 214.809,82.041 214.122 C 76.181 213.179,74.100 211.597,72.739 207.048 C 71.529 203.003,69.841 200.000,68.776 200.000 C 68.620 200.000,68.227 200.405,67.903 200.900 M83.020 217.947 C 83.820 218.435,84.405 219.239,84.717 220.281 C 86.308 225.592,90.412 227.731,101.800 229.185 C 109.003 230.105,109.927 230.498,111.521 233.321 C 114.201 238.071,119.718 240.460,131.061 241.784 C 142.044 243.067,142.719 243.286,144.570 246.179 C 147.518 250.788,152.547 252.828,163.800 253.980 C 174.283 255.054,175.923 256.012,173.488 259.641 C 171.926 261.969,170.035 262.289,165.095 261.060 C 160.019 259.797,154.419 259.010,144.600 258.179 C 132.364 257.144,131.129 256.852,129.013 254.499 C 126.475 251.676,121.928 249.517,114.500 247.606 C 112.631 247.126,98.271 245.213,96.260 245.177 C 93.407 245.126,92.421 244.401,91.180 241.437 C 89.460 237.333,87.299 235.542,82.663 234.374 C 79.996 233.703,79.019 232.220,78.230 227.650 C 77.602 224.008,76.262 220.647,75.031 219.626 C 74.093 218.847,74.245 218.575,75.900 218.074 C 79.398 217.016,81.433 216.979,83.020 217.947 M55.647 232.500 C 52.272 243.059,52.341 255.697,55.831 266.450 C 56.289 267.861,56.997 268.779,58.814 270.315 C 61.916 272.939,64.468 275.937,66.512 279.358 C 69.080 283.656,74.392 285.374,87.200 286.048 C 98.730 286.655,108.481 288.854,116.200 292.588 C 118.707 293.800,121.075 294.580,124.000 295.155 C 133.480 297.019,142.520 298.408,147.800 298.811 C 159.540 299.708,166.967 301.759,171.905 305.468 C 173.576 306.723,176.675 308.091,180.283 309.165 C 186.223 310.934,189.192 312.650,193.525 316.817 C 195.231 318.458,198.784 321.619,201.422 323.842 L 206.218 327.884 212.536 328.178 L 218.854 328.472 220.405 327.396 C 224.004 324.902,226.457 319.745,225.403 316.886 C 222.334 308.566,217.279 303.329,209.524 300.437 C 203.879 298.332,198.800 295.019,198.800 293.441 C 198.800 292.761,196.403 290.526,195.179 290.064 C 194.617 289.853,191.107 289.469,187.379 289.211 C 178.406 288.591,173.406 287.195,169.769 284.291 C 169.155 283.801,167.854 282.950,166.877 282.400 C 165.397 281.566,164.994 281.068,164.451 279.401 C 163.441 276.300,160.145 275.350,153.000 276.101 C 136.385 277.847,118.317 272.921,117.698 266.477 C 117.427 263.657,118.139 263.800,104.380 263.800 L 92.160 263.800 89.106 262.291 C 85.918 260.716,83.360 258.301,82.126 255.701 C 81.093 253.523,76.442 250.683,70.958 248.883 C 65.044 246.942,64.316 246.198,60.006 237.700 C 56.477 230.740,56.283 230.509,55.647 232.500 M56.578 245.873 C 56.333 249.055,56.000 249.038,56.000 245.843 C 56.000 244.267,56.156 243.249,56.376 243.385 C 56.583 243.513,56.674 244.632,56.578 245.873 M71.848 254.612 C 73.728 255.663,74.736 256.570,75.792 258.161 C 76.572 259.337,77.883 260.741,78.705 261.283 C 79.527 261.824,81.206 262.937,82.436 263.756 C 85.061 265.504,88.930 266.368,98.646 267.376 C 106.089 268.149,106.583 268.328,108.711 271.017 C 112.559 275.882,121.330 278.263,138.800 279.187 C 149.003 279.726,151.454 280.372,154.521 283.331 C 158.947 287.602,167.928 290.473,181.000 291.796 C 184.934 292.195,192.525 293.606,193.042 294.035 C 193.306 294.254,194.001 295.412,194.587 296.609 C 196.278 300.066,199.576 302.198,204.787 303.204 C 207.476 303.723,211.094 305.833,211.867 307.334 C 213.075 309.680,214.497 311.211,216.774 312.617 C 218.466 313.660,219.365 314.580,220.320 316.243 C 221.865 318.934,221.867 318.610,220.289 320.757 L 218.997 322.515 212.611 322.431 L 206.225 322.347 204.120 320.550 C 202.919 319.523,201.694 318.024,201.266 317.056 C 199.561 313.201,193.503 309.327,185.674 307.084 C 182.497 306.174,182.240 306.011,179.927 303.448 C 175.249 298.266,168.304 296.513,149.600 295.797 C 139.831 295.423,136.006 294.524,133.400 291.990 C 128.541 287.265,113.825 284.268,90.200 283.193 C 78.545 282.663,76.387 282.130,74.637 279.350 C 73.864 278.122,72.555 276.908,70.737 275.732 C 69.232 274.758,68.000 273.806,68.000 273.616 C 68.000 273.425,67.124 272.219,66.054 270.935 C 64.721 269.336,63.891 267.850,63.420 266.221 C 62.415 262.748,60.707 259.601,58.844 257.793 C 57.184 256.182,57.026 255.317,58.181 254.162 C 59.818 252.525,68.636 252.816,71.848 254.612 M192.880 266.401 C 209.074 267.512,209.403 267.624,207.791 271.482 C 206.784 273.892,206.486 274.087,205.227 273.157 C 203.854 272.141,199.560 271.454,189.200 270.592 C 177.951 269.655,176.731 269.298,177.599 267.203 C 178.509 265.005,180.316 264.419,183.607 265.254 C 185.121 265.639,189.294 266.155,192.880 266.401 M258.606 267.057 C 260.982 268.634,261.096 268.917,260.215 271.026 C 259.797 272.027,259.155 272.638,257.964 273.171 L 256.298 273.917 254.539 272.574 C 253.571 271.835,251.614 270.675,250.190 269.995 C 247.679 268.797,246.877 267.694,248.007 266.996 C 248.230 266.858,248.317 266.589,248.200 266.400 C 247.262 264.883,256.180 265.446,258.606 267.057 M273.022 282.800 C 273.686 287.285,275.038 288.730,279.200 289.400 C 282.128 289.872,283.185 291.419,283.984 296.400 C 284.538 299.851,286.179 303.713,287.847 305.496 C 288.481 306.173,289.588 307.455,290.307 308.345 C 291.026 309.235,292.140 310.274,292.783 310.653 C 294.959 311.939,296.177 318.101,294.792 320.816 C 293.838 322.685,294.472 322.626,287.064 321.536 C 279.595 320.436,280.078 321.052,279.359 311.697 C 278.461 300.009,276.792 296.230,271.738 294.445 C 269.490 293.651,268.931 293.001,267.962 290.054 C 267.015 287.175,265.540 284.027,264.341 282.327 C 262.922 280.316,264.477 277.919,268.000 276.688 C 269.092 276.306,272.714 280.713,273.022 282.800 M220.663 278.196 C 221.767 278.524,224.684 279.136,227.146 279.556 C 232.190 280.417,232.606 280.640,232.992 282.696 C 233.866 287.356,236.446 289.725,242.237 291.184 C 244.738 291.815,245.599 292.811,246.473 296.089 C 247.880 301.358,250.634 304.444,254.476 305.059 C 256.780 305.427,257.024 305.995,257.810 312.808 L 258.526 319.016 257.458 320.708 C 256.167 322.753,256.612 322.767,250.031 320.472 C 243.347 318.142,243.598 318.472,241.842 309.690 C 239.976 300.356,238.754 298.489,233.439 296.845 C 230.221 295.849,228.948 294.546,228.382 291.671 C 227.481 287.093,225.293 284.804,221.237 284.197 C 218.864 283.842,213.598 282.179,212.649 281.485 C 211.520 280.660,213.226 278.882,215.814 278.187 C 218.380 277.498,218.312 277.498,220.663 278.196 " stroke="none" fill="#bcc4dc" fill-rule="evenodd"></path></g></svg>